{"glyphs":{"0":{"ha":406,"x_min":22,"x_max":383,"o":"m 383 250 q 372 160 383 203 q 337 82 360 117 q 278 22 314 47 q 194 -13 243 -3 q 117 8 149 -13 q 63 63 84 30 q 32 137 42 97 q 22 217 22 178 q 34 305 22 263 q 70 381 47 347 q 130 442 94 416 q 211 481 165 467 q 290 459 258 481 q 344 404 323 438 q 374 330 365 371 q 383 250 383 289 m 336 217 q 327 291 336 252 q 300 361 319 329 q 250 415 281 394 q 178 436 220 436 q 125 408 146 426 q 92 364 104 389 q 74 309 79 339 q 69 250 69 280 q 78 176 69 215 q 107 105 88 138 q 156 52 126 73 q 228 31 185 31 q 282 57 261 38 q 315 101 303 76 q 332 156 327 126 q 336 217 336 186 z "},"1":{"ha":314,"x_min":11,"x_max":322,"o":"m 322 -5 l 319 -13 q 267 -3 294 -7 q 215 0 240 0 l 199 0 q 147 -3 174 0 q 94 -13 119 -7 l 92 -5 q 139 11 122 4 q 166 30 157 18 q 177 64 174 42 q 179 122 179 85 l 179 401 q 144 369 163 384 q 105 343 126 354 q 62 326 85 332 q 23 322 43 322 l 13 322 l 11 325 l 47 369 q 131 390 96 369 q 200 453 167 411 l 222 481 l 236 478 l 236 122 q 238 64 236 85 q 249 30 240 42 q 275 11 258 18 q 322 -5 292 4 z "},"2":{"ha":408,"x_min":28,"x_max":389,"o":"m 389 106 q 376 47 381 74 q 369 -13 372 19 l 364 -17 q 344 -8 354 -11 q 322 -2 335 -4 q 292 0 309 -1 q 253 0 276 0 l 129 0 q 73 -3 96 0 q 31 -13 49 -7 l 28 -5 q 120 55 72 22 q 208 127 168 88 q 275 209 249 165 q 301 301 301 252 q 291 360 301 335 q 262 404 281 386 q 218 432 244 422 q 163 444 192 442 q 105 407 127 434 q 83 340 83 380 q 99 277 83 301 q 144 233 114 253 l 144 231 l 111 197 q 59 243 78 212 q 39 313 39 274 q 53 373 39 345 q 89 423 67 401 q 140 461 112 445 q 197 485 169 476 q 260 473 231 483 q 311 443 290 463 q 344 396 332 424 q 356 332 356 368 q 339 246 356 286 q 294 172 322 206 q 230 107 266 137 q 156 51 194 77 l 300 51 q 328 53 317 51 q 347 61 339 55 q 360 79 354 67 q 376 110 367 90 l 389 106 z "},"3":{"ha":392,"x_min":22,"x_max":369,"o":"m 369 181 q 352 102 369 138 q 307 42 335 67 q 243 1 279 16 q 167 -19 206 -15 q 86 8 121 -13 q 22 64 51 28 l 67 106 l 72 106 q 128 49 97 69 q 203 25 160 28 q 253 36 231 28 q 290 58 275 44 q 312 95 304 73 q 319 147 319 117 q 310 193 319 173 q 283 227 300 213 q 245 248 267 241 q 200 256 224 256 q 163 251 181 256 q 128 233 144 246 l 117 250 q 162 282 138 269 q 215 300 187 296 q 236 308 226 303 q 255 320 247 313 q 267 338 263 328 q 272 361 272 347 q 263 398 272 383 q 238 423 253 413 q 202 438 222 433 q 161 444 183 443 q 138 439 149 442 q 116 428 126 435 q 101 413 107 422 q 94 389 94 403 q 103 358 94 373 l 103 353 l 58 322 q 51 341 53 331 q 50 361 50 351 q 64 407 50 385 q 99 444 78 428 q 145 472 120 461 q 192 486 169 483 q 236 480 214 485 q 277 463 259 474 q 307 434 295 451 q 318 392 318 416 q 303 338 318 360 q 264 299 288 315 q 340 260 311 291 q 369 181 369 230 z "},"4":{"ha":403,"x_min":19,"x_max":392,"o":"m 392 174 q 377 143 382 157 q 369 114 372 128 l 367 111 l 310 111 q 311 56 310 76 q 318 26 313 37 q 335 9 324 15 q 367 -5 347 3 l 364 -13 q 324 -3 343 -7 q 285 0 306 0 l 274 0 q 234 -3 253 0 q 194 -13 215 -7 l 192 -5 q 224 9 212 3 q 243 26 237 15 q 252 56 250 37 q 254 111 254 76 l 28 111 l 19 122 q 64 222 35 171 q 131 320 94 272 q 211 409 169 368 q 296 481 254 451 l 310 475 l 310 163 l 336 163 q 354 163 347 163 q 366 166 361 164 q 376 171 372 168 q 385 179 380 174 l 392 174 m 254 163 l 254 415 q 199 360 226 390 q 148 296 172 329 q 105 228 124 263 q 78 163 87 194 l 254 163 z "},"5":{"ha":392,"x_min":17,"x_max":358,"o":"m 358 194 q 343 115 358 151 q 301 50 328 78 q 238 4 274 22 q 161 -20 202 -15 q 80 8 115 -15 q 17 65 44 31 l 61 107 l 67 107 q 122 49 90 70 q 197 24 153 27 q 283 66 257 32 q 308 161 308 99 q 298 215 308 190 q 270 258 288 240 q 228 286 253 276 q 175 296 204 296 q 119 286 144 296 q 69 258 94 276 l 58 264 l 78 467 l 82 472 q 124 467 99 468 q 181 467 149 467 l 281 467 q 313 472 303 467 q 332 486 322 476 l 339 481 q 317 415 321 449 l 313 410 q 270 415 296 414 q 214 415 245 415 l 117 415 l 106 311 q 211 343 157 343 q 272 332 245 343 q 318 300 299 320 q 348 253 338 281 q 358 194 358 226 z "},"6":{"ha":397,"x_min":31,"x_max":375,"o":"m 375 175 q 360 103 375 136 q 318 44 344 69 q 258 2 292 19 q 186 -19 224 -14 q 120 3 149 -14 q 71 45 91 19 q 41 103 51 71 q 31 169 31 135 q 50 283 31 231 q 102 378 69 336 q 181 450 135 420 q 281 494 227 480 l 286 489 l 261 447 q 143 381 187 431 q 86 257 99 331 q 147 308 113 288 q 225 340 181 328 q 284 322 257 335 q 332 287 312 308 q 364 238 352 266 q 375 175 375 209 m 328 142 q 293 250 328 210 q 192 297 258 290 q 127 267 154 288 q 82 217 101 247 l 82 206 q 88 149 82 176 q 114 92 96 117 q 159 49 131 67 q 224 26 186 32 q 300 65 273 37 q 328 142 328 92 z "},"7":{"ha":356,"x_min":14,"x_max":375,"o":"m 375 467 q 251 266 297 347 q 196 135 206 185 q 190 81 190 106 q 191 61 190 71 q 208 0 194 29 l 150 -16 l 139 -10 q 133 11 135 -2 q 131 40 131 24 l 131 50 q 131 73 131 61 q 138 110 133 91 q 193 232 150 159 q 306 410 235 304 l 108 410 q 78 406 90 410 q 56 393 65 401 q 40 372 47 385 q 26 343 33 360 l 14 347 q 29 410 24 380 q 36 478 34 441 l 42 482 q 61 475 51 478 q 84 470 71 472 q 113 467 97 468 q 153 467 130 467 l 272 467 q 329 467 303 467 q 371 472 354 468 l 375 467 z "},"8":{"ha":403,"x_min":31,"x_max":386,"o":"m 386 153 q 370 86 386 116 q 327 35 353 57 q 268 -1 301 13 q 201 -19 235 -15 q 141 -9 171 -18 q 86 17 110 0 q 46 59 61 34 q 31 117 31 84 q 39 163 31 142 q 61 201 47 184 q 94 231 75 218 q 135 254 113 244 q 105 269 119 260 q 80 290 90 278 q 62 317 69 302 q 56 353 56 333 q 69 407 56 383 q 106 446 83 430 q 156 472 128 463 q 211 486 183 482 q 260 480 235 486 q 307 460 286 473 q 342 427 328 447 q 356 382 356 408 q 331 315 356 342 q 271 271 306 288 q 313 253 292 263 q 350 230 334 244 q 376 197 367 216 q 386 153 386 178 m 313 353 q 299 395 313 378 q 266 425 286 413 q 223 442 247 436 q 178 447 199 447 q 148 441 162 444 q 123 431 133 438 q 105 413 112 424 q 99 382 99 401 q 113 341 99 358 q 148 312 126 324 q 194 293 169 301 q 243 279 219 285 q 291 308 270 290 q 313 353 313 326 m 339 117 q 322 167 339 147 q 278 203 304 188 q 222 226 252 217 q 167 243 192 235 q 103 208 129 231 q 76 151 76 185 q 91 97 76 120 q 128 58 105 74 q 181 34 151 42 q 240 25 210 26 q 280 33 262 28 q 311 49 298 39 q 332 76 324 60 q 339 117 339 92 z "},"9":{"ha":397,"x_min":28,"x_max":372,"o":"m 372 297 q 353 183 372 236 q 301 89 334 131 q 222 17 267 47 q 122 -27 176 -12 l 117 -22 l 142 19 q 260 86 216 36 q 317 210 304 135 q 256 159 290 179 q 178 126 222 139 q 118 145 146 131 q 71 180 91 158 q 39 229 51 201 q 28 292 28 257 q 43 364 28 331 q 84 423 58 397 q 144 464 110 448 q 217 486 178 481 q 283 464 253 481 q 332 422 312 447 q 362 364 351 397 q 372 297 372 332 m 321 250 l 321 261 q 315 317 321 290 q 289 375 307 349 q 244 417 272 400 q 179 440 217 435 q 102 402 130 430 q 75 325 75 374 q 110 216 75 256 q 211 169 145 177 q 275 199 249 179 q 321 250 302 219 z "},"\u0000":{"ha":0,"x_min":0,"x_max":0,"o":""},"\r":{"ha":556,"x_min":0,"x_max":0,"o":""}," ":{"ha":178,"x_min":0,"x_max":0,"o":""},"!":{"ha":556,"x_min":28,"x_max":528,"o":"m 528 -149 l 28 -149 l 28 833 l 528 833 l 528 -149 m 486 -110 l 486 794 l 69 794 l 69 -110 l 486 -110 m 379 673 q 353 604 379 626 q 282 581 328 581 l 165 581 l 165 589 l 185 589 l 185 757 l 165 757 l 165 764 l 282 764 q 353 741 328 764 q 379 673 379 719 m 360 363 l 178 363 l 178 370 l 199 370 l 199 538 l 178 538 l 178 545 l 356 545 l 356 482 l 348 482 q 328 523 342 508 q 285 538 314 538 l 275 538 l 275 459 l 276 459 q 300 468 291 459 q 310 495 308 477 l 318 495 l 318 415 l 310 415 q 300 443 308 433 q 276 452 291 452 l 275 452 l 275 370 l 289 370 q 332 389 318 370 q 352 433 346 408 l 360 433 l 360 363 m 397 143 l 280 143 l 280 151 l 301 151 l 301 307 l 244 143 l 234 143 l 179 306 l 179 172 q 184 155 179 160 q 205 151 189 151 l 205 143 l 146 143 l 146 151 q 165 155 160 151 q 169 172 169 159 l 169 319 l 147 319 l 147 326 l 245 326 l 272 249 l 298 326 l 397 326 l 397 319 l 376 319 l 376 151 l 397 151 l 397 143 m 372 15 q 365 -23 372 -6 q 344 -53 357 -40 q 313 -73 331 -66 q 273 -80 294 -80 q 233 -73 251 -80 q 202 -52 215 -65 q 181 -22 189 -40 q 174 15 174 -5 q 181 53 174 35 q 202 83 189 70 q 233 103 215 96 q 273 110 251 110 q 312 103 294 110 q 344 84 331 97 q 365 53 357 71 q 372 15 372 36 m 297 620 l 297 722 q 292 750 297 742 q 267 757 286 757 l 263 757 l 263 589 l 267 589 q 291 595 285 589 q 297 620 297 602 m 291 -41 l 291 72 q 288 93 291 83 q 273 103 285 103 q 258 93 261 103 q 256 72 256 83 l 256 -41 q 258 -63 256 -53 q 273 -73 261 -73 q 288 -63 285 -73 q 291 -41 291 -53 z "},"\"":{"ha":556,"x_min":28,"x_max":528,"o":"m 528 -149 l 28 -149 l 28 833 l 528 833 l 528 -149 m 486 -110 l 486 794 l 69 794 l 69 -110 l 486 -110 m 379 673 q 353 604 379 626 q 282 581 328 581 l 165 581 l 165 589 l 185 589 l 185 757 l 165 757 l 165 764 l 282 764 q 353 741 328 764 q 379 673 379 719 m 360 363 l 178 363 l 178 370 l 199 370 l 199 538 l 178 538 l 178 545 l 356 545 l 356 482 l 348 482 q 328 523 342 508 q 285 538 314 538 l 275 538 l 275 459 l 276 459 q 300 468 291 459 q 310 495 308 477 l 318 495 l 318 415 l 310 415 q 300 443 308 433 q 276 452 291 452 l 275 452 l 275 370 l 289 370 q 332 389 318 370 q 352 433 346 408 l 360 433 l 360 363 m 397 143 l 280 143 l 280 151 l 301 151 l 301 307 l 244 143 l 234 143 l 179 306 l 179 172 q 184 155 179 160 q 205 151 189 151 l 205 143 l 146 143 l 146 151 q 165 155 160 151 q 169 172 169 159 l 169 319 l 147 319 l 147 326 l 245 326 l 272 249 l 298 326 l 397 326 l 397 319 l 376 319 l 376 151 l 397 151 l 397 143 m 372 15 q 365 -23 372 -6 q 344 -53 357 -40 q 313 -73 331 -66 q 273 -80 294 -80 q 233 -73 251 -80 q 202 -52 215 -65 q 181 -22 189 -40 q 174 15 174 -5 q 181 53 174 35 q 202 83 189 70 q 233 103 215 96 q 273 110 251 110 q 312 103 294 110 q 344 84 331 97 q 365 53 357 71 q 372 15 372 36 m 297 620 l 297 722 q 292 750 297 742 q 267 757 286 757 l 263 757 l 263 589 l 267 589 q 291 595 285 589 q 297 620 297 602 m 291 -41 l 291 72 q 288 93 291 83 q 273 103 285 103 q 258 93 261 103 q 256 72 256 83 l 256 -41 q 258 -63 256 -53 q 273 -73 261 -73 q 288 -63 285 -73 q 291 -41 291 -53 z "},"#":{"ha":400,"x_min":19,"x_max":381,"o":"m 381 331 l 365 286 l 292 286 l 261 175 l 347 175 l 350 167 l 335 122 l 247 122 l 211 -13 l 179 -13 l 215 122 l 122 122 l 86 -13 l 54 -13 l 90 122 l 22 122 l 19 131 l 35 175 l 104 175 l 135 286 l 53 286 l 50 294 l 65 339 l 149 339 l 186 481 l 218 481 l 181 339 l 274 339 l 311 481 l 343 481 l 306 339 l 378 339 l 381 331 m 260 286 l 167 286 l 136 175 l 229 175 l 260 286 z "},"$":{"ha":556,"x_min":28,"x_max":528,"o":"m 528 -149 l 28 -149 l 28 833 l 528 833 l 528 -149 m 486 -110 l 486 794 l 69 794 l 69 -110 l 486 -110 m 379 673 q 353 604 379 626 q 282 581 328 581 l 165 581 l 165 589 l 185 589 l 185 757 l 165 757 l 165 764 l 282 764 q 353 741 328 764 q 379 673 379 719 m 360 363 l 178 363 l 178 370 l 199 370 l 199 538 l 178 538 l 178 545 l 356 545 l 356 482 l 348 482 q 328 523 342 508 q 285 538 314 538 l 275 538 l 275 459 l 276 459 q 300 468 291 459 q 310 495 308 477 l 318 495 l 318 415 l 310 415 q 300 443 308 433 q 276 452 291 452 l 275 452 l 275 370 l 289 370 q 332 389 318 370 q 352 433 346 408 l 360 433 l 360 363 m 397 143 l 280 143 l 280 151 l 301 151 l 301 307 l 244 143 l 234 143 l 179 306 l 179 172 q 184 155 179 160 q 205 151 189 151 l 205 143 l 146 143 l 146 151 q 165 155 160 151 q 169 172 169 159 l 169 319 l 147 319 l 147 326 l 245 326 l 272 249 l 298 326 l 397 326 l 397 319 l 376 319 l 376 151 l 397 151 l 397 143 m 372 15 q 365 -23 372 -6 q 344 -53 357 -40 q 313 -73 331 -66 q 273 -80 294 -80 q 233 -73 251 -80 q 202 -52 215 -65 q 181 -22 189 -40 q 174 15 174 -5 q 181 53 174 35 q 202 83 189 70 q 233 103 215 96 q 273 110 251 110 q 312 103 294 110 q 344 84 331 97 q 365 53 357 71 q 372 15 372 36 m 297 620 l 297 722 q 292 750 297 742 q 267 757 286 757 l 263 757 l 263 589 l 267 589 q 291 595 285 589 q 297 620 297 602 m 291 -41 l 291 72 q 288 93 291 83 q 273 103 285 103 q 258 93 261 103 q 256 72 256 83 l 256 -41 q 258 -63 256 -53 q 273 -73 261 -73 q 288 -63 285 -73 q 291 -41 291 -53 z "},"%":{"ha":556,"x_min":28,"x_max":528,"o":"m 528 -149 l 28 -149 l 28 833 l 528 833 l 528 -149 m 486 -110 l 486 794 l 69 794 l 69 -110 l 486 -110 m 379 673 q 353 604 379 626 q 282 581 328 581 l 165 581 l 165 589 l 185 589 l 185 757 l 165 757 l 165 764 l 282 764 q 353 741 328 764 q 379 673 379 719 m 360 363 l 178 363 l 178 370 l 199 370 l 199 538 l 178 538 l 178 545 l 356 545 l 356 482 l 348 482 q 328 523 342 508 q 285 538 314 538 l 275 538 l 275 459 l 276 459 q 300 468 291 459 q 310 495 308 477 l 318 495 l 318 415 l 310 415 q 300 443 308 433 q 276 452 291 452 l 275 452 l 275 370 l 289 370 q 332 389 318 370 q 352 433 346 408 l 360 433 l 360 363 m 397 143 l 280 143 l 280 151 l 301 151 l 301 307 l 244 143 l 234 143 l 179 306 l 179 172 q 184 155 179 160 q 205 151 189 151 l 205 143 l 146 143 l 146 151 q 165 155 160 151 q 169 172 169 159 l 169 319 l 147 319 l 147 326 l 245 326 l 272 249 l 298 326 l 397 326 l 397 319 l 376 319 l 376 151 l 397 151 l 397 143 m 372 15 q 365 -23 372 -6 q 344 -53 357 -40 q 313 -73 331 -66 q 273 -80 294 -80 q 233 -73 251 -80 q 202 -52 215 -65 q 181 -22 189 -40 q 174 15 174 -5 q 181 53 174 35 q 202 83 189 70 q 233 103 215 96 q 273 110 251 110 q 312 103 294 110 q 344 84 331 97 q 365 53 357 71 q 372 15 372 36 m 297 620 l 297 722 q 292 750 297 742 q 267 757 286 757 l 263 757 l 263 589 l 267 589 q 291 595 285 589 q 297 620 297 602 m 291 -41 l 291 72 q 288 93 291 83 q 273 103 285 103 q 258 93 261 103 q 256 72 256 83 l 256 -41 q 258 -63 256 -53 q 273 -73 261 -73 q 288 -63 285 -73 q 291 -41 291 -53 z "},"&":{"ha":775,"x_min":61,"x_max":733,"o":"m 733 356 l 699 313 q 665 342 682 331 q 626 353 649 353 q 591 341 606 353 q 560 308 576 329 q 525 260 541 284 q 493 213 509 235 q 539 130 520 175 q 569 31 557 85 l 578 31 q 619 32 601 31 q 652 40 637 34 q 680 59 667 47 q 707 94 693 72 l 717 90 l 672 -10 l 667 -13 q 636 -3 653 -6 q 599 0 619 0 l 593 0 q 563 -3 581 0 q 522 -13 544 -6 l 517 -10 q 492 81 506 40 q 457 160 478 123 q 416 106 437 131 q 373 58 396 80 q 324 17 350 35 q 267 -13 298 -1 q 191 -5 228 -13 q 125 23 154 4 q 79 70 97 41 q 61 142 61 100 q 75 210 61 179 q 110 267 88 241 q 159 315 132 293 q 213 354 186 336 q 183 370 198 361 q 157 392 169 380 q 138 418 145 403 q 131 450 131 432 q 143 495 131 474 q 176 535 156 517 q 219 564 196 552 q 264 581 243 576 q 302 568 283 576 q 335 550 320 561 q 358 524 349 539 q 367 489 367 508 q 360 456 367 472 q 341 427 353 441 q 313 400 328 413 q 279 375 297 388 q 391 313 343 346 q 475 236 440 279 q 498 269 487 253 q 522 303 510 286 q 555 344 540 326 q 585 374 570 362 q 615 393 599 387 q 647 400 630 400 q 688 391 667 400 q 733 364 709 382 l 733 356 m 322 458 q 314 493 322 478 q 292 519 306 508 q 263 536 279 530 q 229 546 246 543 q 189 520 205 538 q 172 478 172 503 q 180 443 172 458 q 201 417 188 428 q 228 398 213 406 q 257 385 243 390 q 304 422 285 405 q 322 458 322 440 m 442 185 q 358 272 408 234 q 233 343 308 310 q 190 310 211 327 q 152 273 169 293 q 126 228 136 252 q 117 175 117 204 q 133 111 117 137 q 176 69 150 85 q 235 46 202 53 q 300 39 267 39 q 378 102 345 64 q 442 185 411 141 z "},"'":{"ha":556,"x_min":28,"x_max":528,"o":"m 528 -149 l 28 -149 l 28 833 l 528 833 l 528 -149 m 486 -110 l 486 794 l 69 794 l 69 -110 l 486 -110 m 379 673 q 353 604 379 626 q 282 581 328 581 l 165 581 l 165 589 l 185 589 l 185 757 l 165 757 l 165 764 l 282 764 q 353 741 328 764 q 379 673 379 719 m 360 363 l 178 363 l 178 370 l 199 370 l 199 538 l 178 538 l 178 545 l 356 545 l 356 482 l 348 482 q 328 523 342 508 q 285 538 314 538 l 275 538 l 275 459 l 276 459 q 300 468 291 459 q 310 495 308 477 l 318 495 l 318 415 l 310 415 q 300 443 308 433 q 276 452 291 452 l 275 452 l 275 370 l 289 370 q 332 389 318 370 q 352 433 346 408 l 360 433 l 360 363 m 397 143 l 280 143 l 280 151 l 301 151 l 301 307 l 244 143 l 234 143 l 179 306 l 179 172 q 184 155 179 160 q 205 151 189 151 l 205 143 l 146 143 l 146 151 q 165 155 160 151 q 169 172 169 159 l 169 319 l 147 319 l 147 326 l 245 326 l 272 249 l 298 326 l 397 326 l 397 319 l 376 319 l 376 151 l 397 151 l 397 143 m 372 15 q 365 -23 372 -6 q 344 -53 357 -40 q 313 -73 331 -66 q 273 -80 294 -80 q 233 -73 251 -80 q 202 -52 215 -65 q 181 -22 189 -40 q 174 15 174 -5 q 181 53 174 35 q 202 83 189 70 q 233 103 215 96 q 273 110 251 110 q 312 103 294 110 q 344 84 331 97 q 365 53 357 71 q 372 15 372 36 m 297 620 l 297 722 q 292 750 297 742 q 267 757 286 757 l 263 757 l 263 589 l 267 589 q 291 595 285 589 q 297 620 297 602 m 291 -41 l 291 72 q 288 93 291 83 q 273 103 285 103 q 258 93 261 103 q 256 72 256 83 l 256 -41 q 258 -63 256 -53 q 273 -73 261 -73 q 288 -63 285 -73 q 291 -41 291 -53 z "},"(":{"ha":556,"x_min":28,"x_max":528,"o":"m 528 -149 l 28 -149 l 28 833 l 528 833 l 528 -149 m 486 -110 l 486 794 l 69 794 l 69 -110 l 486 -110 m 379 673 q 353 604 379 626 q 282 581 328 581 l 165 581 l 165 589 l 185 589 l 185 757 l 165 757 l 165 764 l 282 764 q 353 741 328 764 q 379 673 379 719 m 360 363 l 178 363 l 178 370 l 199 370 l 199 538 l 178 538 l 178 545 l 356 545 l 356 482 l 348 482 q 328 523 342 508 q 285 538 314 538 l 275 538 l 275 459 l 276 459 q 300 468 291 459 q 310 495 308 477 l 318 495 l 318 415 l 310 415 q 300 443 308 433 q 276 452 291 452 l 275 452 l 275 370 l 289 370 q 332 389 318 370 q 352 433 346 408 l 360 433 l 360 363 m 397 143 l 280 143 l 280 151 l 301 151 l 301 307 l 244 143 l 234 143 l 179 306 l 179 172 q 184 155 179 160 q 205 151 189 151 l 205 143 l 146 143 l 146 151 q 165 155 160 151 q 169 172 169 159 l 169 319 l 147 319 l 147 326 l 245 326 l 272 249 l 298 326 l 397 326 l 397 319 l 376 319 l 376 151 l 397 151 l 397 143 m 372 15 q 365 -23 372 -6 q 344 -53 357 -40 q 313 -73 331 -66 q 273 -80 294 -80 q 233 -73 251 -80 q 202 -52 215 -65 q 181 -22 189 -40 q 174 15 174 -5 q 181 53 174 35 q 202 83 189 70 q 233 103 215 96 q 273 110 251 110 q 312 103 294 110 q 344 84 331 97 q 365 53 357 71 q 372 15 372 36 m 297 620 l 297 722 q 292 750 297 742 q 267 757 286 757 l 263 757 l 263 589 l 267 589 q 291 595 285 589 q 297 620 297 602 m 291 -41 l 291 72 q 288 93 291 83 q 273 103 285 103 q 258 93 261 103 q 256 72 256 83 l 256 -41 q 258 -63 256 -53 q 273 -73 261 -73 q 288 -63 285 -73 q 291 -41 291 -53 z "},")":{"ha":556,"x_min":28,"x_max":528,"o":"m 528 -149 l 28 -149 l 28 833 l 528 833 l 528 -149 m 486 -110 l 486 794 l 69 794 l 69 -110 l 486 -110 m 379 673 q 353 604 379 626 q 282 581 328 581 l 165 581 l 165 589 l 185 589 l 185 757 l 165 757 l 165 764 l 282 764 q 353 741 328 764 q 379 673 379 719 m 360 363 l 178 363 l 178 370 l 199 370 l 199 538 l 178 538 l 178 545 l 356 545 l 356 482 l 348 482 q 328 523 342 508 q 285 538 314 538 l 275 538 l 275 459 l 276 459 q 300 468 291 459 q 310 495 308 477 l 318 495 l 318 415 l 310 415 q 300 443 308 433 q 276 452 291 452 l 275 452 l 275 370 l 289 370 q 332 389 318 370 q 352 433 346 408 l 360 433 l 360 363 m 397 143 l 280 143 l 280 151 l 301 151 l 301 307 l 244 143 l 234 143 l 179 306 l 179 172 q 184 155 179 160 q 205 151 189 151 l 205 143 l 146 143 l 146 151 q 165 155 160 151 q 169 172 169 159 l 169 319 l 147 319 l 147 326 l 245 326 l 272 249 l 298 326 l 397 326 l 397 319 l 376 319 l 376 151 l 397 151 l 397 143 m 372 15 q 365 -23 372 -6 q 344 -53 357 -40 q 313 -73 331 -66 q 273 -80 294 -80 q 233 -73 251 -80 q 202 -52 215 -65 q 181 -22 189 -40 q 174 15 174 -5 q 181 53 174 35 q 202 83 189 70 q 233 103 215 96 q 273 110 251 110 q 312 103 294 110 q 344 84 331 97 q 365 53 357 71 q 372 15 372 36 m 297 620 l 297 722 q 292 750 297 742 q 267 757 286 757 l 263 757 l 263 589 l 267 589 q 291 595 285 589 q 297 620 297 602 m 291 -41 l 291 72 q 288 93 291 83 q 273 103 285 103 q 258 93 261 103 q 256 72 256 83 l 256 -41 q 258 -63 256 -53 q 273 -73 261 -73 q 288 -63 285 -73 q 291 -41 291 -53 z "},"*":{"ha":361,"x_min":36,"x_max":344,"o":"m 344 429 l 338 414 l 194 440 l 253 318 l 213 289 l 196 292 l 178 435 l 79 342 l 39 371 l 36 388 l 167 450 l 49 514 l 64 561 l 78 569 l 178 464 l 203 597 l 253 597 l 264 585 l 194 458 l 329 476 l 344 429 z "},"+":{"ha":556,"x_min":28,"x_max":528,"o":"m 528 -149 l 28 -149 l 28 833 l 528 833 l 528 -149 m 486 -110 l 486 794 l 69 794 l 69 -110 l 486 -110 m 379 673 q 353 604 379 626 q 282 581 328 581 l 165 581 l 165 589 l 185 589 l 185 757 l 165 757 l 165 764 l 282 764 q 353 741 328 764 q 379 673 379 719 m 360 363 l 178 363 l 178 370 l 199 370 l 199 538 l 178 538 l 178 545 l 356 545 l 356 482 l 348 482 q 328 523 342 508 q 285 538 314 538 l 275 538 l 275 459 l 276 459 q 300 468 291 459 q 310 495 308 477 l 318 495 l 318 415 l 310 415 q 300 443 308 433 q 276 452 291 452 l 275 452 l 275 370 l 289 370 q 332 389 318 370 q 352 433 346 408 l 360 433 l 360 363 m 397 143 l 280 143 l 280 151 l 301 151 l 301 307 l 244 143 l 234 143 l 179 306 l 179 172 q 184 155 179 160 q 205 151 189 151 l 205 143 l 146 143 l 146 151 q 165 155 160 151 q 169 172 169 159 l 169 319 l 147 319 l 147 326 l 245 326 l 272 249 l 298 326 l 397 326 l 397 319 l 376 319 l 376 151 l 397 151 l 397 143 m 372 15 q 365 -23 372 -6 q 344 -53 357 -40 q 313 -73 331 -66 q 273 -80 294 -80 q 233 -73 251 -80 q 202 -52 215 -65 q 181 -22 189 -40 q 174 15 174 -5 q 181 53 174 35 q 202 83 189 70 q 233 103 215 96 q 273 110 251 110 q 312 103 294 110 q 344 84 331 97 q 365 53 357 71 q 372 15 372 36 m 297 620 l 297 722 q 292 750 297 742 q 267 757 286 757 l 263 757 l 263 589 l 267 589 q 291 595 285 589 q 297 620 297 602 m 291 -41 l 291 72 q 288 93 291 83 q 273 103 285 103 q 258 93 261 103 q 256 72 256 83 l 256 -41 q 258 -63 256 -53 q 273 -73 261 -73 q 288 -63 285 -73 q 291 -41 291 -53 z "},",":{"ha":167,"x_min":31,"x_max":142,"o":"m 142 -16 q 131 -56 142 -36 q 105 -93 121 -75 q 72 -127 90 -111 q 39 -155 54 -143 l 31 -144 q 68 -106 52 -124 q 91 -69 85 -87 q 94 -50 94 -60 q 92 -32 94 -41 q 63 7 85 -13 q 46 18 56 13 q 31 25 36 23 l 31 29 l 69 75 l 94 54 q 142 -16 142 15 z "},"-":{"ha":556,"x_min":28,"x_max":528,"o":"m 528 -149 l 28 -149 l 28 833 l 528 833 l 528 -149 m 486 -110 l 486 794 l 69 794 l 69 -110 l 486 -110 m 379 673 q 353 604 379 626 q 282 581 328 581 l 165 581 l 165 589 l 185 589 l 185 757 l 165 757 l 165 764 l 282 764 q 353 741 328 764 q 379 673 379 719 m 360 363 l 178 363 l 178 370 l 199 370 l 199 538 l 178 538 l 178 545 l 356 545 l 356 482 l 348 482 q 328 523 342 508 q 285 538 314 538 l 275 538 l 275 459 l 276 459 q 300 468 291 459 q 310 495 308 477 l 318 495 l 318 415 l 310 415 q 300 443 308 433 q 276 452 291 452 l 275 452 l 275 370 l 289 370 q 332 389 318 370 q 352 433 346 408 l 360 433 l 360 363 m 397 143 l 280 143 l 280 151 l 301 151 l 301 307 l 244 143 l 234 143 l 179 306 l 179 172 q 184 155 179 160 q 205 151 189 151 l 205 143 l 146 143 l 146 151 q 165 155 160 151 q 169 172 169 159 l 169 319 l 147 319 l 147 326 l 245 326 l 272 249 l 298 326 l 397 326 l 397 319 l 376 319 l 376 151 l 397 151 l 397 143 m 372 15 q 365 -23 372 -6 q 344 -53 357 -40 q 313 -73 331 -66 q 273 -80 294 -80 q 233 -73 251 -80 q 202 -52 215 -65 q 181 -22 189 -40 q 174 15 174 -5 q 181 53 174 35 q 202 83 189 70 q 233 103 215 96 q 273 110 251 110 q 312 103 294 110 q 344 84 331 97 q 365 53 357 71 q 372 15 372 36 m 297 620 l 297 722 q 292 750 297 742 q 267 757 286 757 l 263 757 l 263 589 l 267 589 q 291 595 285 589 q 297 620 297 602 m 291 -41 l 291 72 q 288 93 291 83 q 273 103 285 103 q 258 93 261 103 q 256 72 256 83 l 256 -41 q 258 -63 256 -53 q 273 -73 261 -73 q 288 -63 285 -73 q 291 -41 291 -53 z "},".":{"ha":167,"x_min":39,"x_max":128,"o":"m 128 35 q 109 9 122 22 q 88 -13 97 -5 l 83 -13 q 75 -2 81 -8 q 64 9 70 3 q 51 19 58 15 q 39 26 44 24 l 39 31 l 78 75 l 128 35 z "},"/":{"ha":397,"x_min":39,"x_max":397,"o":"m 397 739 l 94 -160 l 39 -160 l 342 739 l 397 739 z "},":":{"ha":556,"x_min":28,"x_max":528,"o":"m 528 -149 l 28 -149 l 28 833 l 528 833 l 528 -149 m 486 -110 l 486 794 l 69 794 l 69 -110 l 486 -110 m 379 673 q 353 604 379 626 q 282 581 328 581 l 165 581 l 165 589 l 185 589 l 185 757 l 165 757 l 165 764 l 282 764 q 353 741 328 764 q 379 673 379 719 m 360 363 l 178 363 l 178 370 l 199 370 l 199 538 l 178 538 l 178 545 l 356 545 l 356 482 l 348 482 q 328 523 342 508 q 285 538 314 538 l 275 538 l 275 459 l 276 459 q 300 468 291 459 q 310 495 308 477 l 318 495 l 318 415 l 310 415 q 300 443 308 433 q 276 452 291 452 l 275 452 l 275 370 l 289 370 q 332 389 318 370 q 352 433 346 408 l 360 433 l 360 363 m 397 143 l 280 143 l 280 151 l 301 151 l 301 307 l 244 143 l 234 143 l 179 306 l 179 172 q 184 155 179 160 q 205 151 189 151 l 205 143 l 146 143 l 146 151 q 165 155 160 151 q 169 172 169 159 l 169 319 l 147 319 l 147 326 l 245 326 l 272 249 l 298 326 l 397 326 l 397 319 l 376 319 l 376 151 l 397 151 l 397 143 m 372 15 q 365 -23 372 -6 q 344 -53 357 -40 q 313 -73 331 -66 q 273 -80 294 -80 q 233 -73 251 -80 q 202 -52 215 -65 q 181 -22 189 -40 q 174 15 174 -5 q 181 53 174 35 q 202 83 189 70 q 233 103 215 96 q 273 110 251 110 q 312 103 294 110 q 344 84 331 97 q 365 53 357 71 q 372 15 372 36 m 297 620 l 297 722 q 292 750 297 742 q 267 757 286 757 l 263 757 l 263 589 l 267 589 q 291 595 285 589 q 297 620 297 602 m 291 -41 l 291 72 q 288 93 291 83 q 273 103 285 103 q 258 93 261 103 q 256 72 256 83 l 256 -41 q 258 -63 256 -53 q 273 -73 261 -73 q 288 -63 285 -73 q 291 -41 291 -53 z "},";":{"ha":167,"x_min":31,"x_max":142,"o":"m 128 251 q 109 225 122 239 q 88 203 97 211 l 83 203 q 75 214 81 208 q 64 225 70 219 q 51 236 58 231 q 39 243 44 241 l 39 247 l 78 292 l 128 251 m 142 -16 q 131 -56 142 -36 q 105 -93 121 -75 q 72 -127 90 -111 q 39 -155 54 -143 l 31 -144 q 68 -106 52 -124 q 91 -69 85 -87 q 94 -50 94 -60 q 92 -32 94 -41 q 63 7 85 -13 q 46 18 56 13 q 31 25 36 23 l 31 29 l 69 75 l 94 54 q 142 -16 142 15 z "},"<":{"ha":556,"x_min":28,"x_max":528,"o":"m 528 -149 l 28 -149 l 28 833 l 528 833 l 528 -149 m 486 -110 l 486 794 l 69 794 l 69 -110 l 486 -110 m 379 673 q 353 604 379 626 q 282 581 328 581 l 165 581 l 165 589 l 185 589 l 185 757 l 165 757 l 165 764 l 282 764 q 353 741 328 764 q 379 673 379 719 m 360 363 l 178 363 l 178 370 l 199 370 l 199 538 l 178 538 l 178 545 l 356 545 l 356 482 l 348 482 q 328 523 342 508 q 285 538 314 538 l 275 538 l 275 459 l 276 459 q 300 468 291 459 q 310 495 308 477 l 318 495 l 318 415 l 310 415 q 300 443 308 433 q 276 452 291 452 l 275 452 l 275 370 l 289 370 q 332 389 318 370 q 352 433 346 408 l 360 433 l 360 363 m 397 143 l 280 143 l 280 151 l 301 151 l 301 307 l 244 143 l 234 143 l 179 306 l 179 172 q 184 155 179 160 q 205 151 189 151 l 205 143 l 146 143 l 146 151 q 165 155 160 151 q 169 172 169 159 l 169 319 l 147 319 l 147 326 l 245 326 l 272 249 l 298 326 l 397 326 l 397 319 l 376 319 l 376 151 l 397 151 l 397 143 m 372 15 q 365 -23 372 -6 q 344 -53 357 -40 q 313 -73 331 -66 q 273 -80 294 -80 q 233 -73 251 -80 q 202 -52 215 -65 q 181 -22 189 -40 q 174 15 174 -5 q 181 53 174 35 q 202 83 189 70 q 233 103 215 96 q 273 110 251 110 q 312 103 294 110 q 344 84 331 97 q 365 53 357 71 q 372 15 372 36 m 297 620 l 297 722 q 292 750 297 742 q 267 757 286 757 l 263 757 l 263 589 l 267 589 q 291 595 285 589 q 297 620 297 602 m 291 -41 l 291 72 q 288 93 291 83 q 273 103 285 103 q 258 93 261 103 q 256 72 256 83 l 256 -41 q 258 -63 256 -53 q 273 -73 261 -73 q 288 -63 285 -73 q 291 -41 291 -53 z "},"=":{"ha":556,"x_min":28,"x_max":528,"o":"m 528 -149 l 28 -149 l 28 833 l 528 833 l 528 -149 m 486 -110 l 486 794 l 69 794 l 69 -110 l 486 -110 m 379 673 q 353 604 379 626 q 282 581 328 581 l 165 581 l 165 589 l 185 589 l 185 757 l 165 757 l 165 764 l 282 764 q 353 741 328 764 q 379 673 379 719 m 360 363 l 178 363 l 178 370 l 199 370 l 199 538 l 178 538 l 178 545 l 356 545 l 356 482 l 348 482 q 328 523 342 508 q 285 538 314 538 l 275 538 l 275 459 l 276 459 q 300 468 291 459 q 310 495 308 477 l 318 495 l 318 415 l 310 415 q 300 443 308 433 q 276 452 291 452 l 275 452 l 275 370 l 289 370 q 332 389 318 370 q 352 433 346 408 l 360 433 l 360 363 m 397 143 l 280 143 l 280 151 l 301 151 l 301 307 l 244 143 l 234 143 l 179 306 l 179 172 q 184 155 179 160 q 205 151 189 151 l 205 143 l 146 143 l 146 151 q 165 155 160 151 q 169 172 169 159 l 169 319 l 147 319 l 147 326 l 245 326 l 272 249 l 298 326 l 397 326 l 397 319 l 376 319 l 376 151 l 397 151 l 397 143 m 372 15 q 365 -23 372 -6 q 344 -53 357 -40 q 313 -73 331 -66 q 273 -80 294 -80 q 233 -73 251 -80 q 202 -52 215 -65 q 181 -22 189 -40 q 174 15 174 -5 q 181 53 174 35 q 202 83 189 70 q 233 103 215 96 q 273 110 251 110 q 312 103 294 110 q 344 84 331 97 q 365 53 357 71 q 372 15 372 36 m 297 620 l 297 722 q 292 750 297 742 q 267 757 286 757 l 263 757 l 263 589 l 267 589 q 291 595 285 589 q 297 620 297 602 m 291 -41 l 291 72 q 288 93 291 83 q 273 103 285 103 q 258 93 261 103 q 256 72 256 83 l 256 -41 q 258 -63 256 -53 q 273 -73 261 -73 q 288 -63 285 -73 q 291 -41 291 -53 z "},">":{"ha":556,"x_min":28,"x_max":528,"o":"m 528 -149 l 28 -149 l 28 833 l 528 833 l 528 -149 m 486 -110 l 486 794 l 69 794 l 69 -110 l 486 -110 m 379 673 q 353 604 379 626 q 282 581 328 581 l 165 581 l 165 589 l 185 589 l 185 757 l 165 757 l 165 764 l 282 764 q 353 741 328 764 q 379 673 379 719 m 360 363 l 178 363 l 178 370 l 199 370 l 199 538 l 178 538 l 178 545 l 356 545 l 356 482 l 348 482 q 328 523 342 508 q 285 538 314 538 l 275 538 l 275 459 l 276 459 q 300 468 291 459 q 310 495 308 477 l 318 495 l 318 415 l 310 415 q 300 443 308 433 q 276 452 291 452 l 275 452 l 275 370 l 289 370 q 332 389 318 370 q 352 433 346 408 l 360 433 l 360 363 m 397 143 l 280 143 l 280 151 l 301 151 l 301 307 l 244 143 l 234 143 l 179 306 l 179 172 q 184 155 179 160 q 205 151 189 151 l 205 143 l 146 143 l 146 151 q 165 155 160 151 q 169 172 169 159 l 169 319 l 147 319 l 147 326 l 245 326 l 272 249 l 298 326 l 397 326 l 397 319 l 376 319 l 376 151 l 397 151 l 397 143 m 372 15 q 365 -23 372 -6 q 344 -53 357 -40 q 313 -73 331 -66 q 273 -80 294 -80 q 233 -73 251 -80 q 202 -52 215 -65 q 181 -22 189 -40 q 174 15 174 -5 q 181 53 174 35 q 202 83 189 70 q 233 103 215 96 q 273 110 251 110 q 312 103 294 110 q 344 84 331 97 q 365 53 357 71 q 372 15 372 36 m 297 620 l 297 722 q 292 750 297 742 q 267 757 286 757 l 263 757 l 263 589 l 267 589 q 291 595 285 589 q 297 620 297 602 m 291 -41 l 291 72 q 288 93 291 83 q 273 103 285 103 q 258 93 261 103 q 256 72 256 83 l 256 -41 q 258 -63 256 -53 q 273 -73 261 -73 q 288 -63 285 -73 q 291 -41 291 -53 z "},"?":{"ha":556,"x_min":28,"x_max":528,"o":"m 528 -149 l 28 -149 l 28 833 l 528 833 l 528 -149 m 486 -110 l 486 794 l 69 794 l 69 -110 l 486 -110 m 379 673 q 353 604 379 626 q 282 581 328 581 l 165 581 l 165 589 l 185 589 l 185 757 l 165 757 l 165 764 l 282 764 q 353 741 328 764 q 379 673 379 719 m 360 363 l 178 363 l 178 370 l 199 370 l 199 538 l 178 538 l 178 545 l 356 545 l 356 482 l 348 482 q 328 523 342 508 q 285 538 314 538 l 275 538 l 275 459 l 276 459 q 300 468 291 459 q 310 495 308 477 l 318 495 l 318 415 l 310 415 q 300 443 308 433 q 276 452 291 452 l 275 452 l 275 370 l 289 370 q 332 389 318 370 q 352 433 346 408 l 360 433 l 360 363 m 397 143 l 280 143 l 280 151 l 301 151 l 301 307 l 244 143 l 234 143 l 179 306 l 179 172 q 184 155 179 160 q 205 151 189 151 l 205 143 l 146 143 l 146 151 q 165 155 160 151 q 169 172 169 159 l 169 319 l 147 319 l 147 326 l 245 326 l 272 249 l 298 326 l 397 326 l 397 319 l 376 319 l 376 151 l 397 151 l 397 143 m 372 15 q 365 -23 372 -6 q 344 -53 357 -40 q 313 -73 331 -66 q 273 -80 294 -80 q 233 -73 251 -80 q 202 -52 215 -65 q 181 -22 189 -40 q 174 15 174 -5 q 181 53 174 35 q 202 83 189 70 q 233 103 215 96 q 273 110 251 110 q 312 103 294 110 q 344 84 331 97 q 365 53 357 71 q 372 15 372 36 m 297 620 l 297 722 q 292 750 297 742 q 267 757 286 757 l 263 757 l 263 589 l 267 589 q 291 595 285 589 q 297 620 297 602 m 291 -41 l 291 72 q 288 93 291 83 q 273 103 285 103 q 258 93 261 103 q 256 72 256 83 l 256 -41 q 258 -63 256 -53 q 273 -73 261 -73 q 288 -63 285 -73 q 291 -41 291 -53 z "},"@":{"ha":556,"x_min":28,"x_max":528,"o":"m 528 -149 l 28 -149 l 28 833 l 528 833 l 528 -149 m 486 -110 l 486 794 l 69 794 l 69 -110 l 486 -110 m 379 673 q 353 604 379 626 q 282 581 328 581 l 165 581 l 165 589 l 185 589 l 185 757 l 165 757 l 165 764 l 282 764 q 353 741 328 764 q 379 673 379 719 m 360 363 l 178 363 l 178 370 l 199 370 l 199 538 l 178 538 l 178 545 l 356 545 l 356 482 l 348 482 q 328 523 342 508 q 285 538 314 538 l 275 538 l 275 459 l 276 459 q 300 468 291 459 q 310 495 308 477 l 318 495 l 318 415 l 310 415 q 300 443 308 433 q 276 452 291 452 l 275 452 l 275 370 l 289 370 q 332 389 318 370 q 352 433 346 408 l 360 433 l 360 363 m 397 143 l 280 143 l 280 151 l 301 151 l 301 307 l 244 143 l 234 143 l 179 306 l 179 172 q 184 155 179 160 q 205 151 189 151 l 205 143 l 146 143 l 146 151 q 165 155 160 151 q 169 172 169 159 l 169 319 l 147 319 l 147 326 l 245 326 l 272 249 l 298 326 l 397 326 l 397 319 l 376 319 l 376 151 l 397 151 l 397 143 m 372 15 q 365 -23 372 -6 q 344 -53 357 -40 q 313 -73 331 -66 q 273 -80 294 -80 q 233 -73 251 -80 q 202 -52 215 -65 q 181 -22 189 -40 q 174 15 174 -5 q 181 53 174 35 q 202 83 189 70 q 233 103 215 96 q 273 110 251 110 q 312 103 294 110 q 344 84 331 97 q 365 53 357 71 q 372 15 372 36 m 297 620 l 297 722 q 292 750 297 742 q 267 757 286 757 l 263 757 l 263 589 l 267 589 q 291 595 285 589 q 297 620 297 602 m 291 -41 l 291 72 q 288 93 291 83 q 273 103 285 103 q 258 93 261 103 q 256 72 256 83 l 256 -41 q 258 -63 256 -53 q 273 -73 261 -73 q 288 -63 285 -73 q 291 -41 291 -53 z "},"A":{"ha":561,"x_min":3,"x_max":558,"o":"m 558 -5 l 556 -13 q 517 -3 535 -7 q 478 0 499 0 l 458 0 q 419 -3 438 0 q 379 -13 400 -7 l 376 -5 q 409 15 398 6 q 422 39 419 25 q 422 47 422 42 q 419 72 422 58 q 403 122 413 92 l 381 186 l 158 186 l 138 122 q 122 69 126 89 q 118 45 118 56 q 119 35 118 40 q 133 14 122 22 q 167 -5 144 6 l 164 -13 q 127 -3 143 -7 q 90 0 111 0 l 74 0 q 40 -3 53 0 q 6 -13 26 -7 l 3 -5 q 37 16 24 6 q 59 39 50 26 q 77 72 69 52 q 96 122 85 91 l 236 522 q 240 539 240 531 q 232 558 240 551 q 189 583 219 571 l 192 592 q 233 582 213 585 q 274 578 253 578 l 290 578 q 330 582 311 578 q 369 592 349 585 l 372 583 q 346 572 356 578 q 331 560 336 567 q 326 544 326 553 q 331 522 326 535 l 471 122 q 490 69 482 90 q 506 36 498 49 q 526 15 515 24 q 558 -5 538 6 m 368 219 l 267 510 l 169 219 l 368 219 z "},"B":{"ha":519,"x_min":22,"x_max":497,"o":"m 497 200 q 471 107 497 147 q 406 41 445 67 q 322 1 367 14 q 236 -13 276 -12 q 204 -7 219 -10 q 175 -3 190 -5 q 146 -1 161 -1 q 113 0 131 0 q 67 -3 88 0 q 25 -13 46 -7 l 22 -5 q 55 12 43 4 q 72 35 66 19 q 78 76 77 50 q 79 150 79 103 l 79 428 q 78 501 79 474 q 72 543 77 528 q 55 566 66 558 q 22 583 43 574 l 25 592 q 67 582 46 585 q 113 578 88 578 q 191 582 153 578 q 267 592 229 585 q 391 555 349 588 q 433 469 433 521 q 427 425 433 445 q 409 388 420 405 q 382 358 397 372 q 350 335 367 344 q 406 325 379 333 q 453 301 433 317 q 485 260 473 285 q 497 200 497 235 m 381 439 q 369 482 381 462 q 336 518 358 502 q 285 542 315 533 q 218 553 255 551 q 181 542 201 547 q 143 536 161 538 l 143 329 l 268 332 q 312 343 292 335 q 348 364 333 351 q 372 395 363 376 q 381 439 381 414 m 439 167 q 419 240 439 212 q 366 282 399 267 q 292 299 334 297 q 262 300 277 300 q 208 297 235 300 l 143 290 l 143 47 q 176 50 161 50 l 180 50 q 213 47 197 49 q 245 42 228 45 q 283 33 263 38 q 341 40 313 34 q 391 60 369 46 q 426 101 413 75 q 439 167 439 126 z "},"C":{"ha":508,"x_min":28,"x_max":500,"o":"m 500 114 q 459 64 480 85 q 415 27 439 42 q 362 2 391 12 q 296 -13 333 -8 q 188 9 237 -13 q 103 71 138 32 q 48 163 67 110 q 28 278 28 216 q 45 386 28 335 q 95 478 63 437 q 173 548 128 519 q 271 592 217 578 q 323 575 295 583 q 379 565 351 568 q 410 563 394 563 q 435 565 423 563 q 489 578 463 567 l 493 571 q 462 545 477 557 q 431 526 447 534 q 396 513 415 517 q 354 508 377 508 q 289 518 319 508 q 224 544 259 528 q 162 509 188 532 q 119 456 136 486 q 95 390 103 426 q 88 314 88 353 q 106 204 88 255 q 159 116 125 153 q 240 57 192 78 q 344 36 287 36 q 392 48 372 41 q 429 65 413 55 q 461 89 446 75 q 492 121 476 103 l 500 114 z "},"D":{"ha":575,"x_min":22,"x_max":547,"o":"m 547 311 q 528 195 547 250 q 473 96 509 140 q 385 23 437 52 q 269 -13 334 -6 q 192 -3 232 -6 q 113 0 152 0 q 67 -3 88 0 q 25 -13 46 -7 l 22 -5 q 55 12 43 4 q 72 35 66 19 q 78 76 77 50 q 79 150 79 103 l 79 428 q 78 501 79 474 q 72 543 77 528 q 55 566 66 558 q 22 583 43 574 l 25 592 q 67 582 46 585 q 113 578 88 578 q 198 582 156 578 q 278 592 240 586 q 391 566 341 588 q 476 509 442 545 q 529 423 510 473 q 547 311 547 373 m 489 272 q 471 381 489 331 q 419 468 453 431 q 338 526 386 504 q 229 553 290 549 q 143 533 188 538 l 143 47 q 190 50 167 50 q 230 48 210 50 q 317 33 272 43 q 396 62 363 40 q 449 116 428 84 q 480 189 470 149 q 489 272 489 228 z "},"E":{"ha":497,"x_min":33,"x_max":483,"o":"m 483 132 q 463 43 469 80 q 456 -13 458 7 l 450 -17 q 394 -3 423 -6 q 331 0 366 0 l 124 0 q 78 -3 99 0 q 36 -13 57 -7 l 33 -5 q 66 12 54 4 q 83 35 77 19 q 89 76 88 50 q 90 150 90 103 l 90 279 q 36 289 71 289 l 36 303 q 90 313 71 303 l 90 428 q 89 501 90 474 q 83 543 88 528 q 66 566 77 558 q 33 583 54 574 l 36 592 q 76 582 57 585 q 115 578 94 578 l 308 578 q 341 578 326 578 q 369 580 356 578 q 395 585 383 582 q 419 596 407 589 l 425 590 q 420 569 422 579 q 418 549 419 560 q 417 526 417 539 l 417 460 l 407 460 q 395 505 404 488 q 368 530 386 522 q 323 542 351 539 q 256 544 295 544 l 154 544 l 154 313 l 303 313 q 328 314 318 313 q 347 320 339 316 q 363 332 355 324 l 369 328 q 365 279 365 305 q 364 232 364 253 l 364 221 l 354 221 q 344 252 351 240 q 323 270 337 264 q 288 277 309 276 q 236 279 266 279 l 154 279 l 154 33 l 283 33 q 360 39 329 33 q 412 57 391 44 q 446 89 433 69 q 471 136 460 108 l 483 132 z "},"F":{"ha":428,"x_min":19,"x_max":411,"o":"m 411 590 q 406 569 408 579 q 404 549 405 560 q 403 526 403 539 l 403 460 l 393 460 q 381 505 390 488 q 355 530 372 522 q 309 542 337 539 q 242 544 281 544 l 140 544 l 140 313 l 265 313 q 299 313 285 313 q 324 316 314 314 q 343 324 335 319 q 358 338 351 328 l 365 333 q 360 284 361 310 q 360 238 360 258 l 360 213 l 350 213 q 340 246 347 233 q 319 266 333 259 q 283 276 305 274 q 232 279 262 279 l 140 279 l 140 150 q 142 76 140 103 q 150 35 144 50 q 170 13 157 20 q 208 -5 184 5 l 206 -13 q 160 -3 185 -7 q 115 0 136 0 l 101 0 q 62 -3 81 0 q 22 -13 43 -7 l 19 -5 q 52 12 40 4 q 69 35 63 19 q 75 76 74 50 q 76 150 76 103 l 76 428 q 75 501 76 474 q 69 543 74 528 q 52 566 63 558 q 19 583 40 574 l 22 592 q 62 582 43 585 q 101 578 81 578 l 294 578 q 327 578 312 578 q 355 580 342 578 q 381 585 369 582 q 406 596 393 589 l 411 590 z "},"G":{"ha":572,"x_min":28,"x_max":556,"o":"m 556 278 q 539 262 544 269 q 530 243 533 255 q 526 213 526 232 q 525 163 525 194 l 525 -13 l 514 -13 q 490 26 508 18 q 466 30 479 30 q 444 28 456 30 q 380 9 417 22 q 301 -13 344 -4 q 192 9 242 -13 q 106 71 142 32 q 49 163 69 110 q 28 278 28 216 q 46 386 28 335 q 97 478 64 437 q 175 548 129 519 q 276 592 221 578 q 328 575 301 583 q 385 565 356 568 q 416 563 400 563 q 441 565 428 563 q 494 578 469 567 l 499 571 q 468 545 483 557 q 436 526 453 534 q 401 513 420 517 q 360 508 383 508 q 294 518 324 508 q 229 544 265 528 q 166 509 192 532 q 122 456 139 486 q 96 390 104 426 q 88 314 88 353 q 107 204 88 255 q 161 116 126 153 q 244 57 197 78 q 350 36 292 36 q 414 53 390 44 q 449 74 438 62 q 464 105 460 87 q 467 150 467 124 l 467 163 q 462 216 467 197 q 444 244 457 235 q 411 256 432 253 q 360 261 391 259 l 361 272 l 442 272 q 483 273 467 272 q 512 274 500 273 q 533 278 524 276 q 551 285 542 281 l 556 278 z "},"H":{"ha":594,"x_min":19,"x_max":575,"o":"m 575 -5 l 572 -13 q 533 -3 551 -7 q 493 0 514 0 l 479 0 q 440 -3 458 0 q 400 -13 421 -7 l 397 -5 q 430 12 418 4 q 447 35 441 19 q 453 76 452 50 q 454 150 454 103 l 454 279 l 140 279 l 140 150 q 141 76 140 103 q 148 35 142 50 q 165 12 153 19 q 197 -5 176 4 l 194 -13 q 155 -3 174 -7 q 115 0 136 0 l 101 0 q 62 -3 81 0 q 22 -13 43 -7 l 19 -5 q 52 12 40 4 q 69 35 63 19 q 75 76 74 50 q 76 150 76 103 l 76 428 q 75 501 76 474 q 69 543 74 528 q 52 566 63 558 q 19 583 40 574 l 22 592 q 62 582 43 585 q 101 578 81 578 l 115 578 q 155 582 136 578 q 194 592 174 585 l 197 583 q 165 566 176 574 q 148 543 153 558 q 141 501 142 528 q 140 428 140 474 l 140 313 l 454 313 l 454 428 q 453 501 454 474 q 447 543 452 528 q 430 566 441 558 q 397 583 418 574 l 400 592 q 440 582 421 585 q 479 578 458 578 l 493 578 q 533 582 514 578 q 572 592 551 585 l 575 583 q 543 566 554 574 q 526 543 531 558 q 519 501 520 528 q 518 428 518 474 l 518 150 q 519 76 518 103 q 526 35 520 50 q 543 12 531 19 q 575 -5 554 4 z "},"I":{"ha":217,"x_min":19,"x_max":197,"o":"m 197 -5 l 194 -13 q 155 -3 174 -7 q 115 0 136 0 l 101 0 q 62 -3 81 0 q 22 -13 43 -7 l 19 -5 q 52 12 40 4 q 69 35 63 19 q 75 76 74 50 q 76 150 76 103 l 76 428 q 75 501 76 474 q 69 543 74 528 q 52 566 63 558 q 19 583 40 574 l 22 592 q 62 582 43 585 q 101 578 81 578 l 115 578 q 155 582 136 578 q 194 592 174 585 l 197 583 q 165 566 176 574 q 148 543 153 558 q 141 501 142 528 q 140 428 140 474 l 140 150 q 141 76 140 103 q 148 35 142 50 q 165 12 153 19 q 197 -5 176 4 z "},"J":{"ha":211,"x_min":-33,"x_max":194,"o":"m 194 583 q 162 566 174 574 q 145 543 151 558 q 139 501 140 528 q 138 428 138 474 l 138 47 q 132 -46 138 -7 q 108 -119 126 -85 q 56 -190 89 -156 q -30 -260 23 -223 l -33 -256 l -33 -244 q 19 -197 -1 -217 q 50 -151 38 -177 q 69 -82 64 -120 q 74 8 74 -44 l 74 428 q 73 501 74 474 q 66 543 72 528 q 49 566 60 558 q 17 583 38 574 l 19 592 q 59 582 40 585 q 99 578 78 578 l 113 578 q 152 582 133 578 q 192 592 171 585 l 194 583 z "},"K":{"ha":533,"x_min":14,"x_max":542,"o":"m 542 -5 l 539 -13 q 499 -3 518 -7 q 460 0 481 0 l 438 0 q 398 -3 417 0 q 358 -13 379 -7 l 356 -5 q 385 12 375 3 q 399 32 395 20 q 401 49 401 40 l 401 58 q 394 94 399 73 q 358 186 383 147 q 298 249 333 224 q 222 286 264 274 q 135 299 181 299 l 135 150 q 136 76 135 103 q 142 35 137 50 q 159 12 148 19 q 192 -5 171 4 l 189 -13 q 149 -3 168 -7 q 110 0 131 0 l 96 0 q 56 -3 75 0 q 17 -13 38 -7 l 14 -5 q 46 12 35 4 q 63 35 58 19 q 70 76 69 50 q 71 150 71 103 l 71 428 q 70 501 71 474 q 63 543 69 528 q 46 566 58 558 q 14 583 35 574 l 17 592 q 56 582 38 585 q 96 578 75 578 l 110 578 q 149 582 131 578 q 189 592 168 585 l 192 583 q 159 566 171 574 q 142 543 148 558 q 136 501 137 528 q 135 428 135 474 l 135 338 q 189 333 162 338 l 326 483 q 359 522 348 507 q 371 547 369 537 l 371 550 q 365 566 371 558 q 342 583 357 574 l 346 592 q 378 582 362 585 q 415 578 394 578 l 432 578 q 473 581 455 578 q 511 592 490 584 l 514 583 q 476 567 492 575 q 444 548 460 559 q 411 522 428 537 q 372 483 394 506 l 222 328 q 300 303 263 319 q 369 258 338 286 q 425 190 401 231 q 464 94 449 150 q 475 58 469 73 q 489 33 481 44 q 509 13 497 22 q 542 -5 522 4 z "},"L":{"ha":478,"x_min":19,"x_max":469,"o":"m 469 138 q 449 46 455 85 q 442 -13 444 7 l 436 -17 q 381 -3 409 -6 q 317 0 352 0 l 110 0 q 64 -3 85 0 q 22 -13 43 -7 l 19 -5 q 52 12 40 4 q 69 35 63 19 q 75 76 74 50 q 76 150 76 103 l 76 428 q 75 501 76 474 q 69 543 74 528 q 52 566 63 558 q 19 583 40 574 l 22 592 q 62 582 43 585 q 101 578 81 578 l 115 578 q 160 582 140 578 q 200 592 179 585 l 203 583 q 169 566 182 574 q 151 543 157 558 q 142 501 144 528 q 140 428 140 474 l 140 33 l 269 33 q 346 39 315 33 q 398 58 377 45 q 432 91 419 71 q 457 142 446 112 l 469 138 z "},"M":{"ha":717,"x_min":11,"x_max":706,"o":"m 706 -5 l 703 -13 q 663 -3 682 -7 q 624 0 644 0 l 601 0 q 562 -3 581 0 q 522 -13 543 -7 l 519 -5 q 553 11 541 3 q 569 35 565 19 q 573 68 573 48 l 573 78 q 568 150 572 104 l 547 418 l 364 51 l 358 49 l 353 51 l 169 418 l 149 150 q 144 78 145 104 q 144 68 144 72 q 148 35 144 48 q 164 11 152 19 q 197 -5 175 3 l 194 -13 q 155 -3 174 -7 q 115 0 136 0 l 93 0 q 53 -3 72 0 q 14 -13 35 -7 l 11 -5 q 44 13 32 4 q 64 38 56 22 q 75 80 71 53 q 83 150 79 106 l 108 428 q 114 501 113 474 l 114 513 q 110 544 114 532 q 93 568 106 560 q 58 583 81 576 l 61 592 q 103 582 82 585 q 146 578 125 578 l 163 578 q 199 582 183 578 q 236 592 215 585 l 239 583 q 212 570 223 576 q 195 555 201 564 q 184 532 188 546 q 178 496 181 518 l 358 128 l 539 496 q 532 532 536 518 q 522 555 528 546 q 505 570 515 564 q 478 583 494 576 l 481 592 q 517 582 501 585 q 554 578 533 578 l 571 578 q 613 582 592 578 q 656 592 635 585 l 658 583 q 623 568 635 576 q 606 544 611 560 q 603 513 603 532 l 603 501 q 608 428 604 474 l 633 150 q 641 80 638 106 q 652 38 645 53 q 672 13 660 22 q 706 -5 685 4 z "},"N":{"ha":589,"x_min":19,"x_max":569,"o":"m 569 -5 l 567 -13 q 527 -3 546 -7 q 488 0 508 0 l 474 0 q 434 -3 453 0 q 394 -13 415 -7 l 392 -5 q 424 10 413 3 q 441 28 435 17 q 448 59 447 40 q 449 111 449 78 q 359 157 403 133 q 273 209 314 181 q 198 272 233 238 q 140 349 164 306 l 140 150 q 141 76 140 103 q 148 35 142 50 q 165 12 153 19 q 197 -5 176 4 l 194 -13 q 155 -3 174 -7 q 115 0 136 0 l 101 0 q 62 -3 81 0 q 22 -13 43 -7 l 19 -5 q 52 12 40 4 q 69 35 63 19 q 75 76 74 50 q 76 150 76 103 l 76 428 q 75 501 76 474 q 69 543 74 528 q 52 566 63 558 q 19 583 40 574 l 22 592 q 62 582 43 585 q 101 578 81 578 l 115 578 q 155 582 136 578 q 194 592 174 585 l 197 583 q 165 569 176 576 q 148 552 153 562 q 141 530 142 543 q 140 497 140 517 q 167 382 140 434 q 238 288 194 331 q 336 210 281 245 q 449 147 392 176 l 449 428 q 448 501 449 474 q 441 543 447 528 q 424 566 435 558 q 392 583 413 574 l 394 592 q 434 582 415 585 q 474 578 453 578 l 488 578 q 527 582 508 578 q 567 592 546 585 l 569 583 q 537 566 549 574 q 520 543 526 558 q 514 501 515 528 q 513 428 513 474 l 513 150 q 514 76 513 103 q 520 35 515 50 q 537 12 526 19 q 569 -5 549 4 z "},"O":{"ha":603,"x_min":28,"x_max":575,"o":"m 575 314 q 553 194 575 249 q 494 99 532 140 q 405 28 456 57 q 292 -13 353 0 q 185 8 233 -13 q 101 67 136 30 q 47 156 67 105 q 28 264 28 206 q 48 380 28 326 q 104 475 68 433 q 190 546 140 517 q 297 592 239 576 q 407 571 356 592 q 495 513 458 550 q 554 425 533 476 q 575 314 575 374 m 517 275 q 497 380 517 331 q 442 464 477 428 q 359 520 407 500 q 256 542 311 541 q 126 456 167 517 q 86 303 86 395 q 104 200 86 248 q 155 115 122 151 q 232 58 187 79 q 333 36 278 37 q 473 118 428 58 q 517 275 517 178 z "},"P":{"ha":494,"x_min":19,"x_max":478,"o":"m 478 436 q 453 342 478 383 q 391 272 428 301 q 309 228 353 244 q 225 211 265 213 q 187 233 204 226 q 155 237 174 237 q 140 236 148 237 l 140 150 q 142 76 140 103 q 150 35 144 50 q 170 12 157 19 q 208 -5 184 4 l 206 -13 q 160 -3 185 -7 q 115 0 136 0 l 101 0 q 62 -3 81 0 q 22 -13 43 -7 l 19 -5 q 52 12 40 4 q 69 35 63 19 q 75 76 74 50 q 76 150 76 103 l 76 428 q 75 501 76 474 q 69 543 74 528 q 52 566 63 558 q 19 583 40 574 l 22 592 q 64 582 43 585 q 110 578 85 578 q 194 582 153 578 q 272 592 235 586 q 427 547 376 588 q 478 436 478 506 m 422 403 q 410 459 422 433 q 372 505 397 485 q 310 537 347 525 q 224 553 273 549 q 140 533 185 538 l 140 271 q 176 274 160 274 l 184 274 q 206 273 195 274 q 236 266 221 271 q 269 254 251 261 q 327 265 299 256 q 376 292 355 274 q 410 337 397 310 q 422 403 422 365 z "},"Q":{"ha":603,"x_min":28,"x_max":597,"o":"m 597 -128 q 560 -152 576 -143 q 534 -165 545 -160 q 516 -170 524 -169 q 503 -172 508 -172 q 482 -166 491 -172 q 458 -141 472 -160 q 435 -112 449 -129 q 401 -76 421 -94 q 354 -41 381 -58 q 292 -13 327 -24 q 185 8 233 -13 q 101 67 136 30 q 47 156 67 105 q 28 264 28 206 q 48 380 28 326 q 104 475 68 433 q 190 546 140 517 q 297 592 239 576 q 407 571 356 592 q 495 513 458 550 q 554 425 533 476 q 575 314 575 374 q 560 214 575 260 q 520 130 546 168 q 457 63 494 92 q 375 14 419 33 q 425 -18 403 -1 q 461 -50 446 -34 q 488 -80 477 -65 q 507 -105 499 -94 q 519 -120 514 -115 q 528 -130 524 -126 q 537 -133 533 -133 q 547 -134 542 -134 q 566 -132 555 -134 q 593 -122 576 -129 l 597 -128 m 517 275 q 497 380 517 331 q 442 464 477 428 q 359 520 407 500 q 256 542 311 541 q 126 456 167 517 q 86 303 86 395 q 104 200 86 248 q 155 115 122 151 q 232 58 187 79 q 333 36 278 37 q 473 118 428 58 q 517 275 517 178 z "},"R":{"ha":553,"x_min":19,"x_max":561,"o":"m 561 -5 l 558 -13 q 519 -3 538 -7 q 479 0 500 0 l 457 0 q 417 -3 436 0 q 378 -13 399 -7 l 375 -5 q 405 12 394 3 q 419 32 415 20 q 422 48 422 39 q 421 58 422 53 q 414 94 419 73 q 374 186 401 147 q 311 249 347 224 q 231 286 274 274 q 140 299 187 299 l 140 150 q 141 76 140 103 q 148 35 142 50 q 165 12 153 19 q 197 -5 176 4 l 194 -13 q 155 -3 174 -7 q 115 0 136 0 l 101 0 q 62 -3 81 0 q 22 -13 43 -7 l 19 -5 q 52 12 40 4 q 69 35 63 19 q 75 76 74 50 q 76 150 76 103 l 76 428 q 75 501 76 474 q 69 543 74 528 q 52 566 63 558 q 19 583 40 574 l 22 592 q 64 582 43 585 q 110 578 85 578 q 194 582 153 578 q 272 592 235 586 q 422 551 369 588 q 475 456 475 515 q 464 397 475 423 q 435 350 453 371 q 392 314 417 329 q 339 290 367 299 q 425 216 388 263 q 483 94 463 169 q 494 58 489 73 q 508 33 500 44 q 529 13 517 22 q 561 -5 541 4 m 419 422 q 406 470 419 448 q 367 510 392 493 q 306 539 342 528 q 224 553 269 550 q 183 540 203 544 q 140 533 163 535 l 140 338 q 224 330 182 336 q 304 307 265 323 q 345 321 325 312 q 383 344 366 331 q 409 377 399 358 q 419 422 419 397 z "},"S":{"ha":406,"x_min":14,"x_max":389,"o":"m 389 175 q 376 114 389 142 q 343 63 363 86 q 298 20 323 39 q 247 -13 272 1 q 193 5 223 -3 q 134 15 164 12 q 106 16 119 16 q 74 15 90 16 q 18 0 44 11 l 14 6 q 80 50 45 34 q 160 67 114 67 q 223 58 193 67 q 279 35 252 49 q 324 79 306 53 q 342 138 342 104 q 325 192 342 169 q 285 231 309 215 q 233 260 261 248 q 181 283 204 273 q 131 305 158 292 q 81 334 104 317 q 43 373 58 351 q 28 425 28 395 q 40 475 28 451 q 70 520 52 499 q 110 560 89 542 q 151 592 132 578 q 203 574 176 582 q 258 564 230 567 q 285 563 271 563 q 313 564 299 563 q 365 578 340 567 l 369 572 q 339 547 353 558 q 308 528 324 535 q 273 516 292 520 q 232 513 255 513 q 176 520 201 513 q 124 542 151 528 q 92 505 106 525 q 79 461 79 484 q 96 410 79 431 q 138 375 113 390 q 191 350 163 360 q 239 331 218 340 q 295 305 268 319 q 343 272 322 290 q 376 230 364 253 q 389 175 389 206 z "},"T":{"ha":525,"x_min":14,"x_max":511,"o":"m 511 460 l 501 457 q 482 501 492 484 q 453 528 472 518 q 406 541 435 538 q 331 544 376 544 l 294 544 l 294 150 q 296 76 294 103 q 303 35 297 50 q 322 12 310 19 q 357 -5 335 4 l 354 -13 q 313 -3 333 -7 q 269 0 292 0 l 256 0 q 212 -3 233 0 q 171 -13 192 -7 l 168 -5 q 202 12 190 4 q 221 35 215 19 q 229 76 227 50 q 231 150 231 103 l 231 544 l 194 544 q 119 541 149 544 q 72 528 90 538 q 43 501 53 518 q 24 457 33 484 l 14 460 q 25 506 20 481 q 31 553 31 532 l 31 556 q 30 571 31 562 q 25 590 29 581 l 31 596 q 89 581 58 584 q 156 578 120 578 l 369 578 q 436 581 405 578 q 494 596 467 584 l 500 590 q 495 571 496 581 q 494 556 494 562 l 494 553 q 500 506 494 532 q 511 460 505 481 z "},"U":{"ha":586,"x_min":11,"x_max":567,"o":"m 567 -5 l 564 -13 q 525 -3 543 -7 q 479 0 506 0 l 475 0 q 457 -2 467 0 q 440 -8 446 -3 l 435 -2 q 444 18 442 7 q 446 44 446 30 l 446 103 q 378 34 422 62 q 264 -13 334 6 q 185 1 221 -11 q 123 38 149 14 q 82 98 97 63 q 68 183 68 134 l 68 428 q 67 501 68 474 q 60 543 66 528 q 43 566 55 558 q 11 583 32 574 l 14 592 q 53 582 35 585 q 93 578 72 578 l 107 578 q 147 582 128 578 q 186 592 165 585 l 189 583 q 157 566 168 574 q 140 543 145 558 q 133 501 134 528 q 132 428 132 474 l 132 208 q 144 134 132 165 q 178 83 156 103 q 234 51 201 63 q 308 36 267 40 q 364 63 338 47 q 407 101 389 79 q 436 151 426 123 q 446 214 446 179 l 446 428 q 445 501 446 474 q 438 543 444 528 q 421 566 433 558 q 389 583 410 574 l 392 592 q 431 582 413 585 q 471 578 450 578 l 485 578 q 524 582 506 578 q 564 592 543 585 l 567 583 q 534 566 546 574 q 517 543 523 558 q 511 501 512 528 q 510 428 510 474 l 510 150 q 511 76 510 103 q 517 35 512 50 q 534 12 523 19 q 567 -5 546 4 z "},"V":{"ha":544,"x_min":3,"x_max":556,"o":"m 556 583 q 522 562 535 572 q 499 539 508 553 q 482 506 490 526 q 463 456 474 487 l 322 56 q 319 39 319 47 q 326 20 319 28 q 369 -5 339 7 l 367 -13 q 326 -3 346 -7 q 285 0 306 0 l 268 0 q 228 -3 247 0 q 189 -13 210 -7 l 186 -5 q 227 21 217 8 q 232 36 232 27 q 228 56 232 44 l 90 456 q 71 509 78 489 q 55 541 63 528 q 34 563 47 554 q 3 583 22 572 l 7 592 q 47 582 28 585 q 86 578 65 578 l 103 578 q 142 582 124 578 q 182 592 161 585 l 185 583 q 152 563 163 573 q 139 540 141 553 q 138 531 138 535 q 142 506 138 520 q 158 456 148 485 l 290 72 l 418 456 q 435 509 429 489 q 438 533 438 522 q 437 542 438 538 q 423 564 434 556 q 389 583 411 573 l 392 592 q 428 582 413 585 q 465 578 444 578 l 485 578 q 519 582 506 578 q 553 592 532 585 l 556 583 z "},"W":{"ha":844,"x_min":3,"x_max":856,"o":"m 856 583 q 822 562 835 572 q 799 539 808 553 q 782 506 790 526 q 763 456 774 487 l 625 56 q 622 39 622 47 q 629 20 622 28 q 672 -5 642 7 l 669 -13 q 628 -3 649 -7 q 588 0 608 0 l 571 0 q 533 -2 550 0 q 494 -10 515 -4 l 492 -2 q 517 10 507 4 q 531 22 526 15 q 535 35 535 27 l 535 36 q 531 56 534 44 l 425 375 l 319 56 q 316 36 316 44 q 320 21 316 28 q 334 9 324 15 q 358 -2 343 4 l 356 -10 q 316 -2 335 -4 q 276 0 297 0 l 265 0 q 226 -3 244 0 q 186 -13 207 -7 l 183 -5 q 224 21 215 8 q 228 37 228 27 q 225 56 228 45 l 90 456 q 71 509 78 489 q 55 541 63 528 q 34 563 47 554 q 3 583 22 572 l 7 592 q 47 582 28 585 q 86 578 65 578 l 103 578 q 142 582 124 578 q 182 592 161 585 l 185 583 q 152 563 163 573 q 139 540 141 553 q 138 532 138 536 q 142 506 138 521 q 158 456 148 486 l 288 72 l 406 435 l 399 456 q 380 509 388 489 q 364 541 372 528 q 343 563 355 554 q 311 583 331 572 l 315 592 q 355 582 336 585 q 394 578 374 578 l 411 578 q 451 582 432 578 q 490 592 469 585 l 493 583 q 460 563 471 573 q 447 540 449 553 q 447 532 447 536 q 451 506 447 521 q 467 456 456 486 l 593 72 l 718 456 q 735 509 729 489 q 738 533 738 522 q 737 542 738 538 q 723 564 734 556 q 689 583 711 573 l 692 592 q 728 582 713 585 q 765 578 744 578 l 785 578 q 819 582 806 578 q 853 592 832 585 l 856 583 z "},"X":{"ha":542,"x_min":8,"x_max":531,"o":"m 531 -5 l 528 -13 q 487 -3 507 -7 q 446 0 467 0 l 426 0 q 385 -3 406 0 q 344 -13 365 -7 l 342 -5 q 371 15 363 4 q 376 32 376 22 q 375 42 376 37 q 357 84 372 58 q 318 150 342 110 l 257 250 l 164 94 q 142 53 149 69 q 135 29 135 39 l 135 28 q 143 11 135 19 q 167 -5 151 4 l 163 -13 q 130 -3 147 -7 q 93 0 114 0 l 88 0 q 66 -1 76 0 q 48 -3 56 -1 q 30 -7 39 -5 q 11 -13 22 -10 l 8 -5 q 44 10 30 3 q 70 26 58 16 q 94 51 82 35 q 124 94 106 67 l 240 278 l 149 428 q 107 494 124 468 q 75 536 90 519 q 44 563 60 553 q 8 583 29 574 l 11 592 q 52 582 32 585 q 93 578 72 578 l 110 578 q 149 582 131 578 q 189 592 168 585 l 192 583 q 163 563 171 574 q 158 547 158 556 q 160 536 158 542 q 179 493 164 519 q 218 428 194 467 l 275 335 l 365 483 q 388 524 381 509 q 394 547 394 538 l 394 550 q 385 567 393 560 q 361 583 376 574 l 365 592 q 398 582 381 585 q 435 578 414 578 l 440 578 q 480 581 463 578 q 517 592 496 584 l 519 583 q 484 568 498 575 q 458 552 470 562 q 435 526 447 542 q 406 483 423 510 l 293 307 l 390 150 q 433 84 415 110 q 465 42 450 58 q 494 15 479 25 q 531 -5 510 4 z "},"Y":{"ha":525,"x_min":3,"x_max":533,"o":"m 533 583 q 505 568 515 574 q 484 552 494 562 q 466 527 475 542 q 442 483 456 511 l 308 228 l 308 150 q 309 76 308 103 q 316 35 310 50 q 333 12 322 19 q 365 -5 344 4 l 363 -13 q 323 -3 342 -7 q 283 0 304 0 l 269 0 q 230 -3 249 0 q 190 -13 211 -7 l 188 -5 q 220 12 208 4 q 237 35 231 19 q 243 76 242 50 q 244 150 244 103 l 244 225 l 131 428 q 93 494 108 468 q 65 537 78 520 q 38 564 51 553 q 3 583 24 574 l 6 592 q 48 582 26 585 q 90 578 69 578 l 101 578 q 124 578 114 578 q 144 581 134 579 q 164 585 153 583 q 186 592 174 588 l 189 583 q 157 564 167 574 q 147 540 147 554 q 148 537 147 538 q 161 494 149 520 q 196 428 173 468 l 290 260 l 403 483 q 419 522 415 507 q 423 540 423 533 q 422 547 423 544 q 411 566 420 558 q 386 583 401 574 l 390 592 q 421 582 406 585 q 457 578 436 578 l 465 578 q 499 581 486 578 q 529 592 513 584 l 533 583 z "},"Z":{"ha":492,"x_min":28,"x_max":486,"o":"m 486 75 q 474 38 480 59 q 463 -6 468 17 q 455 -53 458 -30 q 450 -98 451 -77 l 436 -98 l 436 -90 q 401 -21 436 -40 q 286 0 363 0 l 29 0 l 28 8 l 379 544 l 250 544 q 171 539 202 544 q 120 520 140 533 q 89 488 101 508 q 65 442 76 469 l 53 446 q 73 534 67 498 q 81 592 78 571 l 86 596 q 142 581 113 584 q 206 578 170 578 l 469 578 l 472 569 l 126 33 l 353 33 q 402 35 381 33 q 437 42 422 37 q 461 56 451 47 q 478 78 471 64 l 486 75 z "},"[":{"ha":556,"x_min":28,"x_max":528,"o":"m 528 -149 l 28 -149 l 28 833 l 528 833 l 528 -149 m 486 -110 l 486 794 l 69 794 l 69 -110 l 486 -110 m 379 673 q 353 604 379 626 q 282 581 328 581 l 165 581 l 165 589 l 185 589 l 185 757 l 165 757 l 165 764 l 282 764 q 353 741 328 764 q 379 673 379 719 m 360 363 l 178 363 l 178 370 l 199 370 l 199 538 l 178 538 l 178 545 l 356 545 l 356 482 l 348 482 q 328 523 342 508 q 285 538 314 538 l 275 538 l 275 459 l 276 459 q 300 468 291 459 q 310 495 308 477 l 318 495 l 318 415 l 310 415 q 300 443 308 433 q 276 452 291 452 l 275 452 l 275 370 l 289 370 q 332 389 318 370 q 352 433 346 408 l 360 433 l 360 363 m 397 143 l 280 143 l 280 151 l 301 151 l 301 307 l 244 143 l 234 143 l 179 306 l 179 172 q 184 155 179 160 q 205 151 189 151 l 205 143 l 146 143 l 146 151 q 165 155 160 151 q 169 172 169 159 l 169 319 l 147 319 l 147 326 l 245 326 l 272 249 l 298 326 l 397 326 l 397 319 l 376 319 l 376 151 l 397 151 l 397 143 m 372 15 q 365 -23 372 -6 q 344 -53 357 -40 q 313 -73 331 -66 q 273 -80 294 -80 q 233 -73 251 -80 q 202 -52 215 -65 q 181 -22 189 -40 q 174 15 174 -5 q 181 53 174 35 q 202 83 189 70 q 233 103 215 96 q 273 110 251 110 q 312 103 294 110 q 344 84 331 97 q 365 53 357 71 q 372 15 372 36 m 297 620 l 297 722 q 292 750 297 742 q 267 757 286 757 l 263 757 l 263 589 l 267 589 q 291 595 285 589 q 297 620 297 602 m 291 -41 l 291 72 q 288 93 291 83 q 273 103 285 103 q 258 93 261 103 q 256 72 256 83 l 256 -41 q 258 -63 256 -53 q 273 -73 261 -73 q 288 -63 285 -73 q 291 -41 291 -53 z "},"\\":{"ha":397,"x_min":0,"x_max":358,"o":"m 358 -160 l 303 -160 l 0 739 l 56 739 l 358 -160 z "},"]":{"ha":556,"x_min":28,"x_max":528,"o":"m 528 -149 l 28 -149 l 28 833 l 528 833 l 528 -149 m 486 -110 l 486 794 l 69 794 l 69 -110 l 486 -110 m 379 673 q 353 604 379 626 q 282 581 328 581 l 165 581 l 165 589 l 185 589 l 185 757 l 165 757 l 165 764 l 282 764 q 353 741 328 764 q 379 673 379 719 m 360 363 l 178 363 l 178 370 l 199 370 l 199 538 l 178 538 l 178 545 l 356 545 l 356 482 l 348 482 q 328 523 342 508 q 285 538 314 538 l 275 538 l 275 459 l 276 459 q 300 468 291 459 q 310 495 308 477 l 318 495 l 318 415 l 310 415 q 300 443 308 433 q 276 452 291 452 l 275 452 l 275 370 l 289 370 q 332 389 318 370 q 352 433 346 408 l 360 433 l 360 363 m 397 143 l 280 143 l 280 151 l 301 151 l 301 307 l 244 143 l 234 143 l 179 306 l 179 172 q 184 155 179 160 q 205 151 189 151 l 205 143 l 146 143 l 146 151 q 165 155 160 151 q 169 172 169 159 l 169 319 l 147 319 l 147 326 l 245 326 l 272 249 l 298 326 l 397 326 l 397 319 l 376 319 l 376 151 l 397 151 l 397 143 m 372 15 q 365 -23 372 -6 q 344 -53 357 -40 q 313 -73 331 -66 q 273 -80 294 -80 q 233 -73 251 -80 q 202 -52 215 -65 q 181 -22 189 -40 q 174 15 174 -5 q 181 53 174 35 q 202 83 189 70 q 233 103 215 96 q 273 110 251 110 q 312 103 294 110 q 344 84 331 97 q 365 53 357 71 q 372 15 372 36 m 297 620 l 297 722 q 292 750 297 742 q 267 757 286 757 l 263 757 l 263 589 l 267 589 q 291 595 285 589 q 297 620 297 602 m 291 -41 l 291 72 q 288 93 291 83 q 273 103 285 103 q 258 93 261 103 q 256 72 256 83 l 256 -41 q 258 -63 256 -53 q 273 -73 261 -73 q 288 -63 285 -73 q 291 -41 291 -53 z "},"^":{"ha":556,"x_min":28,"x_max":528,"o":"m 528 -149 l 28 -149 l 28 833 l 528 833 l 528 -149 m 486 -110 l 486 794 l 69 794 l 69 -110 l 486 -110 m 379 673 q 353 604 379 626 q 282 581 328 581 l 165 581 l 165 589 l 185 589 l 185 757 l 165 757 l 165 764 l 282 764 q 353 741 328 764 q 379 673 379 719 m 360 363 l 178 363 l 178 370 l 199 370 l 199 538 l 178 538 l 178 545 l 356 545 l 356 482 l 348 482 q 328 523 342 508 q 285 538 314 538 l 275 538 l 275 459 l 276 459 q 300 468 291 459 q 310 495 308 477 l 318 495 l 318 415 l 310 415 q 300 443 308 433 q 276 452 291 452 l 275 452 l 275 370 l 289 370 q 332 389 318 370 q 352 433 346 408 l 360 433 l 360 363 m 397 143 l 280 143 l 280 151 l 301 151 l 301 307 l 244 143 l 234 143 l 179 306 l 179 172 q 184 155 179 160 q 205 151 189 151 l 205 143 l 146 143 l 146 151 q 165 155 160 151 q 169 172 169 159 l 169 319 l 147 319 l 147 326 l 245 326 l 272 249 l 298 326 l 397 326 l 397 319 l 376 319 l 376 151 l 397 151 l 397 143 m 372 15 q 365 -23 372 -6 q 344 -53 357 -40 q 313 -73 331 -66 q 273 -80 294 -80 q 233 -73 251 -80 q 202 -52 215 -65 q 181 -22 189 -40 q 174 15 174 -5 q 181 53 174 35 q 202 83 189 70 q 233 103 215 96 q 273 110 251 110 q 312 103 294 110 q 344 84 331 97 q 365 53 357 71 q 372 15 372 36 m 297 620 l 297 722 q 292 750 297 742 q 267 757 286 757 l 263 757 l 263 589 l 267 589 q 291 595 285 589 q 297 620 297 602 m 291 -41 l 291 72 q 288 93 291 83 q 273 103 285 103 q 258 93 261 103 q 256 72 256 83 l 256 -41 q 258 -63 256 -53 q 273 -73 261 -73 q 288 -63 285 -73 q 291 -41 291 -53 z "},"_":{"ha":556,"x_min":28,"x_max":528,"o":"m 528 -149 l 28 -149 l 28 833 l 528 833 l 528 -149 m 486 -110 l 486 794 l 69 794 l 69 -110 l 486 -110 m 379 673 q 353 604 379 626 q 282 581 328 581 l 165 581 l 165 589 l 185 589 l 185 757 l 165 757 l 165 764 l 282 764 q 353 741 328 764 q 379 673 379 719 m 360 363 l 178 363 l 178 370 l 199 370 l 199 538 l 178 538 l 178 545 l 356 545 l 356 482 l 348 482 q 328 523 342 508 q 285 538 314 538 l 275 538 l 275 459 l 276 459 q 300 468 291 459 q 310 495 308 477 l 318 495 l 318 415 l 310 415 q 300 443 308 433 q 276 452 291 452 l 275 452 l 275 370 l 289 370 q 332 389 318 370 q 352 433 346 408 l 360 433 l 360 363 m 397 143 l 280 143 l 280 151 l 301 151 l 301 307 l 244 143 l 234 143 l 179 306 l 179 172 q 184 155 179 160 q 205 151 189 151 l 205 143 l 146 143 l 146 151 q 165 155 160 151 q 169 172 169 159 l 169 319 l 147 319 l 147 326 l 245 326 l 272 249 l 298 326 l 397 326 l 397 319 l 376 319 l 376 151 l 397 151 l 397 143 m 372 15 q 365 -23 372 -6 q 344 -53 357 -40 q 313 -73 331 -66 q 273 -80 294 -80 q 233 -73 251 -80 q 202 -52 215 -65 q 181 -22 189 -40 q 174 15 174 -5 q 181 53 174 35 q 202 83 189 70 q 233 103 215 96 q 273 110 251 110 q 312 103 294 110 q 344 84 331 97 q 365 53 357 71 q 372 15 372 36 m 297 620 l 297 722 q 292 750 297 742 q 267 757 286 757 l 263 757 l 263 589 l 267 589 q 291 595 285 589 q 297 620 297 602 m 291 -41 l 291 72 q 288 93 291 83 q 273 103 285 103 q 258 93 261 103 q 256 72 256 83 l 256 -41 q 258 -63 256 -53 q 273 -73 261 -73 q 288 -63 285 -73 q 291 -41 291 -53 z "},"`":{"ha":556,"x_min":28,"x_max":528,"o":"m 528 -149 l 28 -149 l 28 833 l 528 833 l 528 -149 m 486 -110 l 486 794 l 69 794 l 69 -110 l 486 -110 m 379 673 q 353 604 379 626 q 282 581 328 581 l 165 581 l 165 589 l 185 589 l 185 757 l 165 757 l 165 764 l 282 764 q 353 741 328 764 q 379 673 379 719 m 360 363 l 178 363 l 178 370 l 199 370 l 199 538 l 178 538 l 178 545 l 356 545 l 356 482 l 348 482 q 328 523 342 508 q 285 538 314 538 l 275 538 l 275 459 l 276 459 q 300 468 291 459 q 310 495 308 477 l 318 495 l 318 415 l 310 415 q 300 443 308 433 q 276 452 291 452 l 275 452 l 275 370 l 289 370 q 332 389 318 370 q 352 433 346 408 l 360 433 l 360 363 m 397 143 l 280 143 l 280 151 l 301 151 l 301 307 l 244 143 l 234 143 l 179 306 l 179 172 q 184 155 179 160 q 205 151 189 151 l 205 143 l 146 143 l 146 151 q 165 155 160 151 q 169 172 169 159 l 169 319 l 147 319 l 147 326 l 245 326 l 272 249 l 298 326 l 397 326 l 397 319 l 376 319 l 376 151 l 397 151 l 397 143 m 372 15 q 365 -23 372 -6 q 344 -53 357 -40 q 313 -73 331 -66 q 273 -80 294 -80 q 233 -73 251 -80 q 202 -52 215 -65 q 181 -22 189 -40 q 174 15 174 -5 q 181 53 174 35 q 202 83 189 70 q 233 103 215 96 q 273 110 251 110 q 312 103 294 110 q 344 84 331 97 q 365 53 357 71 q 372 15 372 36 m 297 620 l 297 722 q 292 750 297 742 q 267 757 286 757 l 263 757 l 263 589 l 267 589 q 291 595 285 589 q 297 620 297 602 m 291 -41 l 291 72 q 288 93 291 83 q 273 103 285 103 q 258 93 261 103 q 256 72 256 83 l 256 -41 q 258 -63 256 -53 q 273 -73 261 -73 q 288 -63 285 -73 q 291 -41 291 -53 z "},"a":{"ha":306,"x_min":19,"x_max":294,"o":"m 294 17 l 217 -13 l 211 -10 l 211 56 q 176 18 195 35 q 133 -13 158 1 q 91 -7 111 -13 q 55 11 70 -1 q 29 41 39 24 q 19 82 19 59 q 31 127 19 108 q 60 159 42 147 q 102 178 78 172 q 151 185 126 185 l 210 174 q 188 226 204 204 q 143 257 172 247 q 119 255 131 257 q 96 246 106 252 q 90 230 90 238 l 90 229 q 94 211 90 221 l 58 183 l 53 183 q 49 211 49 196 q 59 245 49 232 q 87 267 69 258 q 127 281 104 276 q 175 292 150 286 q 234 256 213 281 q 267 197 255 231 l 267 47 q 271 27 267 35 q 279 22 273 22 q 292 25 284 22 l 294 17 m 211 93 l 211 140 l 124 157 q 77 146 92 157 q 63 110 63 135 q 71 75 63 90 q 93 51 80 60 q 123 37 107 42 q 156 31 140 32 q 186 59 172 43 q 211 93 201 75 z "},"b":{"ha":339,"x_min":19,"x_max":319,"o":"m 319 160 q 307 98 319 129 q 272 43 294 67 q 222 2 251 18 q 163 -13 194 -13 q 102 2 124 -13 q 64 40 80 17 q 61 14 62 28 q 58 -13 60 1 l 42 -13 l 42 753 q 38 783 42 771 q 19 800 34 796 l 21 808 q 80 815 51 808 q 125 833 108 821 l 131 828 q 111 800 118 814 q 101 768 104 786 q 98 727 98 751 q 97 669 97 703 l 97 207 q 137 263 114 240 q 189 292 160 285 q 239 279 215 290 q 281 251 263 268 q 309 210 299 233 q 319 160 319 187 m 269 129 q 260 172 269 151 q 236 209 251 193 q 199 234 220 224 q 154 244 178 244 q 133 223 142 237 q 116 193 124 210 q 104 159 109 177 q 97 125 99 142 l 97 94 q 114 66 104 79 q 135 43 123 53 q 163 28 147 33 q 197 22 178 22 q 231 32 217 22 q 253 57 245 42 q 266 91 262 72 q 269 129 269 110 z "},"c":{"ha":256,"x_min":17,"x_max":253,"o":"m 253 289 q 242 267 249 278 q 225 248 235 256 q 203 233 215 239 q 176 228 190 228 q 141 235 156 228 q 114 254 126 242 q 88 242 98 250 q 71 222 77 234 q 63 194 65 210 q 61 157 61 178 q 68 113 61 134 q 88 75 75 92 q 121 47 101 58 q 165 31 140 35 q 194 42 182 35 q 214 58 206 49 q 230 78 223 67 q 242 101 236 89 l 250 99 q 231 52 242 71 q 206 21 220 33 q 174 1 192 8 q 133 -13 156 -7 q 83 2 105 -10 q 47 34 62 15 q 24 77 32 53 q 17 128 17 101 q 26 189 17 162 q 53 238 36 217 q 95 272 71 258 q 147 292 119 286 q 199 274 174 275 l 201 274 q 249 292 224 274 l 253 289 z "},"d":{"ha":331,"x_min":17,"x_max":317,"o":"m 317 828 q 299 802 305 814 q 290 774 293 790 q 286 736 287 758 q 286 681 286 714 l 286 47 q 290 27 286 35 q 299 22 292 22 q 311 25 303 22 l 314 17 l 236 -13 l 231 -10 l 231 67 q 193 18 216 38 q 133 -13 170 -2 q 85 -2 106 -13 q 48 29 63 10 q 25 74 33 49 q 17 125 17 99 q 29 185 17 157 q 61 234 41 213 q 108 271 81 256 q 164 292 135 286 q 198 284 181 292 q 231 261 215 276 l 231 753 q 229 770 231 762 q 224 785 228 778 q 211 796 219 792 q 190 800 203 800 l 190 808 q 223 810 206 808 q 258 814 241 811 q 289 822 274 817 q 311 833 303 827 l 317 828 m 231 132 q 221 178 231 157 q 197 214 211 199 q 164 237 182 228 q 129 247 146 246 q 78 216 96 238 q 61 154 61 195 q 68 107 61 130 q 89 68 76 85 q 123 41 103 51 q 168 31 142 31 q 194 50 183 38 q 212 75 205 62 q 224 103 219 89 q 231 132 228 118 z "},"e":{"ha":286,"x_min":17,"x_max":281,"o":"m 281 165 l 269 146 l 63 146 q 73 106 65 125 q 95 71 81 87 q 128 45 109 56 q 169 31 147 34 q 220 58 203 39 q 247 101 237 76 l 256 99 q 236 52 247 71 q 211 21 225 33 q 178 1 197 8 q 138 -13 160 -7 q 87 2 109 -10 q 49 34 65 15 q 25 77 33 53 q 17 128 17 101 q 26 189 17 162 q 54 238 36 217 q 96 272 72 258 q 149 292 120 286 q 213 272 184 288 q 258 225 242 256 q 247 211 254 219 q 233 196 240 203 q 219 183 226 189 q 208 174 213 176 l 278 174 l 281 165 m 206 204 q 175 237 196 221 q 121 257 154 253 q 78 228 94 249 q 61 174 63 207 l 181 174 q 194 188 187 180 q 206 204 201 197 z "},"f":{"ha":222,"x_min":-19,"x_max":253,"o":"m 253 808 l 251 800 l 215 767 l 210 767 q 198 786 206 777 q 176 797 190 795 q 145 771 158 790 q 125 727 133 753 q 114 669 117 701 q 111 603 111 637 l 111 278 l 231 278 l 231 269 l 200 217 l 194 219 q 196 226 196 223 q 186 233 196 233 l 111 233 l 111 47 q 115 27 111 35 q 124 22 117 22 q 136 25 128 22 l 139 17 l 61 -13 l 56 -10 l 56 233 l -19 233 l -19 242 q 31 253 10 246 q 56 278 51 261 l 56 569 q 64 653 56 612 q 88 730 72 694 q 129 792 104 765 q 188 833 153 819 l 193 833 q 228 823 213 830 q 253 808 242 817 z "},"g":{"ha":328,"x_min":22,"x_max":342,"o":"m 342 -378 q 326 -444 342 -413 q 286 -499 311 -475 q 228 -537 261 -523 q 161 -555 196 -552 q 114 -539 138 -550 q 71 -511 90 -527 q 40 -476 52 -495 q 28 -434 28 -456 q 37 -387 28 -410 q 60 -342 46 -364 q 93 -302 75 -321 q 128 -267 110 -283 l 136 -276 q 111 -302 123 -287 q 90 -334 99 -317 q 75 -369 81 -351 q 69 -405 69 -387 q 81 -443 69 -425 q 110 -476 92 -461 q 151 -501 128 -490 q 197 -516 174 -511 q 239 -503 220 -511 q 271 -484 258 -496 q 291 -454 284 -472 q 299 -412 299 -436 q 284 -351 299 -378 q 246 -299 269 -324 q 197 -251 224 -274 q 147 -203 170 -228 q 106 -149 123 -178 q 85 -87 88 -121 q 99 -32 89 -54 q 126 6 110 -10 q 85 20 104 10 q 52 47 67 31 q 30 83 38 63 q 22 126 22 103 q 34 186 22 158 q 67 235 47 214 q 114 272 88 257 q 169 292 141 286 q 196 288 182 292 q 222 278 210 284 l 239 278 q 272 279 258 278 q 295 283 285 280 q 314 291 306 286 q 335 304 323 297 l 342 297 q 319 265 324 279 q 314 244 314 251 l 264 244 q 288 206 278 228 q 297 157 297 183 q 288 105 297 128 q 262 64 278 81 q 224 32 246 46 q 176 10 202 19 q 144 -16 154 0 q 129 -56 133 -31 q 152 -116 134 -90 q 193 -166 169 -142 q 243 -212 217 -190 q 291 -259 269 -234 q 327 -312 313 -283 q 342 -378 342 -342 m 253 126 q 242 175 253 153 q 213 212 231 197 q 175 237 196 228 q 135 247 154 246 q 83 217 100 237 q 67 156 67 197 q 76 110 67 131 q 102 74 85 90 q 141 50 119 59 q 189 42 163 42 q 236 71 219 53 q 253 126 253 89 z "},"h":{"ha":339,"x_min":19,"x_max":328,"o":"m 328 17 l 250 -13 l 244 -10 l 244 139 q 240 178 244 160 q 225 209 235 196 q 199 232 215 223 q 160 242 183 240 q 136 220 147 233 q 118 191 126 207 q 105 159 110 176 q 97 125 99 142 l 97 6 l 47 -13 l 42 -10 l 42 753 q 38 783 42 771 q 19 800 34 796 l 21 808 q 80 815 51 808 q 125 833 108 821 l 131 828 q 111 800 118 814 q 101 768 104 786 q 98 727 98 751 q 97 669 97 703 l 97 204 q 140 261 115 239 q 192 292 165 284 q 273 254 245 288 q 300 169 300 221 l 300 47 q 304 27 300 35 q 313 22 306 22 q 325 25 317 22 l 328 17 z "},"i":{"ha":142,"x_min":8,"x_max":128,"o":"m 128 17 l 50 -13 l 44 -10 l 44 222 q 38 252 44 240 q 8 269 32 265 l 8 278 q 53 280 33 278 q 90 292 74 281 l 100 283 l 100 47 q 104 27 100 35 q 113 22 106 22 q 125 25 117 22 l 128 17 m 111 400 q 93 374 105 388 q 72 353 82 361 l 69 353 q 50 376 64 365 q 25 392 37 388 l 25 394 l 61 439 l 111 400 z "},"j":{"ha":156,"x_min":-30,"x_max":139,"o":"m 119 400 q 102 374 113 388 q 81 353 90 361 l 78 353 q 59 376 72 365 q 33 392 45 388 l 33 394 l 69 439 l 119 400 m 139 283 q 123 270 129 276 q 114 258 117 265 q 110 243 111 251 q 108 222 108 235 l 108 -535 l 89 -555 l 83 -555 q 60 -528 73 -537 q 33 -517 47 -519 l 26 -517 q 3 -521 15 -517 q -26 -535 -12 -526 l -30 -530 q -15 -512 -23 -521 q 3 -496 -6 -503 q 23 -484 13 -489 q 47 -480 34 -480 q 72 -484 62 -480 q 89 -495 81 -489 q 76 -437 85 -460 q 53 -399 67 -415 l 53 222 q 47 252 53 240 q 17 269 40 264 l 17 278 q 57 278 40 278 q 87 280 74 278 q 111 283 101 281 q 133 292 122 286 l 139 283 z "},"k":{"ha":331,"x_min":19,"x_max":336,"o":"m 336 22 l 258 -13 l 250 -10 q 233 33 242 12 q 209 73 223 55 q 175 105 195 92 q 126 122 155 117 l 119 122 l 117 128 l 153 153 q 181 159 167 153 q 206 172 194 164 q 226 190 217 180 q 238 211 234 200 q 227 228 235 220 q 208 242 219 237 q 186 250 198 248 l 177 250 q 164 249 170 250 l 97 167 l 97 6 l 47 -13 l 42 -10 l 42 753 q 38 783 42 771 q 19 800 34 796 l 21 808 q 80 815 51 808 q 125 833 108 821 l 131 828 q 111 800 118 814 q 101 768 104 786 q 98 727 98 751 q 97 669 97 703 l 97 201 l 144 267 q 178 284 159 276 q 214 292 197 292 q 259 276 241 292 q 283 239 278 260 q 255 183 279 208 q 196 143 231 158 q 250 110 226 133 q 289 53 274 88 q 306 33 295 37 q 323 30 313 30 q 333 31 328 30 l 336 22 z "},"l":{"ha":242,"x_min":19,"x_max":244,"o":"m 244 99 q 225 51 235 71 q 202 18 215 31 q 169 -3 188 5 q 122 -13 150 -10 q 86 -2 101 -10 q 61 20 71 6 q 47 55 51 34 q 42 107 42 76 l 42 753 q 38 783 42 771 q 19 800 34 796 l 21 808 q 80 815 51 808 q 125 833 108 821 l 131 828 q 111 800 118 814 q 101 768 104 786 q 98 727 98 751 q 97 669 97 703 l 97 146 q 101 95 97 115 q 114 62 106 75 q 134 42 122 49 q 163 31 147 35 q 210 57 194 38 q 236 101 226 76 l 244 99 z "},"m":{"ha":547,"x_min":8,"x_max":533,"o":"m 533 17 l 456 -13 l 450 -10 l 450 139 q 446 178 450 160 q 432 209 442 196 q 407 232 422 223 q 368 242 391 240 q 344 220 355 233 q 326 191 334 207 q 313 159 318 176 q 306 125 308 142 l 306 6 l 256 -13 l 250 -10 l 250 139 q 246 178 250 160 q 232 209 242 196 q 207 232 222 223 q 168 242 191 240 q 144 220 155 233 q 126 191 134 207 q 113 159 118 176 q 106 125 108 142 l 106 6 l 56 -13 l 50 -10 l 50 222 q 42 253 50 240 q 8 269 35 265 l 8 278 q 57 280 35 278 q 96 292 79 281 l 106 283 l 106 204 q 148 261 124 239 q 200 292 173 284 q 270 264 245 288 q 303 200 295 239 q 346 260 321 237 q 400 292 372 284 q 480 254 453 288 q 506 169 506 221 l 506 47 q 510 27 506 35 q 518 22 512 22 q 531 25 523 22 l 533 17 z "},"n":{"ha":342,"x_min":6,"x_max":331,"o":"m 331 17 l 253 -13 l 247 -10 l 247 139 q 243 178 247 160 q 229 209 239 196 q 204 232 219 223 q 165 242 188 240 q 142 220 152 233 q 123 191 131 207 q 110 159 115 176 q 103 125 105 142 l 103 6 l 53 -13 l 47 -10 l 47 222 q 40 253 47 240 q 6 269 32 265 l 6 278 q 54 280 32 278 q 93 292 76 281 l 103 283 l 103 204 q 145 261 121 239 q 197 292 170 284 q 277 254 251 288 q 303 169 303 221 l 303 47 q 307 27 303 35 q 315 22 309 22 q 328 25 320 22 l 331 17 z "},"o":{"ha":308,"x_min":17,"x_max":292,"o":"m 292 154 q 279 94 292 122 q 245 45 266 67 q 197 8 224 23 q 142 -13 170 -7 q 92 -2 115 -13 q 52 29 69 10 q 26 73 35 48 q 17 124 17 97 q 29 184 17 156 q 61 234 41 213 q 109 271 82 256 q 164 292 135 286 q 208 281 185 292 q 250 252 231 271 q 280 209 268 234 q 292 154 292 184 m 247 124 q 236 172 247 150 q 208 211 225 194 q 169 236 190 227 q 129 247 149 246 q 78 216 94 237 q 61 153 61 194 q 69 106 61 128 q 93 66 78 83 q 128 38 108 49 q 175 28 149 28 q 231 59 214 36 q 247 124 247 82 z "},"p":{"ha":339,"x_min":3,"x_max":322,"o":"m 322 154 q 309 93 322 124 q 275 40 297 63 q 225 1 253 16 q 165 -13 197 -13 q 128 -6 144 -13 q 100 11 113 1 l 100 -466 q 101 -499 100 -486 q 105 -521 101 -512 q 115 -535 108 -529 q 136 -547 122 -541 l 133 -555 q 105 -549 117 -551 q 75 -547 94 -547 l 69 -547 q 39 -549 51 -547 q 11 -555 28 -551 l 8 -547 q 29 -535 22 -541 q 40 -521 37 -529 q 44 -499 43 -512 q 44 -466 44 -486 l 44 222 q 37 253 44 240 q 3 269 29 265 l 3 278 q 51 280 29 278 q 90 292 74 281 l 100 283 l 100 211 q 140 264 117 242 q 192 292 163 286 q 242 278 218 290 q 284 248 266 267 q 312 205 301 229 q 322 154 322 181 m 272 124 q 263 167 272 146 q 239 206 254 189 q 202 233 223 223 q 157 244 181 244 q 136 223 145 237 q 119 193 126 210 q 107 159 112 177 q 100 125 102 142 l 100 108 q 113 77 104 92 q 135 49 122 61 q 164 30 148 37 q 200 22 181 22 q 234 31 220 22 q 256 54 248 40 q 268 87 265 69 q 272 124 272 105 z "},"q":{"ha":328,"x_min":19,"x_max":325,"o":"m 325 -547 l 322 -555 q 294 -549 306 -551 q 264 -547 283 -547 l 258 -547 q 228 -549 240 -547 q 200 -555 217 -551 l 197 -547 q 218 -535 210 -541 q 229 -521 226 -529 q 233 -499 232 -512 q 233 -466 233 -486 l 233 61 q 196 15 219 33 q 136 -13 173 -2 q 88 -2 109 -13 q 51 29 66 10 q 27 74 35 49 q 19 125 19 99 q 32 185 19 157 q 64 234 44 213 q 111 271 84 256 q 167 292 138 286 q 216 283 194 286 q 256 278 238 279 l 263 278 q 288 281 276 278 q 313 292 301 284 l 317 286 q 293 253 298 269 q 289 211 289 236 l 289 -466 q 290 -499 289 -486 q 293 -521 290 -512 q 304 -535 297 -529 q 325 -547 311 -541 m 233 124 l 233 217 q 186 242 213 235 q 133 250 160 250 q 81 217 99 240 q 64 154 64 195 q 71 107 64 130 q 92 68 78 85 q 125 41 106 51 q 171 31 145 31 q 197 49 186 38 q 215 71 208 59 q 226 97 222 83 q 233 124 231 110 z "},"r":{"ha":278,"x_min":6,"x_max":294,"o":"m 294 211 q 217 160 268 160 q 166 181 186 160 q 138 239 146 202 q 108 190 119 218 q 97 128 97 163 l 97 47 q 101 27 97 35 q 110 22 103 22 q 122 25 115 22 l 125 17 l 47 -13 l 42 -10 l 42 222 q 35 252 42 240 q 6 269 29 265 l 6 278 q 50 280 30 278 q 88 292 71 281 l 97 283 l 97 219 q 114 244 106 233 q 133 265 123 256 l 133 274 l 176 294 l 189 289 q 204 215 189 238 q 242 192 219 192 q 268 200 258 192 q 283 218 278 208 l 294 211 z "},"s":{"ha":226,"x_min":14,"x_max":213,"o":"m 213 96 q 195 44 213 72 q 150 -13 178 17 q 120 0 137 -5 q 86 6 103 5 l 81 6 q 51 2 66 6 q 18 -13 33 -3 l 14 -10 q 25 10 17 0 q 46 29 34 21 q 73 42 58 38 q 101 47 87 47 q 138 42 122 47 q 165 29 153 38 q 172 54 172 43 q 170 65 172 60 q 155 90 166 79 q 127 109 143 101 q 94 124 110 117 q 72 133 84 128 q 49 147 59 139 q 31 166 38 155 q 24 190 24 176 q 38 235 24 210 q 81 292 52 259 q 109 278 94 283 q 142 272 125 273 l 146 272 q 174 276 160 272 q 201 292 189 281 l 206 289 q 194 267 202 278 q 176 249 187 257 q 151 235 165 240 q 124 231 138 231 q 92 235 108 231 q 67 247 77 240 q 63 230 63 238 q 65 218 63 223 q 84 197 72 206 q 112 183 97 189 q 139 172 127 177 q 165 160 151 167 q 188 145 178 154 q 206 124 199 136 q 213 96 213 112 z "},"t":{"ha":275,"x_min":-8,"x_max":272,"o":"m 272 267 l 253 239 l 117 239 l 117 140 q 121 90 117 110 q 133 58 125 70 q 154 39 142 45 q 182 28 166 32 q 230 56 214 35 q 256 101 245 76 l 264 99 q 244 51 254 71 q 221 18 235 31 q 189 -3 208 5 q 142 -13 169 -10 q 106 -2 121 -10 q 81 20 90 6 q 66 55 71 34 q 61 107 61 76 l 61 239 l 6 239 l -8 253 l -8 258 q 47 278 26 267 q 80 307 67 290 q 98 350 92 325 q 106 411 103 375 l 117 411 l 117 278 l 269 278 l 272 267 z "},"u":{"ha":342,"x_min":3,"x_max":328,"o":"m 328 17 l 250 -13 l 244 -10 l 244 79 q 199 18 226 42 q 144 -13 173 -6 q 67 24 90 -9 q 44 108 44 57 l 44 222 q 37 253 44 240 q 3 269 29 265 l 3 278 q 51 280 29 278 q 90 292 74 281 l 100 283 l 100 139 q 103 100 100 118 q 115 68 107 82 q 139 45 124 54 q 176 35 153 37 q 201 56 190 43 q 222 85 213 69 q 236 119 231 101 q 244 153 242 136 l 244 222 q 238 252 244 240 q 208 269 232 265 l 208 278 q 253 280 233 278 q 290 292 274 281 l 300 283 l 300 47 q 304 27 300 35 q 313 22 306 22 q 325 25 317 22 l 328 17 z "},"v":{"ha":311,"x_min":-16,"x_max":300,"o":"m 300 228 q 293 192 300 210 q 269 150 285 174 l 164 -13 l 142 -13 l 47 211 q 38 234 42 224 q 28 251 34 244 q 13 262 23 258 q -16 269 3 267 l -16 278 q 24 280 3 278 q 63 292 44 281 l 75 286 l 176 44 l 235 142 q 251 181 247 161 q 253 202 253 192 q 252 217 253 210 q 236 243 248 233 q 204 253 224 253 l 179 253 l 157 228 l 150 232 l 183 294 l 231 294 q 283 275 266 294 q 300 228 300 255 z "},"w":{"ha":456,"x_min":-16,"x_max":444,"o":"m 444 228 q 437 192 444 210 q 414 150 430 174 l 308 -13 l 286 -13 l 235 108 l 165 -13 l 142 -13 l 47 211 q 38 234 42 224 q 28 251 34 244 q 13 262 23 258 q -16 269 3 267 l -16 278 q 24 280 3 278 q 63 292 44 281 l 75 286 l 175 46 l 224 133 l 190 211 q 181 234 185 224 q 170 251 176 244 q 154 262 164 258 q 128 269 144 267 l 128 278 q 170 280 151 278 q 207 292 189 281 l 219 286 l 321 44 l 379 142 q 395 181 391 161 q 397 201 397 192 q 396 217 397 210 q 380 243 392 233 q 347 253 367 253 l 322 253 l 300 228 l 293 232 l 326 294 l 374 294 q 427 275 409 294 q 444 228 444 255 z "},"x":{"ha":331,"x_min":-2,"x_max":324,"o":"m 324 24 l 239 -13 l 232 -10 l 153 110 l 111 44 q 126 33 119 39 q 138 18 133 26 l 100 -16 l 94 -16 q 77 -1 88 -7 q 55 6 67 5 l 51 6 q 29 2 40 6 q 4 -15 16 -3 l -2 -9 q 11 15 3 3 q 30 35 19 26 q 53 49 40 44 q 77 53 65 53 l 81 53 l 135 136 l 78 222 q 64 241 70 233 q 50 255 58 249 q 32 264 42 260 q 8 269 22 267 l 8 278 q 55 280 35 278 q 92 292 75 281 l 104 286 l 169 188 l 200 235 q 191 243 196 238 q 183 254 187 248 l 211 292 l 222 292 q 239 275 229 282 q 262 265 249 267 q 274 263 268 263 q 287 264 281 263 q 311 278 299 267 l 317 274 q 281 232 304 245 q 244 222 264 222 q 226 224 235 222 l 186 161 l 258 53 q 283 32 269 37 q 299 29 290 29 q 321 32 308 29 l 324 24 z "},"y":{"ha":311,"x_min":-16,"x_max":300,"o":"m 300 231 q 292 195 300 215 q 269 156 283 176 l 175 19 l 175 -466 q 176 -499 175 -486 q 180 -521 176 -512 q 190 -535 183 -529 q 211 -547 197 -541 l 208 -555 q 180 -549 192 -551 q 150 -547 169 -547 l 144 -547 q 114 -549 126 -547 q 86 -555 103 -551 l 83 -547 q 104 -535 97 -541 q 115 -521 112 -529 q 119 -499 118 -512 q 119 -466 119 -486 l 119 19 l 36 222 q 27 241 31 233 q 18 255 24 249 q 5 264 13 260 q -16 269 -3 267 l -16 278 q 24 280 8 278 q 57 292 40 281 l 69 286 l 167 51 l 228 146 q 246 185 240 165 q 250 209 250 198 q 249 219 250 214 q 235 243 247 234 q 204 253 224 253 l 179 253 l 157 228 l 150 232 l 183 294 l 231 294 q 283 276 266 294 q 300 231 300 258 z "},"z":{"ha":256,"x_min":14,"x_max":272,"o":"m 272 -84 q 244 -161 272 -129 q 174 -216 217 -194 l 168 -205 q 218 -164 201 -187 q 235 -109 235 -140 q 227 -68 235 -87 q 205 -33 220 -48 q 166 -9 190 -17 q 108 0 142 0 l 25 0 l 25 11 q 89 134 45 78 q 189 233 133 190 l 17 233 l 14 244 l 43 303 l 50 300 q 47 286 47 291 q 49 282 47 283 q 58 278 51 278 l 253 278 l 258 267 q 203 222 231 247 q 151 168 175 197 q 107 109 126 140 q 76 46 88 78 l 132 46 q 198 34 172 46 q 242 5 225 23 q 265 -37 258 -13 q 272 -84 272 -60 z "},"{":{"ha":556,"x_min":28,"x_max":528,"o":"m 528 -149 l 28 -149 l 28 833 l 528 833 l 528 -149 m 486 -110 l 486 794 l 69 794 l 69 -110 l 486 -110 m 379 673 q 353 604 379 626 q 282 581 328 581 l 165 581 l 165 589 l 185 589 l 185 757 l 165 757 l 165 764 l 282 764 q 353 741 328 764 q 379 673 379 719 m 360 363 l 178 363 l 178 370 l 199 370 l 199 538 l 178 538 l 178 545 l 356 545 l 356 482 l 348 482 q 328 523 342 508 q 285 538 314 538 l 275 538 l 275 459 l 276 459 q 300 468 291 459 q 310 495 308 477 l 318 495 l 318 415 l 310 415 q 300 443 308 433 q 276 452 291 452 l 275 452 l 275 370 l 289 370 q 332 389 318 370 q 352 433 346 408 l 360 433 l 360 363 m 397 143 l 280 143 l 280 151 l 301 151 l 301 307 l 244 143 l 234 143 l 179 306 l 179 172 q 184 155 179 160 q 205 151 189 151 l 205 143 l 146 143 l 146 151 q 165 155 160 151 q 169 172 169 159 l 169 319 l 147 319 l 147 326 l 245 326 l 272 249 l 298 326 l 397 326 l 397 319 l 376 319 l 376 151 l 397 151 l 397 143 m 372 15 q 365 -23 372 -6 q 344 -53 357 -40 q 313 -73 331 -66 q 273 -80 294 -80 q 233 -73 251 -80 q 202 -52 215 -65 q 181 -22 189 -40 q 174 15 174 -5 q 181 53 174 35 q 202 83 189 70 q 233 103 215 96 q 273 110 251 110 q 312 103 294 110 q 344 84 331 97 q 365 53 357 71 q 372 15 372 36 m 297 620 l 297 722 q 292 750 297 742 q 267 757 286 757 l 263 757 l 263 589 l 267 589 q 291 595 285 589 q 297 620 297 602 m 291 -41 l 291 72 q 288 93 291 83 q 273 103 285 103 q 258 93 261 103 q 256 72 256 83 l 256 -41 q 258 -63 256 -53 q 273 -73 261 -73 q 288 -63 285 -73 q 291 -41 291 -53 z "},"|":{"ha":556,"x_min":251,"x_max":304,"o":"m 304 -555 l 251 -555 l 251 833 l 304 833 l 304 -555 z "},"}":{"ha":556,"x_min":28,"x_max":528,"o":"m 528 -149 l 28 -149 l 28 833 l 528 833 l 528 -149 m 486 -110 l 486 794 l 69 794 l 69 -110 l 486 -110 m 379 673 q 353 604 379 626 q 282 581 328 581 l 165 581 l 165 589 l 185 589 l 185 757 l 165 757 l 165 764 l 282 764 q 353 741 328 764 q 379 673 379 719 m 360 363 l 178 363 l 178 370 l 199 370 l 199 538 l 178 538 l 178 545 l 356 545 l 356 482 l 348 482 q 328 523 342 508 q 285 538 314 538 l 275 538 l 275 459 l 276 459 q 300 468 291 459 q 310 495 308 477 l 318 495 l 318 415 l 310 415 q 300 443 308 433 q 276 452 291 452 l 275 452 l 275 370 l 289 370 q 332 389 318 370 q 352 433 346 408 l 360 433 l 360 363 m 397 143 l 280 143 l 280 151 l 301 151 l 301 307 l 244 143 l 234 143 l 179 306 l 179 172 q 184 155 179 160 q 205 151 189 151 l 205 143 l 146 143 l 146 151 q 165 155 160 151 q 169 172 169 159 l 169 319 l 147 319 l 147 326 l 245 326 l 272 249 l 298 326 l 397 326 l 397 319 l 376 319 l 376 151 l 397 151 l 397 143 m 372 15 q 365 -23 372 -6 q 344 -53 357 -40 q 313 -73 331 -66 q 273 -80 294 -80 q 233 -73 251 -80 q 202 -52 215 -65 q 181 -22 189 -40 q 174 15 174 -5 q 181 53 174 35 q 202 83 189 70 q 233 103 215 96 q 273 110 251 110 q 312 103 294 110 q 344 84 331 97 q 365 53 357 71 q 372 15 372 36 m 297 620 l 297 722 q 292 750 297 742 q 267 757 286 757 l 263 757 l 263 589 l 267 589 q 291 595 285 589 q 297 620 297 602 m 291 -41 l 291 72 q 288 93 291 83 q 273 103 285 103 q 258 93 261 103 q 256 72 256 83 l 256 -41 q 258 -63 256 -53 q 273 -73 261 -73 q 288 -63 285 -73 q 291 -41 291 -53 z "},"~":{"ha":556,"x_min":28,"x_max":528,"o":"m 528 -149 l 28 -149 l 28 833 l 528 833 l 528 -149 m 486 -110 l 486 794 l 69 794 l 69 -110 l 486 -110 m 379 673 q 353 604 379 626 q 282 581 328 581 l 165 581 l 165 589 l 185 589 l 185 757 l 165 757 l 165 764 l 282 764 q 353 741 328 764 q 379 673 379 719 m 360 363 l 178 363 l 178 370 l 199 370 l 199 538 l 178 538 l 178 545 l 356 545 l 356 482 l 348 482 q 328 523 342 508 q 285 538 314 538 l 275 538 l 275 459 l 276 459 q 300 468 291 459 q 310 495 308 477 l 318 495 l 318 415 l 310 415 q 300 443 308 433 q 276 452 291 452 l 275 452 l 275 370 l 289 370 q 332 389 318 370 q 352 433 346 408 l 360 433 l 360 363 m 397 143 l 280 143 l 280 151 l 301 151 l 301 307 l 244 143 l 234 143 l 179 306 l 179 172 q 184 155 179 160 q 205 151 189 151 l 205 143 l 146 143 l 146 151 q 165 155 160 151 q 169 172 169 159 l 169 319 l 147 319 l 147 326 l 245 326 l 272 249 l 298 326 l 397 326 l 397 319 l 376 319 l 376 151 l 397 151 l 397 143 m 372 15 q 365 -23 372 -6 q 344 -53 357 -40 q 313 -73 331 -66 q 273 -80 294 -80 q 233 -73 251 -80 q 202 -52 215 -65 q 181 -22 189 -40 q 174 15 174 -5 q 181 53 174 35 q 202 83 189 70 q 233 103 215 96 q 273 110 251 110 q 312 103 294 110 q 344 84 331 97 q 365 53 357 71 q 372 15 372 36 m 297 620 l 297 722 q 292 750 297 742 q 267 757 286 757 l 263 757 l 263 589 l 267 589 q 291 595 285 589 q 297 620 297 602 m 291 -41 l 291 72 q 288 93 291 83 q 273 103 285 103 q 258 93 261 103 q 256 72 256 83 l 256 -41 q 258 -63 256 -53 q 273 -73 261 -73 q 288 -63 285 -73 q 291 -41 291 -53 z "},"":{"ha":178,"x_min":0,"x_max":0,"o":""},"":{"ha":181,"x_min":39,"x_max":161,"o":"m 128 242 l 89 197 l 39 238 q 57 264 45 250 q 79 286 69 278 l 83 286 q 91 275 86 281 q 103 264 97 269 q 116 253 109 258 q 128 246 122 248 l 128 242 m 161 -274 l 51 -319 l 39 -309 q 55 -220 49 -271 q 65 -111 61 -169 q 71 10 69 -53 q 75 135 73 72 l 93 142 l 100 138 q 106 -62 102 29 q 118 -238 110 -153 q 120 -253 119 -246 q 126 -264 122 -260 q 138 -269 131 -268 l 141 -269 q 158 -266 148 -269 l 161 -274 z "},"":{"ha":400,"x_min":78,"x_max":328,"o":"m 221 304 q 199 314 209 308 q 181 328 188 319 q 135 296 148 319 q 122 231 122 272 q 135 176 122 201 q 171 132 148 150 l 221 304 m 328 363 q 317 342 324 352 q 300 323 310 331 q 277 308 290 314 q 251 301 265 302 l 197 115 q 215 109 206 111 q 235 104 224 106 q 287 131 268 113 q 317 175 306 150 l 325 172 q 305 126 316 144 q 278 94 293 107 q 244 74 263 82 q 203 60 226 66 q 195 60 199 60 q 182 64 190 61 l 153 -35 l 131 -35 l 122 -31 l 153 74 q 98 127 117 92 q 78 201 78 162 q 88 263 78 235 q 117 311 99 290 q 160 346 135 332 q 214 365 185 360 q 225 358 219 361 q 235 354 231 356 l 269 472 l 292 472 l 300 468 l 265 349 l 272 349 q 324 365 299 349 l 328 363 z "},"":{"ha":556,"x_min":28,"x_max":528,"o":"m 528 -149 l 28 -149 l 28 833 l 528 833 l 528 -149 m 486 -110 l 486 794 l 69 794 l 69 -110 l 486 -110 m 379 673 q 353 604 379 626 q 282 581 328 581 l 165 581 l 165 589 l 185 589 l 185 757 l 165 757 l 165 764 l 282 764 q 353 741 328 764 q 379 673 379 719 m 360 363 l 178 363 l 178 370 l 199 370 l 199 538 l 178 538 l 178 545 l 356 545 l 356 482 l 348 482 q 328 523 342 508 q 285 538 314 538 l 275 538 l 275 459 l 276 459 q 300 468 291 459 q 310 495 308 477 l 318 495 l 318 415 l 310 415 q 300 443 308 433 q 276 452 291 452 l 275 452 l 275 370 l 289 370 q 332 389 318 370 q 352 433 346 408 l 360 433 l 360 363 m 397 143 l 280 143 l 280 151 l 301 151 l 301 307 l 244 143 l 234 143 l 179 306 l 179 172 q 184 155 179 160 q 205 151 189 151 l 205 143 l 146 143 l 146 151 q 165 155 160 151 q 169 172 169 159 l 169 319 l 147 319 l 147 326 l 245 326 l 272 249 l 298 326 l 397 326 l 397 319 l 376 319 l 376 151 l 397 151 l 397 143 m 372 15 q 365 -23 372 -6 q 344 -53 357 -40 q 313 -73 331 -66 q 273 -80 294 -80 q 233 -73 251 -80 q 202 -52 215 -65 q 181 -22 189 -40 q 174 15 174 -5 q 181 53 174 35 q 202 83 189 70 q 233 103 215 96 q 273 110 251 110 q 312 103 294 110 q 344 84 331 97 q 365 53 357 71 q 372 15 372 36 m 297 620 l 297 722 q 292 750 297 742 q 267 757 286 757 l 263 757 l 263 589 l 267 589 q 291 595 285 589 q 297 620 297 602 m 291 -41 l 291 72 q 288 93 291 83 q 273 103 285 103 q 258 93 261 103 q 256 72 256 83 l 256 -41 q 258 -63 256 -53 q 273 -73 261 -73 q 288 -63 285 -73 q 291 -41 291 -53 z "},"":{"ha":367,"x_min":42,"x_max":325,"o":"m 325 113 l 322 101 l 296 83 l 247 131 q 183 111 219 111 q 118 131 149 111 l 71 83 l 60 86 l 42 113 l 89 160 q 69 225 69 190 q 89 289 69 261 l 42 338 l 44 349 l 71 367 l 118 318 q 183 339 147 339 q 247 318 220 339 l 296 367 l 307 364 l 325 338 l 276 289 q 297 225 297 262 q 276 160 297 189 l 325 113 m 261 225 q 255 256 261 242 q 238 282 249 271 q 214 299 228 293 q 183 306 199 306 q 153 299 167 306 q 128 282 139 293 q 112 256 118 271 q 106 225 106 242 q 112 194 106 208 q 128 168 118 179 q 153 151 139 157 q 183 144 167 144 q 214 151 199 144 q 238 168 228 157 q 255 194 249 179 q 261 225 261 208 z "},"":{"ha":556,"x_min":28,"x_max":528,"o":"m 528 -149 l 28 -149 l 28 833 l 528 833 l 528 -149 m 486 -110 l 486 794 l 69 794 l 69 -110 l 486 -110 m 379 673 q 353 604 379 626 q 282 581 328 581 l 165 581 l 165 589 l 185 589 l 185 757 l 165 757 l 165 764 l 282 764 q 353 741 328 764 q 379 673 379 719 m 360 363 l 178 363 l 178 370 l 199 370 l 199 538 l 178 538 l 178 545 l 356 545 l 356 482 l 348 482 q 328 523 342 508 q 285 538 314 538 l 275 538 l 275 459 l 276 459 q 300 468 291 459 q 310 495 308 477 l 318 495 l 318 415 l 310 415 q 300 443 308 433 q 276 452 291 452 l 275 452 l 275 370 l 289 370 q 332 389 318 370 q 352 433 346 408 l 360 433 l 360 363 m 397 143 l 280 143 l 280 151 l 301 151 l 301 307 l 244 143 l 234 143 l 179 306 l 179 172 q 184 155 179 160 q 205 151 189 151 l 205 143 l 146 143 l 146 151 q 165 155 160 151 q 169 172 169 159 l 169 319 l 147 319 l 147 326 l 245 326 l 272 249 l 298 326 l 397 326 l 397 319 l 376 319 l 376 151 l 397 151 l 397 143 m 372 15 q 365 -23 372 -6 q 344 -53 357 -40 q 313 -73 331 -66 q 273 -80 294 -80 q 233 -73 251 -80 q 202 -52 215 -65 q 181 -22 189 -40 q 174 15 174 -5 q 181 53 174 35 q 202 83 189 70 q 233 103 215 96 q 273 110 251 110 q 312 103 294 110 q 344 84 331 97 q 365 53 357 71 q 372 15 372 36 m 297 620 l 297 722 q 292 750 297 742 q 267 757 286 757 l 263 757 l 263 589 l 267 589 q 291 595 285 589 q 297 620 297 602 m 291 -41 l 291 72 q 288 93 291 83 q 273 103 285 103 q 258 93 261 103 q 256 72 256 83 l 256 -41 q 258 -63 256 -53 q 273 -73 261 -73 q 288 -63 285 -73 q 291 -41 291 -53 z "},"":{"ha":556,"x_min":251,"x_max":304,"o":"m 304 250 l 251 250 l 251 833 l 304 833 l 304 250 m 304 -555 l 251 -555 l 251 33 l 304 33 l 304 -555 z "},"":{"ha":556,"x_min":28,"x_max":528,"o":"m 528 -149 l 28 -149 l 28 833 l 528 833 l 528 -149 m 486 -110 l 486 794 l 69 794 l 69 -110 l 486 -110 m 379 673 q 353 604 379 626 q 282 581 328 581 l 165 581 l 165 589 l 185 589 l 185 757 l 165 757 l 165 764 l 282 764 q 353 741 328 764 q 379 673 379 719 m 360 363 l 178 363 l 178 370 l 199 370 l 199 538 l 178 538 l 178 545 l 356 545 l 356 482 l 348 482 q 328 523 342 508 q 285 538 314 538 l 275 538 l 275 459 l 276 459 q 300 468 291 459 q 310 495 308 477 l 318 495 l 318 415 l 310 415 q 300 443 308 433 q 276 452 291 452 l 275 452 l 275 370 l 289 370 q 332 389 318 370 q 352 433 346 408 l 360 433 l 360 363 m 397 143 l 280 143 l 280 151 l 301 151 l 301 307 l 244 143 l 234 143 l 179 306 l 179 172 q 184 155 179 160 q 205 151 189 151 l 205 143 l 146 143 l 146 151 q 165 155 160 151 q 169 172 169 159 l 169 319 l 147 319 l 147 326 l 245 326 l 272 249 l 298 326 l 397 326 l 397 319 l 376 319 l 376 151 l 397 151 l 397 143 m 372 15 q 365 -23 372 -6 q 344 -53 357 -40 q 313 -73 331 -66 q 273 -80 294 -80 q 233 -73 251 -80 q 202 -52 215 -65 q 181 -22 189 -40 q 174 15 174 -5 q 181 53 174 35 q 202 83 189 70 q 233 103 215 96 q 273 110 251 110 q 312 103 294 110 q 344 84 331 97 q 365 53 357 71 q 372 15 372 36 m 297 620 l 297 722 q 292 750 297 742 q 267 757 286 757 l 263 757 l 263 589 l 267 589 q 291 595 285 589 q 297 620 297 602 m 291 -41 l 291 72 q 288 93 291 83 q 273 103 285 103 q 258 93 261 103 q 256 72 256 83 l 256 -41 q 258 -63 256 -53 q 273 -73 261 -73 q 288 -63 285 -73 q 291 -41 291 -53 z "},"":{"ha":556,"x_min":28,"x_max":528,"o":"m 528 -149 l 28 -149 l 28 833 l 528 833 l 528 -149 m 486 -110 l 486 794 l 69 794 l 69 -110 l 486 -110 m 379 673 q 353 604 379 626 q 282 581 328 581 l 165 581 l 165 589 l 185 589 l 185 757 l 165 757 l 165 764 l 282 764 q 353 741 328 764 q 379 673 379 719 m 360 363 l 178 363 l 178 370 l 199 370 l 199 538 l 178 538 l 178 545 l 356 545 l 356 482 l 348 482 q 328 523 342 508 q 285 538 314 538 l 275 538 l 275 459 l 276 459 q 300 468 291 459 q 310 495 308 477 l 318 495 l 318 415 l 310 415 q 300 443 308 433 q 276 452 291 452 l 275 452 l 275 370 l 289 370 q 332 389 318 370 q 352 433 346 408 l 360 433 l 360 363 m 397 143 l 280 143 l 280 151 l 301 151 l 301 307 l 244 143 l 234 143 l 179 306 l 179 172 q 184 155 179 160 q 205 151 189 151 l 205 143 l 146 143 l 146 151 q 165 155 160 151 q 169 172 169 159 l 169 319 l 147 319 l 147 326 l 245 326 l 272 249 l 298 326 l 397 326 l 397 319 l 376 319 l 376 151 l 397 151 l 397 143 m 372 15 q 365 -23 372 -6 q 344 -53 357 -40 q 313 -73 331 -66 q 273 -80 294 -80 q 233 -73 251 -80 q 202 -52 215 -65 q 181 -22 189 -40 q 174 15 174 -5 q 181 53 174 35 q 202 83 189 70 q 233 103 215 96 q 273 110 251 110 q 312 103 294 110 q 344 84 331 97 q 365 53 357 71 q 372 15 372 36 m 297 620 l 297 722 q 292 750 297 742 q 267 757 286 757 l 263 757 l 263 589 l 267 589 q 291 595 285 589 q 297 620 297 602 m 291 -41 l 291 72 q 288 93 291 83 q 273 103 285 103 q 258 93 261 103 q 256 72 256 83 l 256 -41 q 258 -63 256 -53 q 273 -73 261 -73 q 288 -63 285 -73 q 291 -41 291 -53 z "},"":{"ha":556,"x_min":28,"x_max":528,"o":"m 528 -149 l 28 -149 l 28 833 l 528 833 l 528 -149 m 486 -110 l 486 794 l 69 794 l 69 -110 l 486 -110 m 379 673 q 353 604 379 626 q 282 581 328 581 l 165 581 l 165 589 l 185 589 l 185 757 l 165 757 l 165 764 l 282 764 q 353 741 328 764 q 379 673 379 719 m 360 363 l 178 363 l 178 370 l 199 370 l 199 538 l 178 538 l 178 545 l 356 545 l 356 482 l 348 482 q 328 523 342 508 q 285 538 314 538 l 275 538 l 275 459 l 276 459 q 300 468 291 459 q 310 495 308 477 l 318 495 l 318 415 l 310 415 q 300 443 308 433 q 276 452 291 452 l 275 452 l 275 370 l 289 370 q 332 389 318 370 q 352 433 346 408 l 360 433 l 360 363 m 397 143 l 280 143 l 280 151 l 301 151 l 301 307 l 244 143 l 234 143 l 179 306 l 179 172 q 184 155 179 160 q 205 151 189 151 l 205 143 l 146 143 l 146 151 q 165 155 160 151 q 169 172 169 159 l 169 319 l 147 319 l 147 326 l 245 326 l 272 249 l 298 326 l 397 326 l 397 319 l 376 319 l 376 151 l 397 151 l 397 143 m 372 15 q 365 -23 372 -6 q 344 -53 357 -40 q 313 -73 331 -66 q 273 -80 294 -80 q 233 -73 251 -80 q 202 -52 215 -65 q 181 -22 189 -40 q 174 15 174 -5 q 181 53 174 35 q 202 83 189 70 q 233 103 215 96 q 273 110 251 110 q 312 103 294 110 q 344 84 331 97 q 365 53 357 71 q 372 15 372 36 m 297 620 l 297 722 q 292 750 297 742 q 267 757 286 757 l 263 757 l 263 589 l 267 589 q 291 595 285 589 q 297 620 297 602 m 291 -41 l 291 72 q 288 93 291 83 q 273 103 285 103 q 258 93 261 103 q 256 72 256 83 l 256 -41 q 258 -63 256 -53 q 273 -73 261 -73 q 288 -63 285 -73 q 291 -41 291 -53 z "},"":{"ha":303,"x_min":28,"x_max":283,"o":"m 283 392 l 213 364 l 207 367 l 207 428 q 133 364 178 390 q 94 369 113 364 q 60 386 75 375 q 37 413 46 397 q 28 450 28 428 q 38 491 28 474 q 66 520 49 508 q 105 536 83 531 q 150 542 126 542 l 207 532 q 186 581 203 563 q 143 610 170 600 q 120 608 133 610 q 99 600 108 606 q 92 584 93 592 l 92 580 q 94 568 92 574 l 61 544 l 56 544 q 52 556 53 551 q 51 569 51 562 q 62 600 51 588 q 89 619 72 612 q 127 632 106 627 q 172 642 149 637 q 226 609 208 632 q 257 556 245 587 l 257 424 q 258 413 257 418 q 261 405 258 408 q 268 401 263 401 q 271 400 269 400 q 281 403 275 400 l 283 392 m 207 461 l 207 501 l 125 517 q 81 507 96 517 q 67 475 67 498 q 75 443 67 456 q 96 422 83 431 q 124 410 108 414 q 154 404 140 406 q 207 461 186 428 z "},"":{"ha":556,"x_min":28,"x_max":528,"o":"m 528 -149 l 28 -149 l 28 833 l 528 833 l 528 -149 m 486 -110 l 486 794 l 69 794 l 69 -110 l 486 -110 m 379 673 q 353 604 379 626 q 282 581 328 581 l 165 581 l 165 589 l 185 589 l 185 757 l 165 757 l 165 764 l 282 764 q 353 741 328 764 q 379 673 379 719 m 360 363 l 178 363 l 178 370 l 199 370 l 199 538 l 178 538 l 178 545 l 356 545 l 356 482 l 348 482 q 328 523 342 508 q 285 538 314 538 l 275 538 l 275 459 l 276 459 q 300 468 291 459 q 310 495 308 477 l 318 495 l 318 415 l 310 415 q 300 443 308 433 q 276 452 291 452 l 275 452 l 275 370 l 289 370 q 332 389 318 370 q 352 433 346 408 l 360 433 l 360 363 m 397 143 l 280 143 l 280 151 l 301 151 l 301 307 l 244 143 l 234 143 l 179 306 l 179 172 q 184 155 179 160 q 205 151 189 151 l 205 143 l 146 143 l 146 151 q 165 155 160 151 q 169 172 169 159 l 169 319 l 147 319 l 147 326 l 245 326 l 272 249 l 298 326 l 397 326 l 397 319 l 376 319 l 376 151 l 397 151 l 397 143 m 372 15 q 365 -23 372 -6 q 344 -53 357 -40 q 313 -73 331 -66 q 273 -80 294 -80 q 233 -73 251 -80 q 202 -52 215 -65 q 181 -22 189 -40 q 174 15 174 -5 q 181 53 174 35 q 202 83 189 70 q 233 103 215 96 q 273 110 251 110 q 312 103 294 110 q 344 84 331 97 q 365 53 357 71 q 372 15 372 36 m 297 620 l 297 722 q 292 750 297 742 q 267 757 286 757 l 263 757 l 263 589 l 267 589 q 291 595 285 589 q 297 620 297 602 m 291 -41 l 291 72 q 288 93 291 83 q 273 103 285 103 q 258 93 261 103 q 256 72 256 83 l 256 -41 q 258 -63 256 -53 q 273 -73 261 -73 q 288 -63 285 -73 q 291 -41 291 -53 z "},"":{"ha":556,"x_min":28,"x_max":528,"o":"m 528 -149 l 28 -149 l 28 833 l 528 833 l 528 -149 m 486 -110 l 486 794 l 69 794 l 69 -110 l 486 -110 m 379 673 q 353 604 379 626 q 282 581 328 581 l 165 581 l 165 589 l 185 589 l 185 757 l 165 757 l 165 764 l 282 764 q 353 741 328 764 q 379 673 379 719 m 360 363 l 178 363 l 178 370 l 199 370 l 199 538 l 178 538 l 178 545 l 356 545 l 356 482 l 348 482 q 328 523 342 508 q 285 538 314 538 l 275 538 l 275 459 l 276 459 q 300 468 291 459 q 310 495 308 477 l 318 495 l 318 415 l 310 415 q 300 443 308 433 q 276 452 291 452 l 275 452 l 275 370 l 289 370 q 332 389 318 370 q 352 433 346 408 l 360 433 l 360 363 m 397 143 l 280 143 l 280 151 l 301 151 l 301 307 l 244 143 l 234 143 l 179 306 l 179 172 q 184 155 179 160 q 205 151 189 151 l 205 143 l 146 143 l 146 151 q 165 155 160 151 q 169 172 169 159 l 169 319 l 147 319 l 147 326 l 245 326 l 272 249 l 298 326 l 397 326 l 397 319 l 376 319 l 376 151 l 397 151 l 397 143 m 372 15 q 365 -23 372 -6 q 344 -53 357 -40 q 313 -73 331 -66 q 273 -80 294 -80 q 233 -73 251 -80 q 202 -52 215 -65 q 181 -22 189 -40 q 174 15 174 -5 q 181 53 174 35 q 202 83 189 70 q 233 103 215 96 q 273 110 251 110 q 312 103 294 110 q 344 84 331 97 q 365 53 357 71 q 372 15 372 36 m 297 620 l 297 722 q 292 750 297 742 q 267 757 286 757 l 263 757 l 263 589 l 267 589 q 291 595 285 589 q 297 620 297 602 m 291 -41 l 291 72 q 288 93 291 83 q 273 103 285 103 q 258 93 261 103 q 256 72 256 83 l 256 -41 q 258 -63 256 -53 q 273 -73 261 -73 q 288 -63 285 -73 q 291 -41 291 -53 z "},"":{"ha":556,"x_min":28,"x_max":528,"o":"m 528 -149 l 28 -149 l 28 833 l 528 833 l 528 -149 m 486 -110 l 486 794 l 69 794 l 69 -110 l 486 -110 m 379 673 q 353 604 379 626 q 282 581 328 581 l 165 581 l 165 589 l 185 589 l 185 757 l 165 757 l 165 764 l 282 764 q 353 741 328 764 q 379 673 379 719 m 360 363 l 178 363 l 178 370 l 199 370 l 199 538 l 178 538 l 178 545 l 356 545 l 356 482 l 348 482 q 328 523 342 508 q 285 538 314 538 l 275 538 l 275 459 l 276 459 q 300 468 291 459 q 310 495 308 477 l 318 495 l 318 415 l 310 415 q 300 443 308 433 q 276 452 291 452 l 275 452 l 275 370 l 289 370 q 332 389 318 370 q 352 433 346 408 l 360 433 l 360 363 m 397 143 l 280 143 l 280 151 l 301 151 l 301 307 l 244 143 l 234 143 l 179 306 l 179 172 q 184 155 179 160 q 205 151 189 151 l 205 143 l 146 143 l 146 151 q 165 155 160 151 q 169 172 169 159 l 169 319 l 147 319 l 147 326 l 245 326 l 272 249 l 298 326 l 397 326 l 397 319 l 376 319 l 376 151 l 397 151 l 397 143 m 372 15 q 365 -23 372 -6 q 344 -53 357 -40 q 313 -73 331 -66 q 273 -80 294 -80 q 233 -73 251 -80 q 202 -52 215 -65 q 181 -22 189 -40 q 174 15 174 -5 q 181 53 174 35 q 202 83 189 70 q 233 103 215 96 q 273 110 251 110 q 312 103 294 110 q 344 84 331 97 q 365 53 357 71 q 372 15 372 36 m 297 620 l 297 722 q 292 750 297 742 q 267 757 286 757 l 263 757 l 263 589 l 267 589 q 291 595 285 589 q 297 620 297 602 m 291 -41 l 291 72 q 288 93 291 83 q 273 103 285 103 q 258 93 261 103 q 256 72 256 83 l 256 -41 q 258 -63 256 -53 q 273 -73 261 -73 q 288 -63 285 -73 q 291 -41 291 -53 z "},"":{"ha":556,"x_min":28,"x_max":528,"o":"m 528 -149 l 28 -149 l 28 833 l 528 833 l 528 -149 m 486 -110 l 486 794 l 69 794 l 69 -110 l 486 -110 m 379 673 q 353 604 379 626 q 282 581 328 581 l 165 581 l 165 589 l 185 589 l 185 757 l 165 757 l 165 764 l 282 764 q 353 741 328 764 q 379 673 379 719 m 360 363 l 178 363 l 178 370 l 199 370 l 199 538 l 178 538 l 178 545 l 356 545 l 356 482 l 348 482 q 328 523 342 508 q 285 538 314 538 l 275 538 l 275 459 l 276 459 q 300 468 291 459 q 310 495 308 477 l 318 495 l 318 415 l 310 415 q 300 443 308 433 q 276 452 291 452 l 275 452 l 275 370 l 289 370 q 332 389 318 370 q 352 433 346 408 l 360 433 l 360 363 m 397 143 l 280 143 l 280 151 l 301 151 l 301 307 l 244 143 l 234 143 l 179 306 l 179 172 q 184 155 179 160 q 205 151 189 151 l 205 143 l 146 143 l 146 151 q 165 155 160 151 q 169 172 169 159 l 169 319 l 147 319 l 147 326 l 245 326 l 272 249 l 298 326 l 397 326 l 397 319 l 376 319 l 376 151 l 397 151 l 397 143 m 372 15 q 365 -23 372 -6 q 344 -53 357 -40 q 313 -73 331 -66 q 273 -80 294 -80 q 233 -73 251 -80 q 202 -52 215 -65 q 181 -22 189 -40 q 174 15 174 -5 q 181 53 174 35 q 202 83 189 70 q 233 103 215 96 q 273 110 251 110 q 312 103 294 110 q 344 84 331 97 q 365 53 357 71 q 372 15 372 36 m 297 620 l 297 722 q 292 750 297 742 q 267 757 286 757 l 263 757 l 263 589 l 267 589 q 291 595 285 589 q 297 620 297 602 m 291 -41 l 291 72 q 288 93 291 83 q 273 103 285 103 q 258 93 261 103 q 256 72 256 83 l 256 -41 q 258 -63 256 -53 q 273 -73 261 -73 q 288 -63 285 -73 q 291 -41 291 -53 z "},"":{"ha":556,"x_min":28,"x_max":528,"o":"m 528 -149 l 28 -149 l 28 833 l 528 833 l 528 -149 m 486 -110 l 486 794 l 69 794 l 69 -110 l 486 -110 m 379 673 q 353 604 379 626 q 282 581 328 581 l 165 581 l 165 589 l 185 589 l 185 757 l 165 757 l 165 764 l 282 764 q 353 741 328 764 q 379 673 379 719 m 360 363 l 178 363 l 178 370 l 199 370 l 199 538 l 178 538 l 178 545 l 356 545 l 356 482 l 348 482 q 328 523 342 508 q 285 538 314 538 l 275 538 l 275 459 l 276 459 q 300 468 291 459 q 310 495 308 477 l 318 495 l 318 415 l 310 415 q 300 443 308 433 q 276 452 291 452 l 275 452 l 275 370 l 289 370 q 332 389 318 370 q 352 433 346 408 l 360 433 l 360 363 m 397 143 l 280 143 l 280 151 l 301 151 l 301 307 l 244 143 l 234 143 l 179 306 l 179 172 q 184 155 179 160 q 205 151 189 151 l 205 143 l 146 143 l 146 151 q 165 155 160 151 q 169 172 169 159 l 169 319 l 147 319 l 147 326 l 245 326 l 272 249 l 298 326 l 397 326 l 397 319 l 376 319 l 376 151 l 397 151 l 397 143 m 372 15 q 365 -23 372 -6 q 344 -53 357 -40 q 313 -73 331 -66 q 273 -80 294 -80 q 233 -73 251 -80 q 202 -52 215 -65 q 181 -22 189 -40 q 174 15 174 -5 q 181 53 174 35 q 202 83 189 70 q 233 103 215 96 q 273 110 251 110 q 312 103 294 110 q 344 84 331 97 q 365 53 357 71 q 372 15 372 36 m 297 620 l 297 722 q 292 750 297 742 q 267 757 286 757 l 263 757 l 263 589 l 267 589 q 291 595 285 589 q 297 620 297 602 m 291 -41 l 291 72 q 288 93 291 83 q 273 103 285 103 q 258 93 261 103 q 256 72 256 83 l 256 -41 q 258 -63 256 -53 q 273 -73 261 -73 q 288 -63 285 -73 q 291 -41 291 -53 z "},"":{"ha":556,"x_min":28,"x_max":528,"o":"m 528 -149 l 28 -149 l 28 833 l 528 833 l 528 -149 m 486 -110 l 486 794 l 69 794 l 69 -110 l 486 -110 m 379 673 q 353 604 379 626 q 282 581 328 581 l 165 581 l 165 589 l 185 589 l 185 757 l 165 757 l 165 764 l 282 764 q 353 741 328 764 q 379 673 379 719 m 360 363 l 178 363 l 178 370 l 199 370 l 199 538 l 178 538 l 178 545 l 356 545 l 356 482 l 348 482 q 328 523 342 508 q 285 538 314 538 l 275 538 l 275 459 l 276 459 q 300 468 291 459 q 310 495 308 477 l 318 495 l 318 415 l 310 415 q 300 443 308 433 q 276 452 291 452 l 275 452 l 275 370 l 289 370 q 332 389 318 370 q 352 433 346 408 l 360 433 l 360 363 m 397 143 l 280 143 l 280 151 l 301 151 l 301 307 l 244 143 l 234 143 l 179 306 l 179 172 q 184 155 179 160 q 205 151 189 151 l 205 143 l 146 143 l 146 151 q 165 155 160 151 q 169 172 169 159 l 169 319 l 147 319 l 147 326 l 245 326 l 272 249 l 298 326 l 397 326 l 397 319 l 376 319 l 376 151 l 397 151 l 397 143 m 372 15 q 365 -23 372 -6 q 344 -53 357 -40 q 313 -73 331 -66 q 273 -80 294 -80 q 233 -73 251 -80 q 202 -52 215 -65 q 181 -22 189 -40 q 174 15 174 -5 q 181 53 174 35 q 202 83 189 70 q 233 103 215 96 q 273 110 251 110 q 312 103 294 110 q 344 84 331 97 q 365 53 357 71 q 372 15 372 36 m 297 620 l 297 722 q 292 750 297 742 q 267 757 286 757 l 263 757 l 263 589 l 267 589 q 291 595 285 589 q 297 620 297 602 m 291 -41 l 291 72 q 288 93 291 83 q 273 103 285 103 q 258 93 261 103 q 256 72 256 83 l 256 -41 q 258 -63 256 -53 q 273 -73 261 -73 q 288 -63 285 -73 q 291 -41 291 -53 z "},"":{"ha":556,"x_min":28,"x_max":528,"o":"m 528 -149 l 28 -149 l 28 833 l 528 833 l 528 -149 m 486 -110 l 486 794 l 69 794 l 69 -110 l 486 -110 m 379 673 q 353 604 379 626 q 282 581 328 581 l 165 581 l 165 589 l 185 589 l 185 757 l 165 757 l 165 764 l 282 764 q 353 741 328 764 q 379 673 379 719 m 360 363 l 178 363 l 178 370 l 199 370 l 199 538 l 178 538 l 178 545 l 356 545 l 356 482 l 348 482 q 328 523 342 508 q 285 538 314 538 l 275 538 l 275 459 l 276 459 q 300 468 291 459 q 310 495 308 477 l 318 495 l 318 415 l 310 415 q 300 443 308 433 q 276 452 291 452 l 275 452 l 275 370 l 289 370 q 332 389 318 370 q 352 433 346 408 l 360 433 l 360 363 m 397 143 l 280 143 l 280 151 l 301 151 l 301 307 l 244 143 l 234 143 l 179 306 l 179 172 q 184 155 179 160 q 205 151 189 151 l 205 143 l 146 143 l 146 151 q 165 155 160 151 q 169 172 169 159 l 169 319 l 147 319 l 147 326 l 245 326 l 272 249 l 298 326 l 397 326 l 397 319 l 376 319 l 376 151 l 397 151 l 397 143 m 372 15 q 365 -23 372 -6 q 344 -53 357 -40 q 313 -73 331 -66 q 273 -80 294 -80 q 233 -73 251 -80 q 202 -52 215 -65 q 181 -22 189 -40 q 174 15 174 -5 q 181 53 174 35 q 202 83 189 70 q 233 103 215 96 q 273 110 251 110 q 312 103 294 110 q 344 84 331 97 q 365 53 357 71 q 372 15 372 36 m 297 620 l 297 722 q 292 750 297 742 q 267 757 286 757 l 263 757 l 263 589 l 267 589 q 291 595 285 589 q 297 620 297 602 m 291 -41 l 291 72 q 288 93 291 83 q 273 103 285 103 q 258 93 261 103 q 256 72 256 83 l 256 -41 q 258 -63 256 -53 q 273 -73 261 -73 q 288 -63 285 -73 q 291 -41 291 -53 z "},"":{"ha":275,"x_min":31,"x_max":256,"o":"m 256 393 q 248 357 251 375 q 243 319 244 338 l 239 317 q 213 324 226 322 q 171 326 199 326 l 96 326 q 61 323 75 326 q 35 317 47 320 l 31 326 q 83 359 56 342 q 133 395 110 376 q 169 439 155 415 q 183 489 183 462 q 164 543 183 526 q 113 563 144 560 q 84 543 96 556 q 72 510 72 531 q 74 491 72 499 q 80 477 76 483 q 89 467 84 472 q 100 457 94 462 l 100 450 l 76 425 q 43 455 56 433 q 31 499 31 476 q 40 534 31 518 q 64 562 49 550 q 97 582 78 574 q 133 593 115 590 q 173 586 155 592 q 205 570 192 581 q 227 543 219 559 q 235 507 235 527 q 226 462 235 483 q 203 424 217 442 q 169 391 188 406 q 128 363 149 376 l 199 363 q 217 364 210 363 q 229 369 224 365 q 239 379 234 372 q 249 396 243 385 l 256 393 z "},"":{"ha":275,"x_min":28,"x_max":253,"o":"m 253 425 q 242 381 253 401 q 213 346 231 361 q 171 322 194 331 q 122 311 147 313 q 68 326 92 315 q 28 358 44 338 l 57 390 l 67 390 q 99 358 83 369 q 144 344 116 347 q 190 361 174 348 q 207 406 207 375 q 188 448 207 434 q 143 461 168 461 q 119 459 131 461 q 97 449 108 456 l 89 465 q 117 484 103 477 q 149 493 132 491 q 168 503 159 497 q 176 525 176 510 q 172 544 176 537 q 158 557 167 552 q 140 563 150 561 q 118 565 129 565 q 91 557 103 563 q 79 535 79 551 q 81 525 79 528 q 85 518 83 522 l 85 514 l 51 501 q 45 512 48 506 q 43 529 43 519 q 52 554 43 542 q 76 575 62 566 q 107 590 90 584 q 138 597 124 596 q 167 593 152 597 q 194 583 182 590 q 213 565 206 576 q 221 542 221 555 q 212 513 221 525 q 189 492 203 500 q 234 469 216 486 q 253 425 253 451 z "},"":{"ha":556,"x_min":28,"x_max":528,"o":"m 528 -149 l 28 -149 l 28 833 l 528 833 l 528 -149 m 486 -110 l 486 794 l 69 794 l 69 -110 l 486 -110 m 379 673 q 353 604 379 626 q 282 581 328 581 l 165 581 l 165 589 l 185 589 l 185 757 l 165 757 l 165 764 l 282 764 q 353 741 328 764 q 379 673 379 719 m 360 363 l 178 363 l 178 370 l 199 370 l 199 538 l 178 538 l 178 545 l 356 545 l 356 482 l 348 482 q 328 523 342 508 q 285 538 314 538 l 275 538 l 275 459 l 276 459 q 300 468 291 459 q 310 495 308 477 l 318 495 l 318 415 l 310 415 q 300 443 308 433 q 276 452 291 452 l 275 452 l 275 370 l 289 370 q 332 389 318 370 q 352 433 346 408 l 360 433 l 360 363 m 397 143 l 280 143 l 280 151 l 301 151 l 301 307 l 244 143 l 234 143 l 179 306 l 179 172 q 184 155 179 160 q 205 151 189 151 l 205 143 l 146 143 l 146 151 q 165 155 160 151 q 169 172 169 159 l 169 319 l 147 319 l 147 326 l 245 326 l 272 249 l 298 326 l 397 326 l 397 319 l 376 319 l 376 151 l 397 151 l 397 143 m 372 15 q 365 -23 372 -6 q 344 -53 357 -40 q 313 -73 331 -66 q 273 -80 294 -80 q 233 -73 251 -80 q 202 -52 215 -65 q 181 -22 189 -40 q 174 15 174 -5 q 181 53 174 35 q 202 83 189 70 q 233 103 215 96 q 273 110 251 110 q 312 103 294 110 q 344 84 331 97 q 365 53 357 71 q 372 15 372 36 m 297 620 l 297 722 q 292 750 297 742 q 267 757 286 757 l 263 757 l 263 589 l 267 589 q 291 595 285 589 q 297 620 297 602 m 291 -41 l 291 72 q 288 93 291 83 q 273 103 285 103 q 258 93 261 103 q 256 72 256 83 l 256 -41 q 258 -63 256 -53 q 273 -73 261 -73 q 288 -63 285 -73 q 291 -41 291 -53 z "},"":{"ha":333,"x_min":-130,"x_max":319,"o":"m 319 17 l 242 -13 l 236 -10 l 236 78 q 195 19 218 42 q 147 -13 172 -3 q 89 21 113 -3 l 89 -83 q 86 -187 89 -135 q 74 -288 83 -240 q 51 -380 66 -337 q 13 -459 36 -424 q -43 -518 -10 -494 q -122 -555 -76 -543 l -124 -555 l -130 -544 l -99 -497 q -41 -474 -65 -494 q -2 -424 -17 -454 q 22 -354 13 -393 q 34 -274 30 -315 q 38 -192 38 -233 q 39 -116 39 -151 l 39 272 l 82 292 l 94 286 l 94 139 q 98 100 94 118 q 111 68 102 82 q 135 45 120 54 q 174 35 151 37 q 197 56 187 43 q 216 85 208 69 q 229 119 224 101 q 236 153 234 136 l 236 272 l 279 292 l 292 286 l 292 47 q 296 27 292 35 q 304 22 298 22 q 317 25 309 22 l 319 17 z "},"":{"ha":556,"x_min":17,"x_max":533,"o":"m 533 178 q 497 140 515 158 q 457 106 478 122 l 457 -166 l 421 -180 l 404 -174 l 404 72 q 372 60 388 65 q 338 51 356 55 l 338 -166 l 301 -180 l 285 -174 l 285 47 q 185 63 233 47 q 99 110 137 78 q 39 190 62 142 q 17 303 17 238 q 35 406 17 358 q 87 490 54 453 q 164 553 119 527 q 258 592 208 578 q 319 568 286 577 q 388 558 352 559 l 399 558 q 459 563 429 558 q 528 588 494 570 l 533 578 q 497 546 517 560 q 457 522 478 533 l 457 142 q 491 163 475 151 q 525 188 507 174 l 533 178 m 404 121 l 404 503 q 371 497 388 499 q 351 495 361 495 q 338 496 344 495 l 338 114 q 373 116 356 114 q 404 121 390 117 m 285 119 l 285 504 q 206 542 243 515 q 162 512 181 528 q 131 474 143 496 q 112 422 118 451 q 106 353 106 392 q 119 266 106 306 q 156 197 132 227 q 213 147 180 167 q 285 119 246 127 z "},"":{"ha":556,"x_min":28,"x_max":528,"o":"m 528 -149 l 28 -149 l 28 833 l 528 833 l 528 -149 m 486 -110 l 486 794 l 69 794 l 69 -110 l 486 -110 m 379 673 q 353 604 379 626 q 282 581 328 581 l 165 581 l 165 589 l 185 589 l 185 757 l 165 757 l 165 764 l 282 764 q 353 741 328 764 q 379 673 379 719 m 360 363 l 178 363 l 178 370 l 199 370 l 199 538 l 178 538 l 178 545 l 356 545 l 356 482 l 348 482 q 328 523 342 508 q 285 538 314 538 l 275 538 l 275 459 l 276 459 q 300 468 291 459 q 310 495 308 477 l 318 495 l 318 415 l 310 415 q 300 443 308 433 q 276 452 291 452 l 275 452 l 275 370 l 289 370 q 332 389 318 370 q 352 433 346 408 l 360 433 l 360 363 m 397 143 l 280 143 l 280 151 l 301 151 l 301 307 l 244 143 l 234 143 l 179 306 l 179 172 q 184 155 179 160 q 205 151 189 151 l 205 143 l 146 143 l 146 151 q 165 155 160 151 q 169 172 169 159 l 169 319 l 147 319 l 147 326 l 245 326 l 272 249 l 298 326 l 397 326 l 397 319 l 376 319 l 376 151 l 397 151 l 397 143 m 372 15 q 365 -23 372 -6 q 344 -53 357 -40 q 313 -73 331 -66 q 273 -80 294 -80 q 233 -73 251 -80 q 202 -52 215 -65 q 181 -22 189 -40 q 174 15 174 -5 q 181 53 174 35 q 202 83 189 70 q 233 103 215 96 q 273 110 251 110 q 312 103 294 110 q 344 84 331 97 q 365 53 357 71 q 372 15 372 36 m 297 620 l 297 722 q 292 750 297 742 q 267 757 286 757 l 263 757 l 263 589 l 267 589 q 291 595 285 589 q 297 620 297 602 m 291 -41 l 291 72 q 288 93 291 83 q 273 103 285 103 q 258 93 261 103 q 256 72 256 83 l 256 -41 q 258 -63 256 -53 q 273 -73 261 -73 q 288 -63 285 -73 q 291 -41 291 -53 z "},"":{"ha":556,"x_min":28,"x_max":528,"o":"m 528 -149 l 28 -149 l 28 833 l 528 833 l 528 -149 m 486 -110 l 486 794 l 69 794 l 69 -110 l 486 -110 m 379 673 q 353 604 379 626 q 282 581 328 581 l 165 581 l 165 589 l 185 589 l 185 757 l 165 757 l 165 764 l 282 764 q 353 741 328 764 q 379 673 379 719 m 360 363 l 178 363 l 178 370 l 199 370 l 199 538 l 178 538 l 178 545 l 356 545 l 356 482 l 348 482 q 328 523 342 508 q 285 538 314 538 l 275 538 l 275 459 l 276 459 q 300 468 291 459 q 310 495 308 477 l 318 495 l 318 415 l 310 415 q 300 443 308 433 q 276 452 291 452 l 275 452 l 275 370 l 289 370 q 332 389 318 370 q 352 433 346 408 l 360 433 l 360 363 m 397 143 l 280 143 l 280 151 l 301 151 l 301 307 l 244 143 l 234 143 l 179 306 l 179 172 q 184 155 179 160 q 205 151 189 151 l 205 143 l 146 143 l 146 151 q 165 155 160 151 q 169 172 169 159 l 169 319 l 147 319 l 147 326 l 245 326 l 272 249 l 298 326 l 397 326 l 397 319 l 376 319 l 376 151 l 397 151 l 397 143 m 372 15 q 365 -23 372 -6 q 344 -53 357 -40 q 313 -73 331 -66 q 273 -80 294 -80 q 233 -73 251 -80 q 202 -52 215 -65 q 181 -22 189 -40 q 174 15 174 -5 q 181 53 174 35 q 202 83 189 70 q 233 103 215 96 q 273 110 251 110 q 312 103 294 110 q 344 84 331 97 q 365 53 357 71 q 372 15 372 36 m 297 620 l 297 722 q 292 750 297 742 q 267 757 286 757 l 263 757 l 263 589 l 267 589 q 291 595 285 589 q 297 620 297 602 m 291 -41 l 291 72 q 288 93 291 83 q 273 103 285 103 q 258 93 261 103 q 256 72 256 83 l 256 -41 q 258 -63 256 -53 q 273 -73 261 -73 q 288 -63 285 -73 q 291 -41 291 -53 z "},"":{"ha":275,"x_min":36,"x_max":242,"o":"m 242 326 l 239 317 q 206 323 223 320 q 172 326 188 326 l 150 326 q 115 323 134 326 q 81 317 97 320 l 78 326 q 108 336 97 331 q 126 350 120 342 q 135 370 133 358 q 138 401 138 382 l 138 529 q 93 497 117 510 q 51 487 73 487 q 39 488 45 487 l 36 494 l 60 526 q 116 539 94 526 q 157 575 137 551 l 171 592 l 185 590 l 185 401 q 186 370 185 382 q 194 350 188 358 q 211 336 200 342 q 242 326 222 331 z "},"":{"ha":306,"x_min":25,"x_max":281,"o":"m 281 515 q 269 460 281 485 q 238 416 257 435 q 193 383 218 397 q 140 364 167 370 q 94 374 115 364 q 58 401 73 384 q 34 441 42 418 q 25 488 25 463 q 36 542 25 517 q 67 587 48 567 q 111 620 86 607 q 163 639 136 633 q 204 630 183 639 q 242 604 225 621 q 270 565 259 588 q 281 515 281 542 m 240 488 q 230 532 240 512 q 203 567 219 552 q 167 589 187 581 q 131 599 148 597 q 82 570 98 589 q 65 514 65 551 q 73 471 65 492 q 95 435 81 451 q 128 410 109 419 q 172 401 148 401 q 224 430 208 409 q 240 488 240 450 z "},"":{"ha":556,"x_min":28,"x_max":528,"o":"m 528 -149 l 28 -149 l 28 833 l 528 833 l 528 -149 m 486 -110 l 486 794 l 69 794 l 69 -110 l 486 -110 m 379 673 q 353 604 379 626 q 282 581 328 581 l 165 581 l 165 589 l 185 589 l 185 757 l 165 757 l 165 764 l 282 764 q 353 741 328 764 q 379 673 379 719 m 360 363 l 178 363 l 178 370 l 199 370 l 199 538 l 178 538 l 178 545 l 356 545 l 356 482 l 348 482 q 328 523 342 508 q 285 538 314 538 l 275 538 l 275 459 l 276 459 q 300 468 291 459 q 310 495 308 477 l 318 495 l 318 415 l 310 415 q 300 443 308 433 q 276 452 291 452 l 275 452 l 275 370 l 289 370 q 332 389 318 370 q 352 433 346 408 l 360 433 l 360 363 m 397 143 l 280 143 l 280 151 l 301 151 l 301 307 l 244 143 l 234 143 l 179 306 l 179 172 q 184 155 179 160 q 205 151 189 151 l 205 143 l 146 143 l 146 151 q 165 155 160 151 q 169 172 169 159 l 169 319 l 147 319 l 147 326 l 245 326 l 272 249 l 298 326 l 397 326 l 397 319 l 376 319 l 376 151 l 397 151 l 397 143 m 372 15 q 365 -23 372 -6 q 344 -53 357 -40 q 313 -73 331 -66 q 273 -80 294 -80 q 233 -73 251 -80 q 202 -52 215 -65 q 181 -22 189 -40 q 174 15 174 -5 q 181 53 174 35 q 202 83 189 70 q 233 103 215 96 q 273 110 251 110 q 312 103 294 110 q 344 84 331 97 q 365 53 357 71 q 372 15 372 36 m 297 620 l 297 722 q 292 750 297 742 q 267 757 286 757 l 263 757 l 263 589 l 267 589 q 291 595 285 589 q 297 620 297 602 m 291 -41 l 291 72 q 288 93 291 83 q 273 103 285 103 q 258 93 261 103 q 256 72 256 83 l 256 -41 q 258 -63 256 -53 q 273 -73 261 -73 q 288 -63 285 -73 q 291 -41 291 -53 z "},"":{"ha":603,"x_min":19,"x_max":578,"o":"m 225 222 l 222 213 q 189 219 206 216 q 156 222 172 222 l 133 222 q 99 219 117 222 q 64 213 80 216 l 61 222 q 92 232 80 227 q 110 245 103 238 q 118 266 116 253 q 121 297 121 278 l 121 425 q 76 393 101 406 q 34 383 56 383 q 22 383 28 383 l 19 390 l 43 422 q 99 434 78 422 q 140 471 120 447 l 154 488 l 168 486 l 168 297 q 170 266 168 278 q 177 245 172 253 q 194 232 183 238 q 225 222 206 227 m 467 490 l 211 -30 l 179 -30 l 167 -23 l 422 497 l 454 497 l 467 490 m 578 101 q 568 78 572 92 q 564 56 565 64 l 560 53 l 528 53 q 530 31 528 39 q 535 18 531 23 q 547 9 540 13 q 567 0 555 5 l 563 -9 q 536 -2 547 -3 q 510 0 526 0 l 499 0 q 472 -2 483 0 q 444 -9 460 -3 l 442 0 q 461 9 453 5 q 472 18 468 13 q 478 31 476 23 q 481 53 480 39 l 350 53 l 344 67 q 370 123 353 94 q 409 178 388 152 q 456 227 431 204 q 507 265 481 249 l 528 256 l 528 90 l 538 90 q 558 95 551 90 q 571 107 565 101 l 578 101 m 481 90 l 481 214 q 429 157 451 189 q 394 90 406 125 l 481 90 z "},"":{"ha":603,"x_min":19,"x_max":586,"o":"m 225 222 l 222 213 q 189 219 206 216 q 156 222 172 222 l 133 222 q 99 219 117 222 q 64 213 80 216 l 61 222 q 92 232 80 227 q 110 245 103 238 q 118 266 116 253 q 121 297 121 278 l 121 425 q 76 393 101 406 q 34 383 56 383 q 22 383 28 383 l 19 390 l 43 422 q 99 434 78 422 q 140 471 120 447 l 154 488 l 168 486 l 168 297 q 170 266 168 278 q 177 245 172 253 q 194 232 183 238 q 225 222 206 227 m 456 490 l 200 -30 l 168 -30 l 156 -23 l 411 497 l 443 497 l 456 490 m 586 67 q 578 30 582 49 q 574 -6 575 12 l 569 -9 q 543 -2 557 -4 q 501 0 529 0 l 426 0 q 391 -3 406 0 q 365 -9 377 -6 l 361 0 q 414 32 387 15 q 463 69 441 49 q 500 112 485 89 q 514 163 514 135 q 494 217 514 200 q 443 236 474 234 q 415 217 426 230 q 403 183 403 204 q 405 165 403 172 q 411 151 407 157 q 420 140 415 145 q 431 131 425 135 l 431 124 l 407 99 q 374 128 387 106 q 361 172 361 150 q 370 208 361 192 q 394 235 380 224 q 427 255 409 247 q 464 267 446 263 q 504 260 485 266 q 536 243 522 254 q 557 217 549 233 q 565 181 565 201 q 557 136 565 156 q 533 98 548 115 q 499 65 519 80 q 458 36 480 49 l 529 36 q 547 38 540 36 q 559 42 554 39 q 569 52 565 46 q 579 69 574 59 l 586 67 z "},"":{"ha":603,"x_min":31,"x_max":586,"o":"m 256 321 q 244 277 256 297 q 215 242 233 257 q 174 218 197 227 q 125 207 150 209 q 71 222 94 210 q 31 254 47 234 l 60 286 l 69 286 q 102 254 85 265 q 147 240 119 242 q 193 257 176 244 q 210 301 210 271 q 190 343 210 330 q 146 357 171 357 q 122 355 133 357 q 100 344 110 352 l 92 361 q 120 380 106 373 q 151 389 135 387 q 170 399 162 392 q 179 421 179 406 q 174 440 179 433 q 161 452 169 448 q 142 459 153 457 q 121 461 132 460 q 94 453 106 459 q 82 431 82 447 q 84 421 82 424 q 88 414 85 417 l 88 410 l 54 397 q 48 408 51 401 q 46 425 46 415 q 55 450 46 438 q 79 471 65 462 q 110 486 93 480 q 140 493 126 492 q 170 489 155 492 q 197 478 185 485 q 216 461 208 472 q 224 438 224 451 q 215 408 224 421 q 192 388 206 396 q 237 365 219 382 q 256 321 256 347 m 475 490 l 219 -30 l 188 -30 l 175 -23 l 431 497 l 463 497 l 475 490 m 586 101 q 577 78 580 92 q 572 56 574 64 l 568 53 l 536 53 q 538 31 537 39 q 544 18 540 23 q 556 9 548 13 q 575 0 563 5 l 571 -9 q 544 -2 555 -3 q 518 0 534 0 l 507 0 q 480 -2 491 0 q 453 -9 469 -3 l 450 0 q 469 9 462 5 q 481 18 476 13 q 486 31 485 23 q 489 53 488 39 l 358 53 l 353 67 q 379 123 362 94 q 417 178 396 152 q 464 227 439 204 q 515 265 489 249 l 536 256 l 536 90 l 546 90 q 567 95 560 90 q 579 107 574 101 l 586 101 m 489 90 l 489 214 q 437 157 460 189 q 403 90 415 125 l 489 90 z "},"":{"ha":308,"x_min":11,"x_max":294,"o":"m 204 242 l 165 197 l 115 238 q 134 264 122 250 q 156 286 146 278 l 160 286 q 168 275 163 281 q 179 264 173 269 q 192 253 185 258 q 204 246 199 248 l 204 242 m 294 -163 q 282 -214 294 -190 q 250 -258 269 -237 q 207 -294 231 -278 q 161 -319 183 -310 q 100 -309 128 -319 q 52 -282 72 -300 q 22 -238 33 -265 q 11 -177 11 -212 q 22 -116 11 -143 q 48 -66 32 -89 q 82 -26 64 -44 q 116 9 100 -8 q 142 40 132 25 q 153 69 153 54 q 136 106 153 87 l 181 142 l 186 142 q 201 118 197 130 q 206 94 206 106 q 195 61 206 77 q 169 28 185 44 q 135 -7 153 11 q 101 -46 117 -25 q 74 -92 85 -67 q 64 -147 64 -117 q 99 -243 64 -208 q 194 -280 133 -278 q 213 -264 204 -273 q 229 -243 222 -254 q 240 -219 236 -231 q 244 -194 244 -206 q 241 -170 244 -181 q 231 -149 237 -159 l 231 -147 l 278 -116 q 290 -138 285 -126 q 294 -163 294 -149 z "},"":{"ha":556,"x_min":28,"x_max":528,"o":"m 528 -149 l 28 -149 l 28 833 l 528 833 l 528 -149 m 486 -110 l 486 794 l 69 794 l 69 -110 l 486 -110 m 379 673 q 353 604 379 626 q 282 581 328 581 l 165 581 l 165 589 l 185 589 l 185 757 l 165 757 l 165 764 l 282 764 q 353 741 328 764 q 379 673 379 719 m 360 363 l 178 363 l 178 370 l 199 370 l 199 538 l 178 538 l 178 545 l 356 545 l 356 482 l 348 482 q 328 523 342 508 q 285 538 314 538 l 275 538 l 275 459 l 276 459 q 300 468 291 459 q 310 495 308 477 l 318 495 l 318 415 l 310 415 q 300 443 308 433 q 276 452 291 452 l 275 452 l 275 370 l 289 370 q 332 389 318 370 q 352 433 346 408 l 360 433 l 360 363 m 397 143 l 280 143 l 280 151 l 301 151 l 301 307 l 244 143 l 234 143 l 179 306 l 179 172 q 184 155 179 160 q 205 151 189 151 l 205 143 l 146 143 l 146 151 q 165 155 160 151 q 169 172 169 159 l 169 319 l 147 319 l 147 326 l 245 326 l 272 249 l 298 326 l 397 326 l 397 319 l 376 319 l 376 151 l 397 151 l 397 143 m 372 15 q 365 -23 372 -6 q 344 -53 357 -40 q 313 -73 331 -66 q 273 -80 294 -80 q 233 -73 251 -80 q 202 -52 215 -65 q 181 -22 189 -40 q 174 15 174 -5 q 181 53 174 35 q 202 83 189 70 q 233 103 215 96 q 273 110 251 110 q 312 103 294 110 q 344 84 331 97 q 365 53 357 71 q 372 15 372 36 m 297 620 l 297 722 q 292 750 297 742 q 267 757 286 757 l 263 757 l 263 589 l 267 589 q 291 595 285 589 q 297 620 297 602 m 291 -41 l 291 72 q 288 93 291 83 q 273 103 285 103 q 258 93 261 103 q 256 72 256 83 l 256 -41 q 258 -63 256 -53 q 273 -73 261 -73 q 288 -63 285 -73 q 291 -41 291 -53 z "},"":{"ha":556,"x_min":28,"x_max":528,"o":"m 528 -149 l 28 -149 l 28 833 l 528 833 l 528 -149 m 486 -110 l 486 794 l 69 794 l 69 -110 l 486 -110 m 379 673 q 353 604 379 626 q 282 581 328 581 l 165 581 l 165 589 l 185 589 l 185 757 l 165 757 l 165 764 l 282 764 q 353 741 328 764 q 379 673 379 719 m 360 363 l 178 363 l 178 370 l 199 370 l 199 538 l 178 538 l 178 545 l 356 545 l 356 482 l 348 482 q 328 523 342 508 q 285 538 314 538 l 275 538 l 275 459 l 276 459 q 300 468 291 459 q 310 495 308 477 l 318 495 l 318 415 l 310 415 q 300 443 308 433 q 276 452 291 452 l 275 452 l 275 370 l 289 370 q 332 389 318 370 q 352 433 346 408 l 360 433 l 360 363 m 397 143 l 280 143 l 280 151 l 301 151 l 301 307 l 244 143 l 234 143 l 179 306 l 179 172 q 184 155 179 160 q 205 151 189 151 l 205 143 l 146 143 l 146 151 q 165 155 160 151 q 169 172 169 159 l 169 319 l 147 319 l 147 326 l 245 326 l 272 249 l 298 326 l 397 326 l 397 319 l 376 319 l 376 151 l 397 151 l 397 143 m 372 15 q 365 -23 372 -6 q 344 -53 357 -40 q 313 -73 331 -66 q 273 -80 294 -80 q 233 -73 251 -80 q 202 -52 215 -65 q 181 -22 189 -40 q 174 15 174 -5 q 181 53 174 35 q 202 83 189 70 q 233 103 215 96 q 273 110 251 110 q 312 103 294 110 q 344 84 331 97 q 365 53 357 71 q 372 15 372 36 m 297 620 l 297 722 q 292 750 297 742 q 267 757 286 757 l 263 757 l 263 589 l 267 589 q 291 595 285 589 q 297 620 297 602 m 291 -41 l 291 72 q 288 93 291 83 q 273 103 285 103 q 258 93 261 103 q 256 72 256 83 l 256 -41 q 258 -63 256 -53 q 273 -73 261 -73 q 288 -63 285 -73 q 291 -41 291 -53 z "},"":{"ha":556,"x_min":28,"x_max":528,"o":"m 528 -149 l 28 -149 l 28 833 l 528 833 l 528 -149 m 486 -110 l 486 794 l 69 794 l 69 -110 l 486 -110 m 379 673 q 353 604 379 626 q 282 581 328 581 l 165 581 l 165 589 l 185 589 l 185 757 l 165 757 l 165 764 l 282 764 q 353 741 328 764 q 379 673 379 719 m 360 363 l 178 363 l 178 370 l 199 370 l 199 538 l 178 538 l 178 545 l 356 545 l 356 482 l 348 482 q 328 523 342 508 q 285 538 314 538 l 275 538 l 275 459 l 276 459 q 300 468 291 459 q 310 495 308 477 l 318 495 l 318 415 l 310 415 q 300 443 308 433 q 276 452 291 452 l 275 452 l 275 370 l 289 370 q 332 389 318 370 q 352 433 346 408 l 360 433 l 360 363 m 397 143 l 280 143 l 280 151 l 301 151 l 301 307 l 244 143 l 234 143 l 179 306 l 179 172 q 184 155 179 160 q 205 151 189 151 l 205 143 l 146 143 l 146 151 q 165 155 160 151 q 169 172 169 159 l 169 319 l 147 319 l 147 326 l 245 326 l 272 249 l 298 326 l 397 326 l 397 319 l 376 319 l 376 151 l 397 151 l 397 143 m 372 15 q 365 -23 372 -6 q 344 -53 357 -40 q 313 -73 331 -66 q 273 -80 294 -80 q 233 -73 251 -80 q 202 -52 215 -65 q 181 -22 189 -40 q 174 15 174 -5 q 181 53 174 35 q 202 83 189 70 q 233 103 215 96 q 273 110 251 110 q 312 103 294 110 q 344 84 331 97 q 365 53 357 71 q 372 15 372 36 m 297 620 l 297 722 q 292 750 297 742 q 267 757 286 757 l 263 757 l 263 589 l 267 589 q 291 595 285 589 q 297 620 297 602 m 291 -41 l 291 72 q 288 93 291 83 q 273 103 285 103 q 258 93 261 103 q 256 72 256 83 l 256 -41 q 258 -63 256 -53 q 273 -73 261 -73 q 288 -63 285 -73 q 291 -41 291 -53 z "},"":{"ha":556,"x_min":28,"x_max":528,"o":"m 528 -149 l 28 -149 l 28 833 l 528 833 l 528 -149 m 486 -110 l 486 794 l 69 794 l 69 -110 l 486 -110 m 379 673 q 353 604 379 626 q 282 581 328 581 l 165 581 l 165 589 l 185 589 l 185 757 l 165 757 l 165 764 l 282 764 q 353 741 328 764 q 379 673 379 719 m 360 363 l 178 363 l 178 370 l 199 370 l 199 538 l 178 538 l 178 545 l 356 545 l 356 482 l 348 482 q 328 523 342 508 q 285 538 314 538 l 275 538 l 275 459 l 276 459 q 300 468 291 459 q 310 495 308 477 l 318 495 l 318 415 l 310 415 q 300 443 308 433 q 276 452 291 452 l 275 452 l 275 370 l 289 370 q 332 389 318 370 q 352 433 346 408 l 360 433 l 360 363 m 397 143 l 280 143 l 280 151 l 301 151 l 301 307 l 244 143 l 234 143 l 179 306 l 179 172 q 184 155 179 160 q 205 151 189 151 l 205 143 l 146 143 l 146 151 q 165 155 160 151 q 169 172 169 159 l 169 319 l 147 319 l 147 326 l 245 326 l 272 249 l 298 326 l 397 326 l 397 319 l 376 319 l 376 151 l 397 151 l 397 143 m 372 15 q 365 -23 372 -6 q 344 -53 357 -40 q 313 -73 331 -66 q 273 -80 294 -80 q 233 -73 251 -80 q 202 -52 215 -65 q 181 -22 189 -40 q 174 15 174 -5 q 181 53 174 35 q 202 83 189 70 q 233 103 215 96 q 273 110 251 110 q 312 103 294 110 q 344 84 331 97 q 365 53 357 71 q 372 15 372 36 m 297 620 l 297 722 q 292 750 297 742 q 267 757 286 757 l 263 757 l 263 589 l 267 589 q 291 595 285 589 q 297 620 297 602 m 291 -41 l 291 72 q 288 93 291 83 q 273 103 285 103 q 258 93 261 103 q 256 72 256 83 l 256 -41 q 258 -63 256 -53 q 273 -73 261 -73 q 288 -63 285 -73 q 291 -41 291 -53 z "},"":{"ha":556,"x_min":28,"x_max":528,"o":"m 528 -149 l 28 -149 l 28 833 l 528 833 l 528 -149 m 486 -110 l 486 794 l 69 794 l 69 -110 l 486 -110 m 379 673 q 353 604 379 626 q 282 581 328 581 l 165 581 l 165 589 l 185 589 l 185 757 l 165 757 l 165 764 l 282 764 q 353 741 328 764 q 379 673 379 719 m 360 363 l 178 363 l 178 370 l 199 370 l 199 538 l 178 538 l 178 545 l 356 545 l 356 482 l 348 482 q 328 523 342 508 q 285 538 314 538 l 275 538 l 275 459 l 276 459 q 300 468 291 459 q 310 495 308 477 l 318 495 l 318 415 l 310 415 q 300 443 308 433 q 276 452 291 452 l 275 452 l 275 370 l 289 370 q 332 389 318 370 q 352 433 346 408 l 360 433 l 360 363 m 397 143 l 280 143 l 280 151 l 301 151 l 301 307 l 244 143 l 234 143 l 179 306 l 179 172 q 184 155 179 160 q 205 151 189 151 l 205 143 l 146 143 l 146 151 q 165 155 160 151 q 169 172 169 159 l 169 319 l 147 319 l 147 326 l 245 326 l 272 249 l 298 326 l 397 326 l 397 319 l 376 319 l 376 151 l 397 151 l 397 143 m 372 15 q 365 -23 372 -6 q 344 -53 357 -40 q 313 -73 331 -66 q 273 -80 294 -80 q 233 -73 251 -80 q 202 -52 215 -65 q 181 -22 189 -40 q 174 15 174 -5 q 181 53 174 35 q 202 83 189 70 q 233 103 215 96 q 273 110 251 110 q 312 103 294 110 q 344 84 331 97 q 365 53 357 71 q 372 15 372 36 m 297 620 l 297 722 q 292 750 297 742 q 267 757 286 757 l 263 757 l 263 589 l 267 589 q 291 595 285 589 q 297 620 297 602 m 291 -41 l 291 72 q 288 93 291 83 q 273 103 285 103 q 258 93 261 103 q 256 72 256 83 l 256 -41 q 258 -63 256 -53 q 273 -73 261 -73 q 288 -63 285 -73 q 291 -41 291 -53 z "},"":{"ha":556,"x_min":28,"x_max":528,"o":"m 528 -149 l 28 -149 l 28 833 l 528 833 l 528 -149 m 486 -110 l 486 794 l 69 794 l 69 -110 l 486 -110 m 379 673 q 353 604 379 626 q 282 581 328 581 l 165 581 l 165 589 l 185 589 l 185 757 l 165 757 l 165 764 l 282 764 q 353 741 328 764 q 379 673 379 719 m 360 363 l 178 363 l 178 370 l 199 370 l 199 538 l 178 538 l 178 545 l 356 545 l 356 482 l 348 482 q 328 523 342 508 q 285 538 314 538 l 275 538 l 275 459 l 276 459 q 300 468 291 459 q 310 495 308 477 l 318 495 l 318 415 l 310 415 q 300 443 308 433 q 276 452 291 452 l 275 452 l 275 370 l 289 370 q 332 389 318 370 q 352 433 346 408 l 360 433 l 360 363 m 397 143 l 280 143 l 280 151 l 301 151 l 301 307 l 244 143 l 234 143 l 179 306 l 179 172 q 184 155 179 160 q 205 151 189 151 l 205 143 l 146 143 l 146 151 q 165 155 160 151 q 169 172 169 159 l 169 319 l 147 319 l 147 326 l 245 326 l 272 249 l 298 326 l 397 326 l 397 319 l 376 319 l 376 151 l 397 151 l 397 143 m 372 15 q 365 -23 372 -6 q 344 -53 357 -40 q 313 -73 331 -66 q 273 -80 294 -80 q 233 -73 251 -80 q 202 -52 215 -65 q 181 -22 189 -40 q 174 15 174 -5 q 181 53 174 35 q 202 83 189 70 q 233 103 215 96 q 273 110 251 110 q 312 103 294 110 q 344 84 331 97 q 365 53 357 71 q 372 15 372 36 m 297 620 l 297 722 q 292 750 297 742 q 267 757 286 757 l 263 757 l 263 589 l 267 589 q 291 595 285 589 q 297 620 297 602 m 291 -41 l 291 72 q 288 93 291 83 q 273 103 285 103 q 258 93 261 103 q 256 72 256 83 l 256 -41 q 258 -63 256 -53 q 273 -73 261 -73 q 288 -63 285 -73 q 291 -41 291 -53 z "},"":{"ha":781,"x_min":-2,"x_max":767,"o":"m 204 219 l 403 219 l 403 544 l 350 544 l 204 219 m 403 186 l 189 186 l 160 122 q 137 69 145 90 q 129 36 129 49 q 138 13 129 22 q 167 -5 147 4 l 164 -13 q 127 -3 143 -7 q 90 0 111 0 l 74 0 q 37 -3 53 0 q 0 -13 21 -7 l -2 -5 q 33 15 19 6 q 60 38 48 24 q 85 70 73 51 q 113 122 97 90 l 303 522 q 308 540 308 532 q 300 558 308 551 q 256 583 286 571 l 258 592 q 300 582 279 585 q 342 578 321 578 l 597 578 q 630 578 615 578 q 658 580 644 578 q 684 585 672 582 q 708 596 696 589 l 714 590 q 709 569 710 579 q 707 549 708 560 q 706 526 706 539 l 706 460 l 696 460 q 684 505 693 488 q 657 530 675 522 q 612 542 640 539 q 544 544 584 544 l 467 544 l 467 313 l 592 313 q 617 314 607 313 q 636 320 628 316 q 651 332 644 324 l 658 328 q 653 279 654 305 q 653 232 653 253 l 653 221 l 643 221 q 633 252 640 240 q 612 270 626 264 q 576 277 598 276 q 525 279 555 279 l 467 279 l 467 33 l 567 33 q 643 39 613 33 q 695 57 674 44 q 730 89 716 69 q 754 136 743 108 l 767 132 q 747 43 752 80 q 739 -13 741 7 l 733 -17 q 678 -3 706 -6 q 614 0 649 0 l 436 0 q 390 -3 411 0 q 349 -13 369 -7 l 346 -5 q 378 12 367 4 q 395 35 390 19 q 402 76 401 50 q 403 150 403 103 l 403 186 z "},"":{"ha":556,"x_min":28,"x_max":528,"o":"m 528 -149 l 28 -149 l 28 833 l 528 833 l 528 -149 m 486 -110 l 486 794 l 69 794 l 69 -110 l 486 -110 m 379 673 q 353 604 379 626 q 282 581 328 581 l 165 581 l 165 589 l 185 589 l 185 757 l 165 757 l 165 764 l 282 764 q 353 741 328 764 q 379 673 379 719 m 360 363 l 178 363 l 178 370 l 199 370 l 199 538 l 178 538 l 178 545 l 356 545 l 356 482 l 348 482 q 328 523 342 508 q 285 538 314 538 l 275 538 l 275 459 l 276 459 q 300 468 291 459 q 310 495 308 477 l 318 495 l 318 415 l 310 415 q 300 443 308 433 q 276 452 291 452 l 275 452 l 275 370 l 289 370 q 332 389 318 370 q 352 433 346 408 l 360 433 l 360 363 m 397 143 l 280 143 l 280 151 l 301 151 l 301 307 l 244 143 l 234 143 l 179 306 l 179 172 q 184 155 179 160 q 205 151 189 151 l 205 143 l 146 143 l 146 151 q 165 155 160 151 q 169 172 169 159 l 169 319 l 147 319 l 147 326 l 245 326 l 272 249 l 298 326 l 397 326 l 397 319 l 376 319 l 376 151 l 397 151 l 397 143 m 372 15 q 365 -23 372 -6 q 344 -53 357 -40 q 313 -73 331 -66 q 273 -80 294 -80 q 233 -73 251 -80 q 202 -52 215 -65 q 181 -22 189 -40 q 174 15 174 -5 q 181 53 174 35 q 202 83 189 70 q 233 103 215 96 q 273 110 251 110 q 312 103 294 110 q 344 84 331 97 q 365 53 357 71 q 372 15 372 36 m 297 620 l 297 722 q 292 750 297 742 q 267 757 286 757 l 263 757 l 263 589 l 267 589 q 291 595 285 589 q 297 620 297 602 m 291 -41 l 291 72 q 288 93 291 83 q 273 103 285 103 q 258 93 261 103 q 256 72 256 83 l 256 -41 q 258 -63 256 -53 q 273 -73 261 -73 q 288 -63 285 -73 q 291 -41 291 -53 z "},"":{"ha":556,"x_min":28,"x_max":528,"o":"m 528 -149 l 28 -149 l 28 833 l 528 833 l 528 -149 m 486 -110 l 486 794 l 69 794 l 69 -110 l 486 -110 m 379 673 q 353 604 379 626 q 282 581 328 581 l 165 581 l 165 589 l 185 589 l 185 757 l 165 757 l 165 764 l 282 764 q 353 741 328 764 q 379 673 379 719 m 360 363 l 178 363 l 178 370 l 199 370 l 199 538 l 178 538 l 178 545 l 356 545 l 356 482 l 348 482 q 328 523 342 508 q 285 538 314 538 l 275 538 l 275 459 l 276 459 q 300 468 291 459 q 310 495 308 477 l 318 495 l 318 415 l 310 415 q 300 443 308 433 q 276 452 291 452 l 275 452 l 275 370 l 289 370 q 332 389 318 370 q 352 433 346 408 l 360 433 l 360 363 m 397 143 l 280 143 l 280 151 l 301 151 l 301 307 l 244 143 l 234 143 l 179 306 l 179 172 q 184 155 179 160 q 205 151 189 151 l 205 143 l 146 143 l 146 151 q 165 155 160 151 q 169 172 169 159 l 169 319 l 147 319 l 147 326 l 245 326 l 272 249 l 298 326 l 397 326 l 397 319 l 376 319 l 376 151 l 397 151 l 397 143 m 372 15 q 365 -23 372 -6 q 344 -53 357 -40 q 313 -73 331 -66 q 273 -80 294 -80 q 233 -73 251 -80 q 202 -52 215 -65 q 181 -22 189 -40 q 174 15 174 -5 q 181 53 174 35 q 202 83 189 70 q 233 103 215 96 q 273 110 251 110 q 312 103 294 110 q 344 84 331 97 q 365 53 357 71 q 372 15 372 36 m 297 620 l 297 722 q 292 750 297 742 q 267 757 286 757 l 263 757 l 263 589 l 267 589 q 291 595 285 589 q 297 620 297 602 m 291 -41 l 291 72 q 288 93 291 83 q 273 103 285 103 q 258 93 261 103 q 256 72 256 83 l 256 -41 q 258 -63 256 -53 q 273 -73 261 -73 q 288 -63 285 -73 q 291 -41 291 -53 z "},"":{"ha":556,"x_min":28,"x_max":528,"o":"m 528 -149 l 28 -149 l 28 833 l 528 833 l 528 -149 m 486 -110 l 486 794 l 69 794 l 69 -110 l 486 -110 m 379 673 q 353 604 379 626 q 282 581 328 581 l 165 581 l 165 589 l 185 589 l 185 757 l 165 757 l 165 764 l 282 764 q 353 741 328 764 q 379 673 379 719 m 360 363 l 178 363 l 178 370 l 199 370 l 199 538 l 178 538 l 178 545 l 356 545 l 356 482 l 348 482 q 328 523 342 508 q 285 538 314 538 l 275 538 l 275 459 l 276 459 q 300 468 291 459 q 310 495 308 477 l 318 495 l 318 415 l 310 415 q 300 443 308 433 q 276 452 291 452 l 275 452 l 275 370 l 289 370 q 332 389 318 370 q 352 433 346 408 l 360 433 l 360 363 m 397 143 l 280 143 l 280 151 l 301 151 l 301 307 l 244 143 l 234 143 l 179 306 l 179 172 q 184 155 179 160 q 205 151 189 151 l 205 143 l 146 143 l 146 151 q 165 155 160 151 q 169 172 169 159 l 169 319 l 147 319 l 147 326 l 245 326 l 272 249 l 298 326 l 397 326 l 397 319 l 376 319 l 376 151 l 397 151 l 397 143 m 372 15 q 365 -23 372 -6 q 344 -53 357 -40 q 313 -73 331 -66 q 273 -80 294 -80 q 233 -73 251 -80 q 202 -52 215 -65 q 181 -22 189 -40 q 174 15 174 -5 q 181 53 174 35 q 202 83 189 70 q 233 103 215 96 q 273 110 251 110 q 312 103 294 110 q 344 84 331 97 q 365 53 357 71 q 372 15 372 36 m 297 620 l 297 722 q 292 750 297 742 q 267 757 286 757 l 263 757 l 263 589 l 267 589 q 291 595 285 589 q 297 620 297 602 m 291 -41 l 291 72 q 288 93 291 83 q 273 103 285 103 q 258 93 261 103 q 256 72 256 83 l 256 -41 q 258 -63 256 -53 q 273 -73 261 -73 q 288 -63 285 -73 q 291 -41 291 -53 z "},"":{"ha":556,"x_min":28,"x_max":528,"o":"m 528 -149 l 28 -149 l 28 833 l 528 833 l 528 -149 m 486 -110 l 486 794 l 69 794 l 69 -110 l 486 -110 m 379 673 q 353 604 379 626 q 282 581 328 581 l 165 581 l 165 589 l 185 589 l 185 757 l 165 757 l 165 764 l 282 764 q 353 741 328 764 q 379 673 379 719 m 360 363 l 178 363 l 178 370 l 199 370 l 199 538 l 178 538 l 178 545 l 356 545 l 356 482 l 348 482 q 328 523 342 508 q 285 538 314 538 l 275 538 l 275 459 l 276 459 q 300 468 291 459 q 310 495 308 477 l 318 495 l 318 415 l 310 415 q 300 443 308 433 q 276 452 291 452 l 275 452 l 275 370 l 289 370 q 332 389 318 370 q 352 433 346 408 l 360 433 l 360 363 m 397 143 l 280 143 l 280 151 l 301 151 l 301 307 l 244 143 l 234 143 l 179 306 l 179 172 q 184 155 179 160 q 205 151 189 151 l 205 143 l 146 143 l 146 151 q 165 155 160 151 q 169 172 169 159 l 169 319 l 147 319 l 147 326 l 245 326 l 272 249 l 298 326 l 397 326 l 397 319 l 376 319 l 376 151 l 397 151 l 397 143 m 372 15 q 365 -23 372 -6 q 344 -53 357 -40 q 313 -73 331 -66 q 273 -80 294 -80 q 233 -73 251 -80 q 202 -52 215 -65 q 181 -22 189 -40 q 174 15 174 -5 q 181 53 174 35 q 202 83 189 70 q 233 103 215 96 q 273 110 251 110 q 312 103 294 110 q 344 84 331 97 q 365 53 357 71 q 372 15 372 36 m 297 620 l 297 722 q 292 750 297 742 q 267 757 286 757 l 263 757 l 263 589 l 267 589 q 291 595 285 589 q 297 620 297 602 m 291 -41 l 291 72 q 288 93 291 83 q 273 103 285 103 q 258 93 261 103 q 256 72 256 83 l 256 -41 q 258 -63 256 -53 q 273 -73 261 -73 q 288 -63 285 -73 q 291 -41 291 -53 z "},"":{"ha":556,"x_min":28,"x_max":528,"o":"m 528 -149 l 28 -149 l 28 833 l 528 833 l 528 -149 m 486 -110 l 486 794 l 69 794 l 69 -110 l 486 -110 m 379 673 q 353 604 379 626 q 282 581 328 581 l 165 581 l 165 589 l 185 589 l 185 757 l 165 757 l 165 764 l 282 764 q 353 741 328 764 q 379 673 379 719 m 360 363 l 178 363 l 178 370 l 199 370 l 199 538 l 178 538 l 178 545 l 356 545 l 356 482 l 348 482 q 328 523 342 508 q 285 538 314 538 l 275 538 l 275 459 l 276 459 q 300 468 291 459 q 310 495 308 477 l 318 495 l 318 415 l 310 415 q 300 443 308 433 q 276 452 291 452 l 275 452 l 275 370 l 289 370 q 332 389 318 370 q 352 433 346 408 l 360 433 l 360 363 m 397 143 l 280 143 l 280 151 l 301 151 l 301 307 l 244 143 l 234 143 l 179 306 l 179 172 q 184 155 179 160 q 205 151 189 151 l 205 143 l 146 143 l 146 151 q 165 155 160 151 q 169 172 169 159 l 169 319 l 147 319 l 147 326 l 245 326 l 272 249 l 298 326 l 397 326 l 397 319 l 376 319 l 376 151 l 397 151 l 397 143 m 372 15 q 365 -23 372 -6 q 344 -53 357 -40 q 313 -73 331 -66 q 273 -80 294 -80 q 233 -73 251 -80 q 202 -52 215 -65 q 181 -22 189 -40 q 174 15 174 -5 q 181 53 174 35 q 202 83 189 70 q 233 103 215 96 q 273 110 251 110 q 312 103 294 110 q 344 84 331 97 q 365 53 357 71 q 372 15 372 36 m 297 620 l 297 722 q 292 750 297 742 q 267 757 286 757 l 263 757 l 263 589 l 267 589 q 291 595 285 589 q 297 620 297 602 m 291 -41 l 291 72 q 288 93 291 83 q 273 103 285 103 q 258 93 261 103 q 256 72 256 83 l 256 -41 q 258 -63 256 -53 q 273 -73 261 -73 q 288 -63 285 -73 q 291 -41 291 -53 z "},"":{"ha":556,"x_min":28,"x_max":528,"o":"m 528 -149 l 28 -149 l 28 833 l 528 833 l 528 -149 m 486 -110 l 486 794 l 69 794 l 69 -110 l 486 -110 m 379 673 q 353 604 379 626 q 282 581 328 581 l 165 581 l 165 589 l 185 589 l 185 757 l 165 757 l 165 764 l 282 764 q 353 741 328 764 q 379 673 379 719 m 360 363 l 178 363 l 178 370 l 199 370 l 199 538 l 178 538 l 178 545 l 356 545 l 356 482 l 348 482 q 328 523 342 508 q 285 538 314 538 l 275 538 l 275 459 l 276 459 q 300 468 291 459 q 310 495 308 477 l 318 495 l 318 415 l 310 415 q 300 443 308 433 q 276 452 291 452 l 275 452 l 275 370 l 289 370 q 332 389 318 370 q 352 433 346 408 l 360 433 l 360 363 m 397 143 l 280 143 l 280 151 l 301 151 l 301 307 l 244 143 l 234 143 l 179 306 l 179 172 q 184 155 179 160 q 205 151 189 151 l 205 143 l 146 143 l 146 151 q 165 155 160 151 q 169 172 169 159 l 169 319 l 147 319 l 147 326 l 245 326 l 272 249 l 298 326 l 397 326 l 397 319 l 376 319 l 376 151 l 397 151 l 397 143 m 372 15 q 365 -23 372 -6 q 344 -53 357 -40 q 313 -73 331 -66 q 273 -80 294 -80 q 233 -73 251 -80 q 202 -52 215 -65 q 181 -22 189 -40 q 174 15 174 -5 q 181 53 174 35 q 202 83 189 70 q 233 103 215 96 q 273 110 251 110 q 312 103 294 110 q 344 84 331 97 q 365 53 357 71 q 372 15 372 36 m 297 620 l 297 722 q 292 750 297 742 q 267 757 286 757 l 263 757 l 263 589 l 267 589 q 291 595 285 589 q 297 620 297 602 m 291 -41 l 291 72 q 288 93 291 83 q 273 103 285 103 q 258 93 261 103 q 256 72 256 83 l 256 -41 q 258 -63 256 -53 q 273 -73 261 -73 q 288 -63 285 -73 q 291 -41 291 -53 z "},"":{"ha":556,"x_min":28,"x_max":528,"o":"m 528 -149 l 28 -149 l 28 833 l 528 833 l 528 -149 m 486 -110 l 486 794 l 69 794 l 69 -110 l 486 -110 m 379 673 q 353 604 379 626 q 282 581 328 581 l 165 581 l 165 589 l 185 589 l 185 757 l 165 757 l 165 764 l 282 764 q 353 741 328 764 q 379 673 379 719 m 360 363 l 178 363 l 178 370 l 199 370 l 199 538 l 178 538 l 178 545 l 356 545 l 356 482 l 348 482 q 328 523 342 508 q 285 538 314 538 l 275 538 l 275 459 l 276 459 q 300 468 291 459 q 310 495 308 477 l 318 495 l 318 415 l 310 415 q 300 443 308 433 q 276 452 291 452 l 275 452 l 275 370 l 289 370 q 332 389 318 370 q 352 433 346 408 l 360 433 l 360 363 m 397 143 l 280 143 l 280 151 l 301 151 l 301 307 l 244 143 l 234 143 l 179 306 l 179 172 q 184 155 179 160 q 205 151 189 151 l 205 143 l 146 143 l 146 151 q 165 155 160 151 q 169 172 169 159 l 169 319 l 147 319 l 147 326 l 245 326 l 272 249 l 298 326 l 397 326 l 397 319 l 376 319 l 376 151 l 397 151 l 397 143 m 372 15 q 365 -23 372 -6 q 344 -53 357 -40 q 313 -73 331 -66 q 273 -80 294 -80 q 233 -73 251 -80 q 202 -52 215 -65 q 181 -22 189 -40 q 174 15 174 -5 q 181 53 174 35 q 202 83 189 70 q 233 103 215 96 q 273 110 251 110 q 312 103 294 110 q 344 84 331 97 q 365 53 357 71 q 372 15 372 36 m 297 620 l 297 722 q 292 750 297 742 q 267 757 286 757 l 263 757 l 263 589 l 267 589 q 291 595 285 589 q 297 620 297 602 m 291 -41 l 291 72 q 288 93 291 83 q 273 103 285 103 q 258 93 261 103 q 256 72 256 83 l 256 -41 q 258 -63 256 -53 q 273 -73 261 -73 q 288 -63 285 -73 q 291 -41 291 -53 z "},"":{"ha":556,"x_min":28,"x_max":528,"o":"m 528 -149 l 28 -149 l 28 833 l 528 833 l 528 -149 m 486 -110 l 486 794 l 69 794 l 69 -110 l 486 -110 m 379 673 q 353 604 379 626 q 282 581 328 581 l 165 581 l 165 589 l 185 589 l 185 757 l 165 757 l 165 764 l 282 764 q 353 741 328 764 q 379 673 379 719 m 360 363 l 178 363 l 178 370 l 199 370 l 199 538 l 178 538 l 178 545 l 356 545 l 356 482 l 348 482 q 328 523 342 508 q 285 538 314 538 l 275 538 l 275 459 l 276 459 q 300 468 291 459 q 310 495 308 477 l 318 495 l 318 415 l 310 415 q 300 443 308 433 q 276 452 291 452 l 275 452 l 275 370 l 289 370 q 332 389 318 370 q 352 433 346 408 l 360 433 l 360 363 m 397 143 l 280 143 l 280 151 l 301 151 l 301 307 l 244 143 l 234 143 l 179 306 l 179 172 q 184 155 179 160 q 205 151 189 151 l 205 143 l 146 143 l 146 151 q 165 155 160 151 q 169 172 169 159 l 169 319 l 147 319 l 147 326 l 245 326 l 272 249 l 298 326 l 397 326 l 397 319 l 376 319 l 376 151 l 397 151 l 397 143 m 372 15 q 365 -23 372 -6 q 344 -53 357 -40 q 313 -73 331 -66 q 273 -80 294 -80 q 233 -73 251 -80 q 202 -52 215 -65 q 181 -22 189 -40 q 174 15 174 -5 q 181 53 174 35 q 202 83 189 70 q 233 103 215 96 q 273 110 251 110 q 312 103 294 110 q 344 84 331 97 q 365 53 357 71 q 372 15 372 36 m 297 620 l 297 722 q 292 750 297 742 q 267 757 286 757 l 263 757 l 263 589 l 267 589 q 291 595 285 589 q 297 620 297 602 m 291 -41 l 291 72 q 288 93 291 83 q 273 103 285 103 q 258 93 261 103 q 256 72 256 83 l 256 -41 q 258 -63 256 -53 q 273 -73 261 -73 q 288 -63 285 -73 q 291 -41 291 -53 z "},"":{"ha":556,"x_min":28,"x_max":528,"o":"m 528 -149 l 28 -149 l 28 833 l 528 833 l 528 -149 m 486 -110 l 486 794 l 69 794 l 69 -110 l 486 -110 m 379 673 q 353 604 379 626 q 282 581 328 581 l 165 581 l 165 589 l 185 589 l 185 757 l 165 757 l 165 764 l 282 764 q 353 741 328 764 q 379 673 379 719 m 360 363 l 178 363 l 178 370 l 199 370 l 199 538 l 178 538 l 178 545 l 356 545 l 356 482 l 348 482 q 328 523 342 508 q 285 538 314 538 l 275 538 l 275 459 l 276 459 q 300 468 291 459 q 310 495 308 477 l 318 495 l 318 415 l 310 415 q 300 443 308 433 q 276 452 291 452 l 275 452 l 275 370 l 289 370 q 332 389 318 370 q 352 433 346 408 l 360 433 l 360 363 m 397 143 l 280 143 l 280 151 l 301 151 l 301 307 l 244 143 l 234 143 l 179 306 l 179 172 q 184 155 179 160 q 205 151 189 151 l 205 143 l 146 143 l 146 151 q 165 155 160 151 q 169 172 169 159 l 169 319 l 147 319 l 147 326 l 245 326 l 272 249 l 298 326 l 397 326 l 397 319 l 376 319 l 376 151 l 397 151 l 397 143 m 372 15 q 365 -23 372 -6 q 344 -53 357 -40 q 313 -73 331 -66 q 273 -80 294 -80 q 233 -73 251 -80 q 202 -52 215 -65 q 181 -22 189 -40 q 174 15 174 -5 q 181 53 174 35 q 202 83 189 70 q 233 103 215 96 q 273 110 251 110 q 312 103 294 110 q 344 84 331 97 q 365 53 357 71 q 372 15 372 36 m 297 620 l 297 722 q 292 750 297 742 q 267 757 286 757 l 263 757 l 263 589 l 267 589 q 291 595 285 589 q 297 620 297 602 m 291 -41 l 291 72 q 288 93 291 83 q 273 103 285 103 q 258 93 261 103 q 256 72 256 83 l 256 -41 q 258 -63 256 -53 q 273 -73 261 -73 q 288 -63 285 -73 q 291 -41 291 -53 z "},"":{"ha":575,"x_min":17,"x_max":547,"o":"m 547 311 q 528 195 547 250 q 473 96 509 140 q 385 23 437 52 q 269 -13 334 -6 q 192 -3 232 -6 q 113 0 152 0 q 67 -3 88 0 q 25 -13 46 -7 l 22 -5 q 55 12 43 4 q 72 35 66 19 q 78 76 77 50 q 79 150 79 103 l 79 281 l 17 281 l 17 289 l 22 311 l 79 311 l 79 428 q 78 501 79 474 q 72 543 77 528 q 55 566 66 558 q 22 583 43 574 l 25 592 q 67 582 46 585 q 113 578 88 578 q 198 582 156 578 q 278 592 240 586 q 391 566 341 588 q 476 509 442 545 q 529 423 510 473 q 547 311 547 373 m 489 272 q 471 381 489 331 q 419 468 453 431 q 338 526 386 504 q 229 553 290 549 q 143 533 188 538 l 143 311 l 272 311 l 272 303 l 267 281 l 143 281 l 143 47 q 190 50 167 50 q 230 48 210 50 q 317 33 272 43 q 396 62 363 40 q 449 116 428 84 q 480 189 470 149 q 489 272 489 228 z "},"":{"ha":556,"x_min":28,"x_max":528,"o":"m 528 -149 l 28 -149 l 28 833 l 528 833 l 528 -149 m 486 -110 l 486 794 l 69 794 l 69 -110 l 486 -110 m 379 673 q 353 604 379 626 q 282 581 328 581 l 165 581 l 165 589 l 185 589 l 185 757 l 165 757 l 165 764 l 282 764 q 353 741 328 764 q 379 673 379 719 m 360 363 l 178 363 l 178 370 l 199 370 l 199 538 l 178 538 l 178 545 l 356 545 l 356 482 l 348 482 q 328 523 342 508 q 285 538 314 538 l 275 538 l 275 459 l 276 459 q 300 468 291 459 q 310 495 308 477 l 318 495 l 318 415 l 310 415 q 300 443 308 433 q 276 452 291 452 l 275 452 l 275 370 l 289 370 q 332 389 318 370 q 352 433 346 408 l 360 433 l 360 363 m 397 143 l 280 143 l 280 151 l 301 151 l 301 307 l 244 143 l 234 143 l 179 306 l 179 172 q 184 155 179 160 q 205 151 189 151 l 205 143 l 146 143 l 146 151 q 165 155 160 151 q 169 172 169 159 l 169 319 l 147 319 l 147 326 l 245 326 l 272 249 l 298 326 l 397 326 l 397 319 l 376 319 l 376 151 l 397 151 l 397 143 m 372 15 q 365 -23 372 -6 q 344 -53 357 -40 q 313 -73 331 -66 q 273 -80 294 -80 q 233 -73 251 -80 q 202 -52 215 -65 q 181 -22 189 -40 q 174 15 174 -5 q 181 53 174 35 q 202 83 189 70 q 233 103 215 96 q 273 110 251 110 q 312 103 294 110 q 344 84 331 97 q 365 53 357 71 q 372 15 372 36 m 297 620 l 297 722 q 292 750 297 742 q 267 757 286 757 l 263 757 l 263 589 l 267 589 q 291 595 285 589 q 297 620 297 602 m 291 -41 l 291 72 q 288 93 291 83 q 273 103 285 103 q 258 93 261 103 q 256 72 256 83 l 256 -41 q 258 -63 256 -53 q 273 -73 261 -73 q 288 -63 285 -73 q 291 -41 291 -53 z "},"":{"ha":556,"x_min":28,"x_max":528,"o":"m 528 -149 l 28 -149 l 28 833 l 528 833 l 528 -149 m 486 -110 l 486 794 l 69 794 l 69 -110 l 486 -110 m 379 673 q 353 604 379 626 q 282 581 328 581 l 165 581 l 165 589 l 185 589 l 185 757 l 165 757 l 165 764 l 282 764 q 353 741 328 764 q 379 673 379 719 m 360 363 l 178 363 l 178 370 l 199 370 l 199 538 l 178 538 l 178 545 l 356 545 l 356 482 l 348 482 q 328 523 342 508 q 285 538 314 538 l 275 538 l 275 459 l 276 459 q 300 468 291 459 q 310 495 308 477 l 318 495 l 318 415 l 310 415 q 300 443 308 433 q 276 452 291 452 l 275 452 l 275 370 l 289 370 q 332 389 318 370 q 352 433 346 408 l 360 433 l 360 363 m 397 143 l 280 143 l 280 151 l 301 151 l 301 307 l 244 143 l 234 143 l 179 306 l 179 172 q 184 155 179 160 q 205 151 189 151 l 205 143 l 146 143 l 146 151 q 165 155 160 151 q 169 172 169 159 l 169 319 l 147 319 l 147 326 l 245 326 l 272 249 l 298 326 l 397 326 l 397 319 l 376 319 l 376 151 l 397 151 l 397 143 m 372 15 q 365 -23 372 -6 q 344 -53 357 -40 q 313 -73 331 -66 q 273 -80 294 -80 q 233 -73 251 -80 q 202 -52 215 -65 q 181 -22 189 -40 q 174 15 174 -5 q 181 53 174 35 q 202 83 189 70 q 233 103 215 96 q 273 110 251 110 q 312 103 294 110 q 344 84 331 97 q 365 53 357 71 q 372 15 372 36 m 297 620 l 297 722 q 292 750 297 742 q 267 757 286 757 l 263 757 l 263 589 l 267 589 q 291 595 285 589 q 297 620 297 602 m 291 -41 l 291 72 q 288 93 291 83 q 273 103 285 103 q 258 93 261 103 q 256 72 256 83 l 256 -41 q 258 -63 256 -53 q 273 -73 261 -73 q 288 -63 285 -73 q 291 -41 291 -53 z "},"":{"ha":556,"x_min":28,"x_max":528,"o":"m 528 -149 l 28 -149 l 28 833 l 528 833 l 528 -149 m 486 -110 l 486 794 l 69 794 l 69 -110 l 486 -110 m 379 673 q 353 604 379 626 q 282 581 328 581 l 165 581 l 165 589 l 185 589 l 185 757 l 165 757 l 165 764 l 282 764 q 353 741 328 764 q 379 673 379 719 m 360 363 l 178 363 l 178 370 l 199 370 l 199 538 l 178 538 l 178 545 l 356 545 l 356 482 l 348 482 q 328 523 342 508 q 285 538 314 538 l 275 538 l 275 459 l 276 459 q 300 468 291 459 q 310 495 308 477 l 318 495 l 318 415 l 310 415 q 300 443 308 433 q 276 452 291 452 l 275 452 l 275 370 l 289 370 q 332 389 318 370 q 352 433 346 408 l 360 433 l 360 363 m 397 143 l 280 143 l 280 151 l 301 151 l 301 307 l 244 143 l 234 143 l 179 306 l 179 172 q 184 155 179 160 q 205 151 189 151 l 205 143 l 146 143 l 146 151 q 165 155 160 151 q 169 172 169 159 l 169 319 l 147 319 l 147 326 l 245 326 l 272 249 l 298 326 l 397 326 l 397 319 l 376 319 l 376 151 l 397 151 l 397 143 m 372 15 q 365 -23 372 -6 q 344 -53 357 -40 q 313 -73 331 -66 q 273 -80 294 -80 q 233 -73 251 -80 q 202 -52 215 -65 q 181 -22 189 -40 q 174 15 174 -5 q 181 53 174 35 q 202 83 189 70 q 233 103 215 96 q 273 110 251 110 q 312 103 294 110 q 344 84 331 97 q 365 53 357 71 q 372 15 372 36 m 297 620 l 297 722 q 292 750 297 742 q 267 757 286 757 l 263 757 l 263 589 l 267 589 q 291 595 285 589 q 297 620 297 602 m 291 -41 l 291 72 q 288 93 291 83 q 273 103 285 103 q 258 93 261 103 q 256 72 256 83 l 256 -41 q 258 -63 256 -53 q 273 -73 261 -73 q 288 -63 285 -73 q 291 -41 291 -53 z "},"":{"ha":556,"x_min":28,"x_max":528,"o":"m 528 -149 l 28 -149 l 28 833 l 528 833 l 528 -149 m 486 -110 l 486 794 l 69 794 l 69 -110 l 486 -110 m 379 673 q 353 604 379 626 q 282 581 328 581 l 165 581 l 165 589 l 185 589 l 185 757 l 165 757 l 165 764 l 282 764 q 353 741 328 764 q 379 673 379 719 m 360 363 l 178 363 l 178 370 l 199 370 l 199 538 l 178 538 l 178 545 l 356 545 l 356 482 l 348 482 q 328 523 342 508 q 285 538 314 538 l 275 538 l 275 459 l 276 459 q 300 468 291 459 q 310 495 308 477 l 318 495 l 318 415 l 310 415 q 300 443 308 433 q 276 452 291 452 l 275 452 l 275 370 l 289 370 q 332 389 318 370 q 352 433 346 408 l 360 433 l 360 363 m 397 143 l 280 143 l 280 151 l 301 151 l 301 307 l 244 143 l 234 143 l 179 306 l 179 172 q 184 155 179 160 q 205 151 189 151 l 205 143 l 146 143 l 146 151 q 165 155 160 151 q 169 172 169 159 l 169 319 l 147 319 l 147 326 l 245 326 l 272 249 l 298 326 l 397 326 l 397 319 l 376 319 l 376 151 l 397 151 l 397 143 m 372 15 q 365 -23 372 -6 q 344 -53 357 -40 q 313 -73 331 -66 q 273 -80 294 -80 q 233 -73 251 -80 q 202 -52 215 -65 q 181 -22 189 -40 q 174 15 174 -5 q 181 53 174 35 q 202 83 189 70 q 233 103 215 96 q 273 110 251 110 q 312 103 294 110 q 344 84 331 97 q 365 53 357 71 q 372 15 372 36 m 297 620 l 297 722 q 292 750 297 742 q 267 757 286 757 l 263 757 l 263 589 l 267 589 q 291 595 285 589 q 297 620 297 602 m 291 -41 l 291 72 q 288 93 291 83 q 273 103 285 103 q 258 93 261 103 q 256 72 256 83 l 256 -41 q 258 -63 256 -53 q 273 -73 261 -73 q 288 -63 285 -73 q 291 -41 291 -53 z "},"":{"ha":556,"x_min":28,"x_max":528,"o":"m 528 -149 l 28 -149 l 28 833 l 528 833 l 528 -149 m 486 -110 l 486 794 l 69 794 l 69 -110 l 486 -110 m 379 673 q 353 604 379 626 q 282 581 328 581 l 165 581 l 165 589 l 185 589 l 185 757 l 165 757 l 165 764 l 282 764 q 353 741 328 764 q 379 673 379 719 m 360 363 l 178 363 l 178 370 l 199 370 l 199 538 l 178 538 l 178 545 l 356 545 l 356 482 l 348 482 q 328 523 342 508 q 285 538 314 538 l 275 538 l 275 459 l 276 459 q 300 468 291 459 q 310 495 308 477 l 318 495 l 318 415 l 310 415 q 300 443 308 433 q 276 452 291 452 l 275 452 l 275 370 l 289 370 q 332 389 318 370 q 352 433 346 408 l 360 433 l 360 363 m 397 143 l 280 143 l 280 151 l 301 151 l 301 307 l 244 143 l 234 143 l 179 306 l 179 172 q 184 155 179 160 q 205 151 189 151 l 205 143 l 146 143 l 146 151 q 165 155 160 151 q 169 172 169 159 l 169 319 l 147 319 l 147 326 l 245 326 l 272 249 l 298 326 l 397 326 l 397 319 l 376 319 l 376 151 l 397 151 l 397 143 m 372 15 q 365 -23 372 -6 q 344 -53 357 -40 q 313 -73 331 -66 q 273 -80 294 -80 q 233 -73 251 -80 q 202 -52 215 -65 q 181 -22 189 -40 q 174 15 174 -5 q 181 53 174 35 q 202 83 189 70 q 233 103 215 96 q 273 110 251 110 q 312 103 294 110 q 344 84 331 97 q 365 53 357 71 q 372 15 372 36 m 297 620 l 297 722 q 292 750 297 742 q 267 757 286 757 l 263 757 l 263 589 l 267 589 q 291 595 285 589 q 297 620 297 602 m 291 -41 l 291 72 q 288 93 291 83 q 273 103 285 103 q 258 93 261 103 q 256 72 256 83 l 256 -41 q 258 -63 256 -53 q 273 -73 261 -73 q 288 -63 285 -73 q 291 -41 291 -53 z "},"":{"ha":556,"x_min":28,"x_max":528,"o":"m 528 -149 l 28 -149 l 28 833 l 528 833 l 528 -149 m 486 -110 l 486 794 l 69 794 l 69 -110 l 486 -110 m 379 673 q 353 604 379 626 q 282 581 328 581 l 165 581 l 165 589 l 185 589 l 185 757 l 165 757 l 165 764 l 282 764 q 353 741 328 764 q 379 673 379 719 m 360 363 l 178 363 l 178 370 l 199 370 l 199 538 l 178 538 l 178 545 l 356 545 l 356 482 l 348 482 q 328 523 342 508 q 285 538 314 538 l 275 538 l 275 459 l 276 459 q 300 468 291 459 q 310 495 308 477 l 318 495 l 318 415 l 310 415 q 300 443 308 433 q 276 452 291 452 l 275 452 l 275 370 l 289 370 q 332 389 318 370 q 352 433 346 408 l 360 433 l 360 363 m 397 143 l 280 143 l 280 151 l 301 151 l 301 307 l 244 143 l 234 143 l 179 306 l 179 172 q 184 155 179 160 q 205 151 189 151 l 205 143 l 146 143 l 146 151 q 165 155 160 151 q 169 172 169 159 l 169 319 l 147 319 l 147 326 l 245 326 l 272 249 l 298 326 l 397 326 l 397 319 l 376 319 l 376 151 l 397 151 l 397 143 m 372 15 q 365 -23 372 -6 q 344 -53 357 -40 q 313 -73 331 -66 q 273 -80 294 -80 q 233 -73 251 -80 q 202 -52 215 -65 q 181 -22 189 -40 q 174 15 174 -5 q 181 53 174 35 q 202 83 189 70 q 233 103 215 96 q 273 110 251 110 q 312 103 294 110 q 344 84 331 97 q 365 53 357 71 q 372 15 372 36 m 297 620 l 297 722 q 292 750 297 742 q 267 757 286 757 l 263 757 l 263 589 l 267 589 q 291 595 285 589 q 297 620 297 602 m 291 -41 l 291 72 q 288 93 291 83 q 273 103 285 103 q 258 93 261 103 q 256 72 256 83 l 256 -41 q 258 -63 256 -53 q 273 -73 261 -73 q 288 -63 285 -73 q 291 -41 291 -53 z "},"":{"ha":367,"x_min":42,"x_max":325,"o":"m 325 85 l 322 74 l 296 56 l 183 168 l 71 56 l 60 58 l 42 85 l 154 197 l 42 310 l 44 321 l 71 339 l 183 226 l 296 339 l 307 336 l 325 310 l 213 197 l 325 85 z "},"":{"ha":603,"x_min":28,"x_max":575,"o":"m 575 314 q 553 194 575 249 q 494 99 532 140 q 405 28 456 57 q 292 -13 353 0 q 195 3 240 -13 q 118 50 151 19 l 51 -27 l 28 -8 l 97 72 q 46 159 65 110 q 28 264 28 208 q 48 380 28 326 q 104 475 68 433 q 190 546 140 517 q 297 592 239 576 q 398 574 351 592 q 482 525 445 556 l 551 606 l 575 586 l 504 503 q 556 418 538 466 q 575 314 575 370 m 436 469 q 355 522 401 503 q 256 542 309 542 q 126 456 167 517 q 86 303 86 395 q 101 208 86 253 q 144 128 116 163 l 436 469 m 517 275 q 501 369 517 325 q 457 447 485 413 l 164 104 q 239 55 197 73 q 333 36 282 36 q 473 118 428 58 q 517 275 517 178 z "},"":{"ha":556,"x_min":28,"x_max":528,"o":"m 528 -149 l 28 -149 l 28 833 l 528 833 l 528 -149 m 486 -110 l 486 794 l 69 794 l 69 -110 l 486 -110 m 379 673 q 353 604 379 626 q 282 581 328 581 l 165 581 l 165 589 l 185 589 l 185 757 l 165 757 l 165 764 l 282 764 q 353 741 328 764 q 379 673 379 719 m 360 363 l 178 363 l 178 370 l 199 370 l 199 538 l 178 538 l 178 545 l 356 545 l 356 482 l 348 482 q 328 523 342 508 q 285 538 314 538 l 275 538 l 275 459 l 276 459 q 300 468 291 459 q 310 495 308 477 l 318 495 l 318 415 l 310 415 q 300 443 308 433 q 276 452 291 452 l 275 452 l 275 370 l 289 370 q 332 389 318 370 q 352 433 346 408 l 360 433 l 360 363 m 397 143 l 280 143 l 280 151 l 301 151 l 301 307 l 244 143 l 234 143 l 179 306 l 179 172 q 184 155 179 160 q 205 151 189 151 l 205 143 l 146 143 l 146 151 q 165 155 160 151 q 169 172 169 159 l 169 319 l 147 319 l 147 326 l 245 326 l 272 249 l 298 326 l 397 326 l 397 319 l 376 319 l 376 151 l 397 151 l 397 143 m 372 15 q 365 -23 372 -6 q 344 -53 357 -40 q 313 -73 331 -66 q 273 -80 294 -80 q 233 -73 251 -80 q 202 -52 215 -65 q 181 -22 189 -40 q 174 15 174 -5 q 181 53 174 35 q 202 83 189 70 q 233 103 215 96 q 273 110 251 110 q 312 103 294 110 q 344 84 331 97 q 365 53 357 71 q 372 15 372 36 m 297 620 l 297 722 q 292 750 297 742 q 267 757 286 757 l 263 757 l 263 589 l 267 589 q 291 595 285 589 q 297 620 297 602 m 291 -41 l 291 72 q 288 93 291 83 q 273 103 285 103 q 258 93 261 103 q 256 72 256 83 l 256 -41 q 258 -63 256 -53 q 273 -73 261 -73 q 288 -63 285 -73 q 291 -41 291 -53 z "},"":{"ha":556,"x_min":28,"x_max":528,"o":"m 528 -149 l 28 -149 l 28 833 l 528 833 l 528 -149 m 486 -110 l 486 794 l 69 794 l 69 -110 l 486 -110 m 379 673 q 353 604 379 626 q 282 581 328 581 l 165 581 l 165 589 l 185 589 l 185 757 l 165 757 l 165 764 l 282 764 q 353 741 328 764 q 379 673 379 719 m 360 363 l 178 363 l 178 370 l 199 370 l 199 538 l 178 538 l 178 545 l 356 545 l 356 482 l 348 482 q 328 523 342 508 q 285 538 314 538 l 275 538 l 275 459 l 276 459 q 300 468 291 459 q 310 495 308 477 l 318 495 l 318 415 l 310 415 q 300 443 308 433 q 276 452 291 452 l 275 452 l 275 370 l 289 370 q 332 389 318 370 q 352 433 346 408 l 360 433 l 360 363 m 397 143 l 280 143 l 280 151 l 301 151 l 301 307 l 244 143 l 234 143 l 179 306 l 179 172 q 184 155 179 160 q 205 151 189 151 l 205 143 l 146 143 l 146 151 q 165 155 160 151 q 169 172 169 159 l 169 319 l 147 319 l 147 326 l 245 326 l 272 249 l 298 326 l 397 326 l 397 319 l 376 319 l 376 151 l 397 151 l 397 143 m 372 15 q 365 -23 372 -6 q 344 -53 357 -40 q 313 -73 331 -66 q 273 -80 294 -80 q 233 -73 251 -80 q 202 -52 215 -65 q 181 -22 189 -40 q 174 15 174 -5 q 181 53 174 35 q 202 83 189 70 q 233 103 215 96 q 273 110 251 110 q 312 103 294 110 q 344 84 331 97 q 365 53 357 71 q 372 15 372 36 m 297 620 l 297 722 q 292 750 297 742 q 267 757 286 757 l 263 757 l 263 589 l 267 589 q 291 595 285 589 q 297 620 297 602 m 291 -41 l 291 72 q 288 93 291 83 q 273 103 285 103 q 258 93 261 103 q 256 72 256 83 l 256 -41 q 258 -63 256 -53 q 273 -73 261 -73 q 288 -63 285 -73 q 291 -41 291 -53 z "},"":{"ha":556,"x_min":28,"x_max":528,"o":"m 528 -149 l 28 -149 l 28 833 l 528 833 l 528 -149 m 486 -110 l 486 794 l 69 794 l 69 -110 l 486 -110 m 379 673 q 353 604 379 626 q 282 581 328 581 l 165 581 l 165 589 l 185 589 l 185 757 l 165 757 l 165 764 l 282 764 q 353 741 328 764 q 379 673 379 719 m 360 363 l 178 363 l 178 370 l 199 370 l 199 538 l 178 538 l 178 545 l 356 545 l 356 482 l 348 482 q 328 523 342 508 q 285 538 314 538 l 275 538 l 275 459 l 276 459 q 300 468 291 459 q 310 495 308 477 l 318 495 l 318 415 l 310 415 q 300 443 308 433 q 276 452 291 452 l 275 452 l 275 370 l 289 370 q 332 389 318 370 q 352 433 346 408 l 360 433 l 360 363 m 397 143 l 280 143 l 280 151 l 301 151 l 301 307 l 244 143 l 234 143 l 179 306 l 179 172 q 184 155 179 160 q 205 151 189 151 l 205 143 l 146 143 l 146 151 q 165 155 160 151 q 169 172 169 159 l 169 319 l 147 319 l 147 326 l 245 326 l 272 249 l 298 326 l 397 326 l 397 319 l 376 319 l 376 151 l 397 151 l 397 143 m 372 15 q 365 -23 372 -6 q 344 -53 357 -40 q 313 -73 331 -66 q 273 -80 294 -80 q 233 -73 251 -80 q 202 -52 215 -65 q 181 -22 189 -40 q 174 15 174 -5 q 181 53 174 35 q 202 83 189 70 q 233 103 215 96 q 273 110 251 110 q 312 103 294 110 q 344 84 331 97 q 365 53 357 71 q 372 15 372 36 m 297 620 l 297 722 q 292 750 297 742 q 267 757 286 757 l 263 757 l 263 589 l 267 589 q 291 595 285 589 q 297 620 297 602 m 291 -41 l 291 72 q 288 93 291 83 q 273 103 285 103 q 258 93 261 103 q 256 72 256 83 l 256 -41 q 258 -63 256 -53 q 273 -73 261 -73 q 288 -63 285 -73 q 291 -41 291 -53 z "},"":{"ha":556,"x_min":28,"x_max":528,"o":"m 528 -149 l 28 -149 l 28 833 l 528 833 l 528 -149 m 486 -110 l 486 794 l 69 794 l 69 -110 l 486 -110 m 379 673 q 353 604 379 626 q 282 581 328 581 l 165 581 l 165 589 l 185 589 l 185 757 l 165 757 l 165 764 l 282 764 q 353 741 328 764 q 379 673 379 719 m 360 363 l 178 363 l 178 370 l 199 370 l 199 538 l 178 538 l 178 545 l 356 545 l 356 482 l 348 482 q 328 523 342 508 q 285 538 314 538 l 275 538 l 275 459 l 276 459 q 300 468 291 459 q 310 495 308 477 l 318 495 l 318 415 l 310 415 q 300 443 308 433 q 276 452 291 452 l 275 452 l 275 370 l 289 370 q 332 389 318 370 q 352 433 346 408 l 360 433 l 360 363 m 397 143 l 280 143 l 280 151 l 301 151 l 301 307 l 244 143 l 234 143 l 179 306 l 179 172 q 184 155 179 160 q 205 151 189 151 l 205 143 l 146 143 l 146 151 q 165 155 160 151 q 169 172 169 159 l 169 319 l 147 319 l 147 326 l 245 326 l 272 249 l 298 326 l 397 326 l 397 319 l 376 319 l 376 151 l 397 151 l 397 143 m 372 15 q 365 -23 372 -6 q 344 -53 357 -40 q 313 -73 331 -66 q 273 -80 294 -80 q 233 -73 251 -80 q 202 -52 215 -65 q 181 -22 189 -40 q 174 15 174 -5 q 181 53 174 35 q 202 83 189 70 q 233 103 215 96 q 273 110 251 110 q 312 103 294 110 q 344 84 331 97 q 365 53 357 71 q 372 15 372 36 m 297 620 l 297 722 q 292 750 297 742 q 267 757 286 757 l 263 757 l 263 589 l 267 589 q 291 595 285 589 q 297 620 297 602 m 291 -41 l 291 72 q 288 93 291 83 q 273 103 285 103 q 258 93 261 103 q 256 72 256 83 l 256 -41 q 258 -63 256 -53 q 273 -73 261 -73 q 288 -63 285 -73 q 291 -41 291 -53 z "},"":{"ha":556,"x_min":28,"x_max":528,"o":"m 528 -149 l 28 -149 l 28 833 l 528 833 l 528 -149 m 486 -110 l 486 794 l 69 794 l 69 -110 l 486 -110 m 379 673 q 353 604 379 626 q 282 581 328 581 l 165 581 l 165 589 l 185 589 l 185 757 l 165 757 l 165 764 l 282 764 q 353 741 328 764 q 379 673 379 719 m 360 363 l 178 363 l 178 370 l 199 370 l 199 538 l 178 538 l 178 545 l 356 545 l 356 482 l 348 482 q 328 523 342 508 q 285 538 314 538 l 275 538 l 275 459 l 276 459 q 300 468 291 459 q 310 495 308 477 l 318 495 l 318 415 l 310 415 q 300 443 308 433 q 276 452 291 452 l 275 452 l 275 370 l 289 370 q 332 389 318 370 q 352 433 346 408 l 360 433 l 360 363 m 397 143 l 280 143 l 280 151 l 301 151 l 301 307 l 244 143 l 234 143 l 179 306 l 179 172 q 184 155 179 160 q 205 151 189 151 l 205 143 l 146 143 l 146 151 q 165 155 160 151 q 169 172 169 159 l 169 319 l 147 319 l 147 326 l 245 326 l 272 249 l 298 326 l 397 326 l 397 319 l 376 319 l 376 151 l 397 151 l 397 143 m 372 15 q 365 -23 372 -6 q 344 -53 357 -40 q 313 -73 331 -66 q 273 -80 294 -80 q 233 -73 251 -80 q 202 -52 215 -65 q 181 -22 189 -40 q 174 15 174 -5 q 181 53 174 35 q 202 83 189 70 q 233 103 215 96 q 273 110 251 110 q 312 103 294 110 q 344 84 331 97 q 365 53 357 71 q 372 15 372 36 m 297 620 l 297 722 q 292 750 297 742 q 267 757 286 757 l 263 757 l 263 589 l 267 589 q 291 595 285 589 q 297 620 297 602 m 291 -41 l 291 72 q 288 93 291 83 q 273 103 285 103 q 258 93 261 103 q 256 72 256 83 l 256 -41 q 258 -63 256 -53 q 273 -73 261 -73 q 288 -63 285 -73 q 291 -41 291 -53 z "},"":{"ha":489,"x_min":19,"x_max":472,"o":"m 472 333 q 448 241 472 280 q 388 175 424 201 q 308 135 351 149 q 225 119 265 121 q 186 140 204 133 q 153 145 172 145 q 140 144 147 145 q 141 74 140 99 q 149 34 142 49 q 167 12 155 19 q 203 -5 180 4 l 200 -13 q 158 -3 179 -7 q 115 0 136 0 l 101 0 q 62 -3 81 0 q 22 -13 43 -7 l 19 -5 q 52 12 40 4 q 69 35 63 19 q 75 76 74 50 q 76 150 76 103 l 76 428 q 75 501 76 474 q 69 543 74 528 q 52 566 63 558 q 19 583 40 574 l 22 592 q 62 582 43 585 q 101 578 81 578 l 115 578 q 158 582 136 578 q 200 592 179 585 l 203 583 q 167 566 180 574 q 149 548 155 559 q 141 518 142 536 q 140 468 140 499 q 207 475 174 469 q 269 489 240 481 q 420 443 369 483 q 472 333 472 403 m 417 300 q 367 400 417 362 q 224 450 317 438 q 184 435 207 442 q 140 428 160 429 l 140 178 q 176 181 160 181 l 180 181 q 206 179 193 181 q 236 173 221 177 q 269 161 251 168 q 326 170 299 163 q 373 194 353 178 q 405 236 393 210 q 417 300 417 262 z "},"":{"ha":364,"x_min":-19,"x_max":347,"o":"m 347 101 q 332 47 347 77 q 288 -13 316 17 l 282 -13 q 254 0 269 -5 q 225 6 240 5 l 221 6 q 197 2 208 6 q 172 -13 183 -3 l 167 -9 q 179 11 172 1 q 197 30 187 22 q 219 42 208 38 q 244 47 231 47 q 276 41 263 47 q 299 28 289 35 q 304 44 302 36 q 306 63 306 53 q 295 98 306 82 q 269 130 285 115 q 236 161 254 146 q 203 194 218 176 q 177 232 188 212 q 167 279 167 253 q 176 349 167 317 q 201 409 186 381 q 233 463 216 438 q 266 513 251 488 q 290 564 281 538 q 300 619 300 590 q 282 707 300 665 q 224 786 265 749 q 172 724 193 760 q 137 639 151 689 q 117 519 124 588 q 111 356 111 450 l 111 47 q 115 27 111 35 q 124 22 117 22 q 136 25 128 22 l 139 17 l 61 -13 l 56 -10 l 56 233 l -19 233 l -19 242 q 31 253 10 246 q 56 278 51 261 l 56 356 q 64 503 56 439 q 85 615 72 567 q 117 697 99 663 q 158 756 136 731 q 204 799 180 781 q 251 833 228 817 q 321 748 297 794 q 344 650 344 702 q 334 579 344 610 q 308 522 324 548 q 275 471 293 495 q 242 423 257 447 q 216 372 226 399 q 206 311 206 344 q 216 269 206 288 q 242 234 226 250 q 276 202 258 217 q 310 172 294 188 q 337 139 326 156 q 347 101 347 122 z "},"":{"ha":556,"x_min":28,"x_max":528,"o":"m 528 -149 l 28 -149 l 28 833 l 528 833 l 528 -149 m 486 -110 l 486 794 l 69 794 l 69 -110 l 486 -110 m 379 673 q 353 604 379 626 q 282 581 328 581 l 165 581 l 165 589 l 185 589 l 185 757 l 165 757 l 165 764 l 282 764 q 353 741 328 764 q 379 673 379 719 m 360 363 l 178 363 l 178 370 l 199 370 l 199 538 l 178 538 l 178 545 l 356 545 l 356 482 l 348 482 q 328 523 342 508 q 285 538 314 538 l 275 538 l 275 459 l 276 459 q 300 468 291 459 q 310 495 308 477 l 318 495 l 318 415 l 310 415 q 300 443 308 433 q 276 452 291 452 l 275 452 l 275 370 l 289 370 q 332 389 318 370 q 352 433 346 408 l 360 433 l 360 363 m 397 143 l 280 143 l 280 151 l 301 151 l 301 307 l 244 143 l 234 143 l 179 306 l 179 172 q 184 155 179 160 q 205 151 189 151 l 205 143 l 146 143 l 146 151 q 165 155 160 151 q 169 172 169 159 l 169 319 l 147 319 l 147 326 l 245 326 l 272 249 l 298 326 l 397 326 l 397 319 l 376 319 l 376 151 l 397 151 l 397 143 m 372 15 q 365 -23 372 -6 q 344 -53 357 -40 q 313 -73 331 -66 q 273 -80 294 -80 q 233 -73 251 -80 q 202 -52 215 -65 q 181 -22 189 -40 q 174 15 174 -5 q 181 53 174 35 q 202 83 189 70 q 233 103 215 96 q 273 110 251 110 q 312 103 294 110 q 344 84 331 97 q 365 53 357 71 q 372 15 372 36 m 297 620 l 297 722 q 292 750 297 742 q 267 757 286 757 l 263 757 l 263 589 l 267 589 q 291 595 285 589 q 297 620 297 602 m 291 -41 l 291 72 q 288 93 291 83 q 273 103 285 103 q 258 93 261 103 q 256 72 256 83 l 256 -41 q 258 -63 256 -53 q 273 -73 261 -73 q 288 -63 285 -73 q 291 -41 291 -53 z "},"":{"ha":556,"x_min":28,"x_max":528,"o":"m 528 -149 l 28 -149 l 28 833 l 528 833 l 528 -149 m 486 -110 l 486 794 l 69 794 l 69 -110 l 486 -110 m 379 673 q 353 604 379 626 q 282 581 328 581 l 165 581 l 165 589 l 185 589 l 185 757 l 165 757 l 165 764 l 282 764 q 353 741 328 764 q 379 673 379 719 m 360 363 l 178 363 l 178 370 l 199 370 l 199 538 l 178 538 l 178 545 l 356 545 l 356 482 l 348 482 q 328 523 342 508 q 285 538 314 538 l 275 538 l 275 459 l 276 459 q 300 468 291 459 q 310 495 308 477 l 318 495 l 318 415 l 310 415 q 300 443 308 433 q 276 452 291 452 l 275 452 l 275 370 l 289 370 q 332 389 318 370 q 352 433 346 408 l 360 433 l 360 363 m 397 143 l 280 143 l 280 151 l 301 151 l 301 307 l 244 143 l 234 143 l 179 306 l 179 172 q 184 155 179 160 q 205 151 189 151 l 205 143 l 146 143 l 146 151 q 165 155 160 151 q 169 172 169 159 l 169 319 l 147 319 l 147 326 l 245 326 l 272 249 l 298 326 l 397 326 l 397 319 l 376 319 l 376 151 l 397 151 l 397 143 m 372 15 q 365 -23 372 -6 q 344 -53 357 -40 q 313 -73 331 -66 q 273 -80 294 -80 q 233 -73 251 -80 q 202 -52 215 -65 q 181 -22 189 -40 q 174 15 174 -5 q 181 53 174 35 q 202 83 189 70 q 233 103 215 96 q 273 110 251 110 q 312 103 294 110 q 344 84 331 97 q 365 53 357 71 q 372 15 372 36 m 297 620 l 297 722 q 292 750 297 742 q 267 757 286 757 l 263 757 l 263 589 l 267 589 q 291 595 285 589 q 297 620 297 602 m 291 -41 l 291 72 q 288 93 291 83 q 273 103 285 103 q 258 93 261 103 q 256 72 256 83 l 256 -41 q 258 -63 256 -53 q 273 -73 261 -73 q 288 -63 285 -73 q 291 -41 291 -53 z "},"":{"ha":556,"x_min":28,"x_max":528,"o":"m 528 -149 l 28 -149 l 28 833 l 528 833 l 528 -149 m 486 -110 l 486 794 l 69 794 l 69 -110 l 486 -110 m 379 673 q 353 604 379 626 q 282 581 328 581 l 165 581 l 165 589 l 185 589 l 185 757 l 165 757 l 165 764 l 282 764 q 353 741 328 764 q 379 673 379 719 m 360 363 l 178 363 l 178 370 l 199 370 l 199 538 l 178 538 l 178 545 l 356 545 l 356 482 l 348 482 q 328 523 342 508 q 285 538 314 538 l 275 538 l 275 459 l 276 459 q 300 468 291 459 q 310 495 308 477 l 318 495 l 318 415 l 310 415 q 300 443 308 433 q 276 452 291 452 l 275 452 l 275 370 l 289 370 q 332 389 318 370 q 352 433 346 408 l 360 433 l 360 363 m 397 143 l 280 143 l 280 151 l 301 151 l 301 307 l 244 143 l 234 143 l 179 306 l 179 172 q 184 155 179 160 q 205 151 189 151 l 205 143 l 146 143 l 146 151 q 165 155 160 151 q 169 172 169 159 l 169 319 l 147 319 l 147 326 l 245 326 l 272 249 l 298 326 l 397 326 l 397 319 l 376 319 l 376 151 l 397 151 l 397 143 m 372 15 q 365 -23 372 -6 q 344 -53 357 -40 q 313 -73 331 -66 q 273 -80 294 -80 q 233 -73 251 -80 q 202 -52 215 -65 q 181 -22 189 -40 q 174 15 174 -5 q 181 53 174 35 q 202 83 189 70 q 233 103 215 96 q 273 110 251 110 q 312 103 294 110 q 344 84 331 97 q 365 53 357 71 q 372 15 372 36 m 297 620 l 297 722 q 292 750 297 742 q 267 757 286 757 l 263 757 l 263 589 l 267 589 q 291 595 285 589 q 297 620 297 602 m 291 -41 l 291 72 q 288 93 291 83 q 273 103 285 103 q 258 93 261 103 q 256 72 256 83 l 256 -41 q 258 -63 256 -53 q 273 -73 261 -73 q 288 -63 285 -73 q 291 -41 291 -53 z "},"":{"ha":556,"x_min":28,"x_max":528,"o":"m 528 -149 l 28 -149 l 28 833 l 528 833 l 528 -149 m 486 -110 l 486 794 l 69 794 l 69 -110 l 486 -110 m 379 673 q 353 604 379 626 q 282 581 328 581 l 165 581 l 165 589 l 185 589 l 185 757 l 165 757 l 165 764 l 282 764 q 353 741 328 764 q 379 673 379 719 m 360 363 l 178 363 l 178 370 l 199 370 l 199 538 l 178 538 l 178 545 l 356 545 l 356 482 l 348 482 q 328 523 342 508 q 285 538 314 538 l 275 538 l 275 459 l 276 459 q 300 468 291 459 q 310 495 308 477 l 318 495 l 318 415 l 310 415 q 300 443 308 433 q 276 452 291 452 l 275 452 l 275 370 l 289 370 q 332 389 318 370 q 352 433 346 408 l 360 433 l 360 363 m 397 143 l 280 143 l 280 151 l 301 151 l 301 307 l 244 143 l 234 143 l 179 306 l 179 172 q 184 155 179 160 q 205 151 189 151 l 205 143 l 146 143 l 146 151 q 165 155 160 151 q 169 172 169 159 l 169 319 l 147 319 l 147 326 l 245 326 l 272 249 l 298 326 l 397 326 l 397 319 l 376 319 l 376 151 l 397 151 l 397 143 m 372 15 q 365 -23 372 -6 q 344 -53 357 -40 q 313 -73 331 -66 q 273 -80 294 -80 q 233 -73 251 -80 q 202 -52 215 -65 q 181 -22 189 -40 q 174 15 174 -5 q 181 53 174 35 q 202 83 189 70 q 233 103 215 96 q 273 110 251 110 q 312 103 294 110 q 344 84 331 97 q 365 53 357 71 q 372 15 372 36 m 297 620 l 297 722 q 292 750 297 742 q 267 757 286 757 l 263 757 l 263 589 l 267 589 q 291 595 285 589 q 297 620 297 602 m 291 -41 l 291 72 q 288 93 291 83 q 273 103 285 103 q 258 93 261 103 q 256 72 256 83 l 256 -41 q 258 -63 256 -53 q 273 -73 261 -73 q 288 -63 285 -73 q 291 -41 291 -53 z "},"":{"ha":556,"x_min":28,"x_max":528,"o":"m 528 -149 l 28 -149 l 28 833 l 528 833 l 528 -149 m 486 -110 l 486 794 l 69 794 l 69 -110 l 486 -110 m 379 673 q 353 604 379 626 q 282 581 328 581 l 165 581 l 165 589 l 185 589 l 185 757 l 165 757 l 165 764 l 282 764 q 353 741 328 764 q 379 673 379 719 m 360 363 l 178 363 l 178 370 l 199 370 l 199 538 l 178 538 l 178 545 l 356 545 l 356 482 l 348 482 q 328 523 342 508 q 285 538 314 538 l 275 538 l 275 459 l 276 459 q 300 468 291 459 q 310 495 308 477 l 318 495 l 318 415 l 310 415 q 300 443 308 433 q 276 452 291 452 l 275 452 l 275 370 l 289 370 q 332 389 318 370 q 352 433 346 408 l 360 433 l 360 363 m 397 143 l 280 143 l 280 151 l 301 151 l 301 307 l 244 143 l 234 143 l 179 306 l 179 172 q 184 155 179 160 q 205 151 189 151 l 205 143 l 146 143 l 146 151 q 165 155 160 151 q 169 172 169 159 l 169 319 l 147 319 l 147 326 l 245 326 l 272 249 l 298 326 l 397 326 l 397 319 l 376 319 l 376 151 l 397 151 l 397 143 m 372 15 q 365 -23 372 -6 q 344 -53 357 -40 q 313 -73 331 -66 q 273 -80 294 -80 q 233 -73 251 -80 q 202 -52 215 -65 q 181 -22 189 -40 q 174 15 174 -5 q 181 53 174 35 q 202 83 189 70 q 233 103 215 96 q 273 110 251 110 q 312 103 294 110 q 344 84 331 97 q 365 53 357 71 q 372 15 372 36 m 297 620 l 297 722 q 292 750 297 742 q 267 757 286 757 l 263 757 l 263 589 l 267 589 q 291 595 285 589 q 297 620 297 602 m 291 -41 l 291 72 q 288 93 291 83 q 273 103 285 103 q 258 93 261 103 q 256 72 256 83 l 256 -41 q 258 -63 256 -53 q 273 -73 261 -73 q 288 -63 285 -73 q 291 -41 291 -53 z "},"":{"ha":556,"x_min":28,"x_max":528,"o":"m 528 -149 l 28 -149 l 28 833 l 528 833 l 528 -149 m 486 -110 l 486 794 l 69 794 l 69 -110 l 486 -110 m 379 673 q 353 604 379 626 q 282 581 328 581 l 165 581 l 165 589 l 185 589 l 185 757 l 165 757 l 165 764 l 282 764 q 353 741 328 764 q 379 673 379 719 m 360 363 l 178 363 l 178 370 l 199 370 l 199 538 l 178 538 l 178 545 l 356 545 l 356 482 l 348 482 q 328 523 342 508 q 285 538 314 538 l 275 538 l 275 459 l 276 459 q 300 468 291 459 q 310 495 308 477 l 318 495 l 318 415 l 310 415 q 300 443 308 433 q 276 452 291 452 l 275 452 l 275 370 l 289 370 q 332 389 318 370 q 352 433 346 408 l 360 433 l 360 363 m 397 143 l 280 143 l 280 151 l 301 151 l 301 307 l 244 143 l 234 143 l 179 306 l 179 172 q 184 155 179 160 q 205 151 189 151 l 205 143 l 146 143 l 146 151 q 165 155 160 151 q 169 172 169 159 l 169 319 l 147 319 l 147 326 l 245 326 l 272 249 l 298 326 l 397 326 l 397 319 l 376 319 l 376 151 l 397 151 l 397 143 m 372 15 q 365 -23 372 -6 q 344 -53 357 -40 q 313 -73 331 -66 q 273 -80 294 -80 q 233 -73 251 -80 q 202 -52 215 -65 q 181 -22 189 -40 q 174 15 174 -5 q 181 53 174 35 q 202 83 189 70 q 233 103 215 96 q 273 110 251 110 q 312 103 294 110 q 344 84 331 97 q 365 53 357 71 q 372 15 372 36 m 297 620 l 297 722 q 292 750 297 742 q 267 757 286 757 l 263 757 l 263 589 l 267 589 q 291 595 285 589 q 297 620 297 602 m 291 -41 l 291 72 q 288 93 291 83 q 273 103 285 103 q 258 93 261 103 q 256 72 256 83 l 256 -41 q 258 -63 256 -53 q 273 -73 261 -73 q 288 -63 285 -73 q 291 -41 291 -53 z "},"":{"ha":481,"x_min":19,"x_max":475,"o":"m 475 165 l 464 146 l 257 146 q 267 106 259 125 q 290 71 276 87 q 322 45 303 56 q 364 31 341 34 q 414 58 397 39 q 442 101 431 76 l 450 99 q 430 52 441 71 q 405 21 419 33 q 373 1 391 8 q 332 -13 355 -7 q 262 15 291 -9 q 221 74 233 39 q 184 26 205 47 q 133 -13 163 4 q 91 -7 111 -13 q 55 11 70 -1 q 29 41 39 24 q 19 82 19 59 q 31 127 19 108 q 60 159 42 147 q 102 178 78 172 q 151 185 126 185 l 211 172 q 190 225 207 203 q 143 257 172 247 q 119 255 131 257 q 96 246 106 252 q 90 229 90 237 l 90 228 q 94 211 90 221 l 58 183 l 53 183 q 49 211 49 196 q 59 245 49 232 q 87 267 69 258 q 127 281 104 276 q 175 292 150 286 q 218 268 202 284 q 243 231 233 253 q 286 270 261 255 q 343 292 312 285 q 408 272 378 288 q 453 225 437 256 q 442 211 449 219 q 427 196 435 203 q 414 183 420 189 q 403 174 407 176 l 472 174 l 475 165 m 400 204 q 369 237 390 221 q 315 257 349 253 q 273 228 288 249 q 256 174 258 207 l 375 174 q 389 188 381 180 q 400 204 396 197 m 213 106 q 211 116 211 111 l 211 140 l 124 157 q 77 146 92 157 q 63 110 63 135 q 71 75 63 90 q 93 51 80 60 q 123 37 107 42 q 156 31 140 32 q 189 64 176 45 q 213 106 202 83 z "},"":{"ha":556,"x_min":28,"x_max":528,"o":"m 528 -149 l 28 -149 l 28 833 l 528 833 l 528 -149 m 486 -110 l 486 794 l 69 794 l 69 -110 l 486 -110 m 379 673 q 353 604 379 626 q 282 581 328 581 l 165 581 l 165 589 l 185 589 l 185 757 l 165 757 l 165 764 l 282 764 q 353 741 328 764 q 379 673 379 719 m 360 363 l 178 363 l 178 370 l 199 370 l 199 538 l 178 538 l 178 545 l 356 545 l 356 482 l 348 482 q 328 523 342 508 q 285 538 314 538 l 275 538 l 275 459 l 276 459 q 300 468 291 459 q 310 495 308 477 l 318 495 l 318 415 l 310 415 q 300 443 308 433 q 276 452 291 452 l 275 452 l 275 370 l 289 370 q 332 389 318 370 q 352 433 346 408 l 360 433 l 360 363 m 397 143 l 280 143 l 280 151 l 301 151 l 301 307 l 244 143 l 234 143 l 179 306 l 179 172 q 184 155 179 160 q 205 151 189 151 l 205 143 l 146 143 l 146 151 q 165 155 160 151 q 169 172 169 159 l 169 319 l 147 319 l 147 326 l 245 326 l 272 249 l 298 326 l 397 326 l 397 319 l 376 319 l 376 151 l 397 151 l 397 143 m 372 15 q 365 -23 372 -6 q 344 -53 357 -40 q 313 -73 331 -66 q 273 -80 294 -80 q 233 -73 251 -80 q 202 -52 215 -65 q 181 -22 189 -40 q 174 15 174 -5 q 181 53 174 35 q 202 83 189 70 q 233 103 215 96 q 273 110 251 110 q 312 103 294 110 q 344 84 331 97 q 365 53 357 71 q 372 15 372 36 m 297 620 l 297 722 q 292 750 297 742 q 267 757 286 757 l 263 757 l 263 589 l 267 589 q 291 595 285 589 q 297 620 297 602 m 291 -41 l 291 72 q 288 93 291 83 q 273 103 285 103 q 258 93 261 103 q 256 72 256 83 l 256 -41 q 258 -63 256 -53 q 273 -73 261 -73 q 288 -63 285 -73 q 291 -41 291 -53 z "},"":{"ha":556,"x_min":28,"x_max":528,"o":"m 528 -149 l 28 -149 l 28 833 l 528 833 l 528 -149 m 486 -110 l 486 794 l 69 794 l 69 -110 l 486 -110 m 379 673 q 353 604 379 626 q 282 581 328 581 l 165 581 l 165 589 l 185 589 l 185 757 l 165 757 l 165 764 l 282 764 q 353 741 328 764 q 379 673 379 719 m 360 363 l 178 363 l 178 370 l 199 370 l 199 538 l 178 538 l 178 545 l 356 545 l 356 482 l 348 482 q 328 523 342 508 q 285 538 314 538 l 275 538 l 275 459 l 276 459 q 300 468 291 459 q 310 495 308 477 l 318 495 l 318 415 l 310 415 q 300 443 308 433 q 276 452 291 452 l 275 452 l 275 370 l 289 370 q 332 389 318 370 q 352 433 346 408 l 360 433 l 360 363 m 397 143 l 280 143 l 280 151 l 301 151 l 301 307 l 244 143 l 234 143 l 179 306 l 179 172 q 184 155 179 160 q 205 151 189 151 l 205 143 l 146 143 l 146 151 q 165 155 160 151 q 169 172 169 159 l 169 319 l 147 319 l 147 326 l 245 326 l 272 249 l 298 326 l 397 326 l 397 319 l 376 319 l 376 151 l 397 151 l 397 143 m 372 15 q 365 -23 372 -6 q 344 -53 357 -40 q 313 -73 331 -66 q 273 -80 294 -80 q 233 -73 251 -80 q 202 -52 215 -65 q 181 -22 189 -40 q 174 15 174 -5 q 181 53 174 35 q 202 83 189 70 q 233 103 215 96 q 273 110 251 110 q 312 103 294 110 q 344 84 331 97 q 365 53 357 71 q 372 15 372 36 m 297 620 l 297 722 q 292 750 297 742 q 267 757 286 757 l 263 757 l 263 589 l 267 589 q 291 595 285 589 q 297 620 297 602 m 291 -41 l 291 72 q 288 93 291 83 q 273 103 285 103 q 258 93 261 103 q 256 72 256 83 l 256 -41 q 258 -63 256 -53 q 273 -73 261 -73 q 288 -63 285 -73 q 291 -41 291 -53 z "},"":{"ha":556,"x_min":28,"x_max":528,"o":"m 528 -149 l 28 -149 l 28 833 l 528 833 l 528 -149 m 486 -110 l 486 794 l 69 794 l 69 -110 l 486 -110 m 379 673 q 353 604 379 626 q 282 581 328 581 l 165 581 l 165 589 l 185 589 l 185 757 l 165 757 l 165 764 l 282 764 q 353 741 328 764 q 379 673 379 719 m 360 363 l 178 363 l 178 370 l 199 370 l 199 538 l 178 538 l 178 545 l 356 545 l 356 482 l 348 482 q 328 523 342 508 q 285 538 314 538 l 275 538 l 275 459 l 276 459 q 300 468 291 459 q 310 495 308 477 l 318 495 l 318 415 l 310 415 q 300 443 308 433 q 276 452 291 452 l 275 452 l 275 370 l 289 370 q 332 389 318 370 q 352 433 346 408 l 360 433 l 360 363 m 397 143 l 280 143 l 280 151 l 301 151 l 301 307 l 244 143 l 234 143 l 179 306 l 179 172 q 184 155 179 160 q 205 151 189 151 l 205 143 l 146 143 l 146 151 q 165 155 160 151 q 169 172 169 159 l 169 319 l 147 319 l 147 326 l 245 326 l 272 249 l 298 326 l 397 326 l 397 319 l 376 319 l 376 151 l 397 151 l 397 143 m 372 15 q 365 -23 372 -6 q 344 -53 357 -40 q 313 -73 331 -66 q 273 -80 294 -80 q 233 -73 251 -80 q 202 -52 215 -65 q 181 -22 189 -40 q 174 15 174 -5 q 181 53 174 35 q 202 83 189 70 q 233 103 215 96 q 273 110 251 110 q 312 103 294 110 q 344 84 331 97 q 365 53 357 71 q 372 15 372 36 m 297 620 l 297 722 q 292 750 297 742 q 267 757 286 757 l 263 757 l 263 589 l 267 589 q 291 595 285 589 q 297 620 297 602 m 291 -41 l 291 72 q 288 93 291 83 q 273 103 285 103 q 258 93 261 103 q 256 72 256 83 l 256 -41 q 258 -63 256 -53 q 273 -73 261 -73 q 288 -63 285 -73 q 291 -41 291 -53 z "},"":{"ha":556,"x_min":28,"x_max":528,"o":"m 528 -149 l 28 -149 l 28 833 l 528 833 l 528 -149 m 486 -110 l 486 794 l 69 794 l 69 -110 l 486 -110 m 379 673 q 353 604 379 626 q 282 581 328 581 l 165 581 l 165 589 l 185 589 l 185 757 l 165 757 l 165 764 l 282 764 q 353 741 328 764 q 379 673 379 719 m 360 363 l 178 363 l 178 370 l 199 370 l 199 538 l 178 538 l 178 545 l 356 545 l 356 482 l 348 482 q 328 523 342 508 q 285 538 314 538 l 275 538 l 275 459 l 276 459 q 300 468 291 459 q 310 495 308 477 l 318 495 l 318 415 l 310 415 q 300 443 308 433 q 276 452 291 452 l 275 452 l 275 370 l 289 370 q 332 389 318 370 q 352 433 346 408 l 360 433 l 360 363 m 397 143 l 280 143 l 280 151 l 301 151 l 301 307 l 244 143 l 234 143 l 179 306 l 179 172 q 184 155 179 160 q 205 151 189 151 l 205 143 l 146 143 l 146 151 q 165 155 160 151 q 169 172 169 159 l 169 319 l 147 319 l 147 326 l 245 326 l 272 249 l 298 326 l 397 326 l 397 319 l 376 319 l 376 151 l 397 151 l 397 143 m 372 15 q 365 -23 372 -6 q 344 -53 357 -40 q 313 -73 331 -66 q 273 -80 294 -80 q 233 -73 251 -80 q 202 -52 215 -65 q 181 -22 189 -40 q 174 15 174 -5 q 181 53 174 35 q 202 83 189 70 q 233 103 215 96 q 273 110 251 110 q 312 103 294 110 q 344 84 331 97 q 365 53 357 71 q 372 15 372 36 m 297 620 l 297 722 q 292 750 297 742 q 267 757 286 757 l 263 757 l 263 589 l 267 589 q 291 595 285 589 q 297 620 297 602 m 291 -41 l 291 72 q 288 93 291 83 q 273 103 285 103 q 258 93 261 103 q 256 72 256 83 l 256 -41 q 258 -63 256 -53 q 273 -73 261 -73 q 288 -63 285 -73 q 291 -41 291 -53 z "},"":{"ha":556,"x_min":28,"x_max":528,"o":"m 528 -149 l 28 -149 l 28 833 l 528 833 l 528 -149 m 486 -110 l 486 794 l 69 794 l 69 -110 l 486 -110 m 379 673 q 353 604 379 626 q 282 581 328 581 l 165 581 l 165 589 l 185 589 l 185 757 l 165 757 l 165 764 l 282 764 q 353 741 328 764 q 379 673 379 719 m 360 363 l 178 363 l 178 370 l 199 370 l 199 538 l 178 538 l 178 545 l 356 545 l 356 482 l 348 482 q 328 523 342 508 q 285 538 314 538 l 275 538 l 275 459 l 276 459 q 300 468 291 459 q 310 495 308 477 l 318 495 l 318 415 l 310 415 q 300 443 308 433 q 276 452 291 452 l 275 452 l 275 370 l 289 370 q 332 389 318 370 q 352 433 346 408 l 360 433 l 360 363 m 397 143 l 280 143 l 280 151 l 301 151 l 301 307 l 244 143 l 234 143 l 179 306 l 179 172 q 184 155 179 160 q 205 151 189 151 l 205 143 l 146 143 l 146 151 q 165 155 160 151 q 169 172 169 159 l 169 319 l 147 319 l 147 326 l 245 326 l 272 249 l 298 326 l 397 326 l 397 319 l 376 319 l 376 151 l 397 151 l 397 143 m 372 15 q 365 -23 372 -6 q 344 -53 357 -40 q 313 -73 331 -66 q 273 -80 294 -80 q 233 -73 251 -80 q 202 -52 215 -65 q 181 -22 189 -40 q 174 15 174 -5 q 181 53 174 35 q 202 83 189 70 q 233 103 215 96 q 273 110 251 110 q 312 103 294 110 q 344 84 331 97 q 365 53 357 71 q 372 15 372 36 m 297 620 l 297 722 q 292 750 297 742 q 267 757 286 757 l 263 757 l 263 589 l 267 589 q 291 595 285 589 q 297 620 297 602 m 291 -41 l 291 72 q 288 93 291 83 q 273 103 285 103 q 258 93 261 103 q 256 72 256 83 l 256 -41 q 258 -63 256 -53 q 273 -73 261 -73 q 288 -63 285 -73 q 291 -41 291 -53 z "},"":{"ha":556,"x_min":28,"x_max":528,"o":"m 528 -149 l 28 -149 l 28 833 l 528 833 l 528 -149 m 486 -110 l 486 794 l 69 794 l 69 -110 l 486 -110 m 379 673 q 353 604 379 626 q 282 581 328 581 l 165 581 l 165 589 l 185 589 l 185 757 l 165 757 l 165 764 l 282 764 q 353 741 328 764 q 379 673 379 719 m 360 363 l 178 363 l 178 370 l 199 370 l 199 538 l 178 538 l 178 545 l 356 545 l 356 482 l 348 482 q 328 523 342 508 q 285 538 314 538 l 275 538 l 275 459 l 276 459 q 300 468 291 459 q 310 495 308 477 l 318 495 l 318 415 l 310 415 q 300 443 308 433 q 276 452 291 452 l 275 452 l 275 370 l 289 370 q 332 389 318 370 q 352 433 346 408 l 360 433 l 360 363 m 397 143 l 280 143 l 280 151 l 301 151 l 301 307 l 244 143 l 234 143 l 179 306 l 179 172 q 184 155 179 160 q 205 151 189 151 l 205 143 l 146 143 l 146 151 q 165 155 160 151 q 169 172 169 159 l 169 319 l 147 319 l 147 326 l 245 326 l 272 249 l 298 326 l 397 326 l 397 319 l 376 319 l 376 151 l 397 151 l 397 143 m 372 15 q 365 -23 372 -6 q 344 -53 357 -40 q 313 -73 331 -66 q 273 -80 294 -80 q 233 -73 251 -80 q 202 -52 215 -65 q 181 -22 189 -40 q 174 15 174 -5 q 181 53 174 35 q 202 83 189 70 q 233 103 215 96 q 273 110 251 110 q 312 103 294 110 q 344 84 331 97 q 365 53 357 71 q 372 15 372 36 m 297 620 l 297 722 q 292 750 297 742 q 267 757 286 757 l 263 757 l 263 589 l 267 589 q 291 595 285 589 q 297 620 297 602 m 291 -41 l 291 72 q 288 93 291 83 q 273 103 285 103 q 258 93 261 103 q 256 72 256 83 l 256 -41 q 258 -63 256 -53 q 273 -73 261 -73 q 288 -63 285 -73 q 291 -41 291 -53 z "},"":{"ha":556,"x_min":28,"x_max":528,"o":"m 528 -149 l 28 -149 l 28 833 l 528 833 l 528 -149 m 486 -110 l 486 794 l 69 794 l 69 -110 l 486 -110 m 379 673 q 353 604 379 626 q 282 581 328 581 l 165 581 l 165 589 l 185 589 l 185 757 l 165 757 l 165 764 l 282 764 q 353 741 328 764 q 379 673 379 719 m 360 363 l 178 363 l 178 370 l 199 370 l 199 538 l 178 538 l 178 545 l 356 545 l 356 482 l 348 482 q 328 523 342 508 q 285 538 314 538 l 275 538 l 275 459 l 276 459 q 300 468 291 459 q 310 495 308 477 l 318 495 l 318 415 l 310 415 q 300 443 308 433 q 276 452 291 452 l 275 452 l 275 370 l 289 370 q 332 389 318 370 q 352 433 346 408 l 360 433 l 360 363 m 397 143 l 280 143 l 280 151 l 301 151 l 301 307 l 244 143 l 234 143 l 179 306 l 179 172 q 184 155 179 160 q 205 151 189 151 l 205 143 l 146 143 l 146 151 q 165 155 160 151 q 169 172 169 159 l 169 319 l 147 319 l 147 326 l 245 326 l 272 249 l 298 326 l 397 326 l 397 319 l 376 319 l 376 151 l 397 151 l 397 143 m 372 15 q 365 -23 372 -6 q 344 -53 357 -40 q 313 -73 331 -66 q 273 -80 294 -80 q 233 -73 251 -80 q 202 -52 215 -65 q 181 -22 189 -40 q 174 15 174 -5 q 181 53 174 35 q 202 83 189 70 q 233 103 215 96 q 273 110 251 110 q 312 103 294 110 q 344 84 331 97 q 365 53 357 71 q 372 15 372 36 m 297 620 l 297 722 q 292 750 297 742 q 267 757 286 757 l 263 757 l 263 589 l 267 589 q 291 595 285 589 q 297 620 297 602 m 291 -41 l 291 72 q 288 93 291 83 q 273 103 285 103 q 258 93 261 103 q 256 72 256 83 l 256 -41 q 258 -63 256 -53 q 273 -73 261 -73 q 288 -63 285 -73 q 291 -41 291 -53 z "},"":{"ha":556,"x_min":28,"x_max":528,"o":"m 528 -149 l 28 -149 l 28 833 l 528 833 l 528 -149 m 486 -110 l 486 794 l 69 794 l 69 -110 l 486 -110 m 379 673 q 353 604 379 626 q 282 581 328 581 l 165 581 l 165 589 l 185 589 l 185 757 l 165 757 l 165 764 l 282 764 q 353 741 328 764 q 379 673 379 719 m 360 363 l 178 363 l 178 370 l 199 370 l 199 538 l 178 538 l 178 545 l 356 545 l 356 482 l 348 482 q 328 523 342 508 q 285 538 314 538 l 275 538 l 275 459 l 276 459 q 300 468 291 459 q 310 495 308 477 l 318 495 l 318 415 l 310 415 q 300 443 308 433 q 276 452 291 452 l 275 452 l 275 370 l 289 370 q 332 389 318 370 q 352 433 346 408 l 360 433 l 360 363 m 397 143 l 280 143 l 280 151 l 301 151 l 301 307 l 244 143 l 234 143 l 179 306 l 179 172 q 184 155 179 160 q 205 151 189 151 l 205 143 l 146 143 l 146 151 q 165 155 160 151 q 169 172 169 159 l 169 319 l 147 319 l 147 326 l 245 326 l 272 249 l 298 326 l 397 326 l 397 319 l 376 319 l 376 151 l 397 151 l 397 143 m 372 15 q 365 -23 372 -6 q 344 -53 357 -40 q 313 -73 331 -66 q 273 -80 294 -80 q 233 -73 251 -80 q 202 -52 215 -65 q 181 -22 189 -40 q 174 15 174 -5 q 181 53 174 35 q 202 83 189 70 q 233 103 215 96 q 273 110 251 110 q 312 103 294 110 q 344 84 331 97 q 365 53 357 71 q 372 15 372 36 m 297 620 l 297 722 q 292 750 297 742 q 267 757 286 757 l 263 757 l 263 589 l 267 589 q 291 595 285 589 q 297 620 297 602 m 291 -41 l 291 72 q 288 93 291 83 q 273 103 285 103 q 258 93 261 103 q 256 72 256 83 l 256 -41 q 258 -63 256 -53 q 273 -73 261 -73 q 288 -63 285 -73 q 291 -41 291 -53 z "},"":{"ha":556,"x_min":28,"x_max":528,"o":"m 528 -149 l 28 -149 l 28 833 l 528 833 l 528 -149 m 486 -110 l 486 794 l 69 794 l 69 -110 l 486 -110 m 379 673 q 353 604 379 626 q 282 581 328 581 l 165 581 l 165 589 l 185 589 l 185 757 l 165 757 l 165 764 l 282 764 q 353 741 328 764 q 379 673 379 719 m 360 363 l 178 363 l 178 370 l 199 370 l 199 538 l 178 538 l 178 545 l 356 545 l 356 482 l 348 482 q 328 523 342 508 q 285 538 314 538 l 275 538 l 275 459 l 276 459 q 300 468 291 459 q 310 495 308 477 l 318 495 l 318 415 l 310 415 q 300 443 308 433 q 276 452 291 452 l 275 452 l 275 370 l 289 370 q 332 389 318 370 q 352 433 346 408 l 360 433 l 360 363 m 397 143 l 280 143 l 280 151 l 301 151 l 301 307 l 244 143 l 234 143 l 179 306 l 179 172 q 184 155 179 160 q 205 151 189 151 l 205 143 l 146 143 l 146 151 q 165 155 160 151 q 169 172 169 159 l 169 319 l 147 319 l 147 326 l 245 326 l 272 249 l 298 326 l 397 326 l 397 319 l 376 319 l 376 151 l 397 151 l 397 143 m 372 15 q 365 -23 372 -6 q 344 -53 357 -40 q 313 -73 331 -66 q 273 -80 294 -80 q 233 -73 251 -80 q 202 -52 215 -65 q 181 -22 189 -40 q 174 15 174 -5 q 181 53 174 35 q 202 83 189 70 q 233 103 215 96 q 273 110 251 110 q 312 103 294 110 q 344 84 331 97 q 365 53 357 71 q 372 15 372 36 m 297 620 l 297 722 q 292 750 297 742 q 267 757 286 757 l 263 757 l 263 589 l 267 589 q 291 595 285 589 q 297 620 297 602 m 291 -41 l 291 72 q 288 93 291 83 q 273 103 285 103 q 258 93 261 103 q 256 72 256 83 l 256 -41 q 258 -63 256 -53 q 273 -73 261 -73 q 288 -63 285 -73 q 291 -41 291 -53 z "},"":{"ha":322,"x_min":22,"x_max":304,"o":"m 304 493 l 226 453 l 276 289 q 288 251 283 267 q 294 221 292 235 q 297 193 296 207 q 297 160 297 178 q 286 98 297 126 q 254 48 274 70 q 206 11 233 26 q 146 -13 178 -5 q 96 -2 119 -13 q 57 28 74 9 q 31 71 40 47 q 22 124 22 96 q 34 184 22 156 q 66 234 46 213 q 114 271 87 256 q 172 292 142 286 q 222 276 198 290 q 209 319 217 294 q 194 369 201 344 q 176 426 185 397 l 96 385 l 85 407 l 169 450 l 82 736 q 66 762 76 753 q 29 771 56 771 l 29 781 q 68 785 51 781 q 100 798 85 790 q 125 814 114 805 q 143 833 135 824 l 150 829 q 139 799 142 813 q 136 773 136 787 l 136 767 q 142 730 137 751 q 156 679 147 708 l 218 476 l 293 515 l 304 493 m 247 129 q 245 161 247 144 q 240 196 244 178 q 224 224 235 212 q 199 243 213 236 q 169 252 185 251 l 163 252 q 135 247 149 252 q 84 216 101 237 q 67 153 67 194 q 75 105 67 127 q 98 66 83 83 q 134 40 113 49 q 181 31 155 31 q 233 64 219 41 q 247 129 247 88 z "},"":{"ha":556,"x_min":28,"x_max":528,"o":"m 528 -149 l 28 -149 l 28 833 l 528 833 l 528 -149 m 486 -110 l 486 794 l 69 794 l 69 -110 l 486 -110 m 379 673 q 353 604 379 626 q 282 581 328 581 l 165 581 l 165 589 l 185 589 l 185 757 l 165 757 l 165 764 l 282 764 q 353 741 328 764 q 379 673 379 719 m 360 363 l 178 363 l 178 370 l 199 370 l 199 538 l 178 538 l 178 545 l 356 545 l 356 482 l 348 482 q 328 523 342 508 q 285 538 314 538 l 275 538 l 275 459 l 276 459 q 300 468 291 459 q 310 495 308 477 l 318 495 l 318 415 l 310 415 q 300 443 308 433 q 276 452 291 452 l 275 452 l 275 370 l 289 370 q 332 389 318 370 q 352 433 346 408 l 360 433 l 360 363 m 397 143 l 280 143 l 280 151 l 301 151 l 301 307 l 244 143 l 234 143 l 179 306 l 179 172 q 184 155 179 160 q 205 151 189 151 l 205 143 l 146 143 l 146 151 q 165 155 160 151 q 169 172 169 159 l 169 319 l 147 319 l 147 326 l 245 326 l 272 249 l 298 326 l 397 326 l 397 319 l 376 319 l 376 151 l 397 151 l 397 143 m 372 15 q 365 -23 372 -6 q 344 -53 357 -40 q 313 -73 331 -66 q 273 -80 294 -80 q 233 -73 251 -80 q 202 -52 215 -65 q 181 -22 189 -40 q 174 15 174 -5 q 181 53 174 35 q 202 83 189 70 q 233 103 215 96 q 273 110 251 110 q 312 103 294 110 q 344 84 331 97 q 365 53 357 71 q 372 15 372 36 m 297 620 l 297 722 q 292 750 297 742 q 267 757 286 757 l 263 757 l 263 589 l 267 589 q 291 595 285 589 q 297 620 297 602 m 291 -41 l 291 72 q 288 93 291 83 q 273 103 285 103 q 258 93 261 103 q 256 72 256 83 l 256 -41 q 258 -63 256 -53 q 273 -73 261 -73 q 288 -63 285 -73 q 291 -41 291 -53 z "},"":{"ha":556,"x_min":28,"x_max":528,"o":"m 528 -149 l 28 -149 l 28 833 l 528 833 l 528 -149 m 486 -110 l 486 794 l 69 794 l 69 -110 l 486 -110 m 379 673 q 353 604 379 626 q 282 581 328 581 l 165 581 l 165 589 l 185 589 l 185 757 l 165 757 l 165 764 l 282 764 q 353 741 328 764 q 379 673 379 719 m 360 363 l 178 363 l 178 370 l 199 370 l 199 538 l 178 538 l 178 545 l 356 545 l 356 482 l 348 482 q 328 523 342 508 q 285 538 314 538 l 275 538 l 275 459 l 276 459 q 300 468 291 459 q 310 495 308 477 l 318 495 l 318 415 l 310 415 q 300 443 308 433 q 276 452 291 452 l 275 452 l 275 370 l 289 370 q 332 389 318 370 q 352 433 346 408 l 360 433 l 360 363 m 397 143 l 280 143 l 280 151 l 301 151 l 301 307 l 244 143 l 234 143 l 179 306 l 179 172 q 184 155 179 160 q 205 151 189 151 l 205 143 l 146 143 l 146 151 q 165 155 160 151 q 169 172 169 159 l 169 319 l 147 319 l 147 326 l 245 326 l 272 249 l 298 326 l 397 326 l 397 319 l 376 319 l 376 151 l 397 151 l 397 143 m 372 15 q 365 -23 372 -6 q 344 -53 357 -40 q 313 -73 331 -66 q 273 -80 294 -80 q 233 -73 251 -80 q 202 -52 215 -65 q 181 -22 189 -40 q 174 15 174 -5 q 181 53 174 35 q 202 83 189 70 q 233 103 215 96 q 273 110 251 110 q 312 103 294 110 q 344 84 331 97 q 365 53 357 71 q 372 15 372 36 m 297 620 l 297 722 q 292 750 297 742 q 267 757 286 757 l 263 757 l 263 589 l 267 589 q 291 595 285 589 q 297 620 297 602 m 291 -41 l 291 72 q 288 93 291 83 q 273 103 285 103 q 258 93 261 103 q 256 72 256 83 l 256 -41 q 258 -63 256 -53 q 273 -73 261 -73 q 288 -63 285 -73 q 291 -41 291 -53 z "},"":{"ha":556,"x_min":28,"x_max":528,"o":"m 528 -149 l 28 -149 l 28 833 l 528 833 l 528 -149 m 486 -110 l 486 794 l 69 794 l 69 -110 l 486 -110 m 379 673 q 353 604 379 626 q 282 581 328 581 l 165 581 l 165 589 l 185 589 l 185 757 l 165 757 l 165 764 l 282 764 q 353 741 328 764 q 379 673 379 719 m 360 363 l 178 363 l 178 370 l 199 370 l 199 538 l 178 538 l 178 545 l 356 545 l 356 482 l 348 482 q 328 523 342 508 q 285 538 314 538 l 275 538 l 275 459 l 276 459 q 300 468 291 459 q 310 495 308 477 l 318 495 l 318 415 l 310 415 q 300 443 308 433 q 276 452 291 452 l 275 452 l 275 370 l 289 370 q 332 389 318 370 q 352 433 346 408 l 360 433 l 360 363 m 397 143 l 280 143 l 280 151 l 301 151 l 301 307 l 244 143 l 234 143 l 179 306 l 179 172 q 184 155 179 160 q 205 151 189 151 l 205 143 l 146 143 l 146 151 q 165 155 160 151 q 169 172 169 159 l 169 319 l 147 319 l 147 326 l 245 326 l 272 249 l 298 326 l 397 326 l 397 319 l 376 319 l 376 151 l 397 151 l 397 143 m 372 15 q 365 -23 372 -6 q 344 -53 357 -40 q 313 -73 331 -66 q 273 -80 294 -80 q 233 -73 251 -80 q 202 -52 215 -65 q 181 -22 189 -40 q 174 15 174 -5 q 181 53 174 35 q 202 83 189 70 q 233 103 215 96 q 273 110 251 110 q 312 103 294 110 q 344 84 331 97 q 365 53 357 71 q 372 15 372 36 m 297 620 l 297 722 q 292 750 297 742 q 267 757 286 757 l 263 757 l 263 589 l 267 589 q 291 595 285 589 q 297 620 297 602 m 291 -41 l 291 72 q 288 93 291 83 q 273 103 285 103 q 258 93 261 103 q 256 72 256 83 l 256 -41 q 258 -63 256 -53 q 273 -73 261 -73 q 288 -63 285 -73 q 291 -41 291 -53 z "},"":{"ha":556,"x_min":28,"x_max":528,"o":"m 528 -149 l 28 -149 l 28 833 l 528 833 l 528 -149 m 486 -110 l 486 794 l 69 794 l 69 -110 l 486 -110 m 379 673 q 353 604 379 626 q 282 581 328 581 l 165 581 l 165 589 l 185 589 l 185 757 l 165 757 l 165 764 l 282 764 q 353 741 328 764 q 379 673 379 719 m 360 363 l 178 363 l 178 370 l 199 370 l 199 538 l 178 538 l 178 545 l 356 545 l 356 482 l 348 482 q 328 523 342 508 q 285 538 314 538 l 275 538 l 275 459 l 276 459 q 300 468 291 459 q 310 495 308 477 l 318 495 l 318 415 l 310 415 q 300 443 308 433 q 276 452 291 452 l 275 452 l 275 370 l 289 370 q 332 389 318 370 q 352 433 346 408 l 360 433 l 360 363 m 397 143 l 280 143 l 280 151 l 301 151 l 301 307 l 244 143 l 234 143 l 179 306 l 179 172 q 184 155 179 160 q 205 151 189 151 l 205 143 l 146 143 l 146 151 q 165 155 160 151 q 169 172 169 159 l 169 319 l 147 319 l 147 326 l 245 326 l 272 249 l 298 326 l 397 326 l 397 319 l 376 319 l 376 151 l 397 151 l 397 143 m 372 15 q 365 -23 372 -6 q 344 -53 357 -40 q 313 -73 331 -66 q 273 -80 294 -80 q 233 -73 251 -80 q 202 -52 215 -65 q 181 -22 189 -40 q 174 15 174 -5 q 181 53 174 35 q 202 83 189 70 q 233 103 215 96 q 273 110 251 110 q 312 103 294 110 q 344 84 331 97 q 365 53 357 71 q 372 15 372 36 m 297 620 l 297 722 q 292 750 297 742 q 267 757 286 757 l 263 757 l 263 589 l 267 589 q 291 595 285 589 q 297 620 297 602 m 291 -41 l 291 72 q 288 93 291 83 q 273 103 285 103 q 258 93 261 103 q 256 72 256 83 l 256 -41 q 258 -63 256 -53 q 273 -73 261 -73 q 288 -63 285 -73 q 291 -41 291 -53 z "},"":{"ha":556,"x_min":28,"x_max":528,"o":"m 528 -149 l 28 -149 l 28 833 l 528 833 l 528 -149 m 486 -110 l 486 794 l 69 794 l 69 -110 l 486 -110 m 379 673 q 353 604 379 626 q 282 581 328 581 l 165 581 l 165 589 l 185 589 l 185 757 l 165 757 l 165 764 l 282 764 q 353 741 328 764 q 379 673 379 719 m 360 363 l 178 363 l 178 370 l 199 370 l 199 538 l 178 538 l 178 545 l 356 545 l 356 482 l 348 482 q 328 523 342 508 q 285 538 314 538 l 275 538 l 275 459 l 276 459 q 300 468 291 459 q 310 495 308 477 l 318 495 l 318 415 l 310 415 q 300 443 308 433 q 276 452 291 452 l 275 452 l 275 370 l 289 370 q 332 389 318 370 q 352 433 346 408 l 360 433 l 360 363 m 397 143 l 280 143 l 280 151 l 301 151 l 301 307 l 244 143 l 234 143 l 179 306 l 179 172 q 184 155 179 160 q 205 151 189 151 l 205 143 l 146 143 l 146 151 q 165 155 160 151 q 169 172 169 159 l 169 319 l 147 319 l 147 326 l 245 326 l 272 249 l 298 326 l 397 326 l 397 319 l 376 319 l 376 151 l 397 151 l 397 143 m 372 15 q 365 -23 372 -6 q 344 -53 357 -40 q 313 -73 331 -66 q 273 -80 294 -80 q 233 -73 251 -80 q 202 -52 215 -65 q 181 -22 189 -40 q 174 15 174 -5 q 181 53 174 35 q 202 83 189 70 q 233 103 215 96 q 273 110 251 110 q 312 103 294 110 q 344 84 331 97 q 365 53 357 71 q 372 15 372 36 m 297 620 l 297 722 q 292 750 297 742 q 267 757 286 757 l 263 757 l 263 589 l 267 589 q 291 595 285 589 q 297 620 297 602 m 291 -41 l 291 72 q 288 93 291 83 q 273 103 285 103 q 258 93 261 103 q 256 72 256 83 l 256 -41 q 258 -63 256 -53 q 273 -73 261 -73 q 288 -63 285 -73 q 291 -41 291 -53 z "}}}
